<svg xmlns="http://www.w3.org/2000/svg" width="44.999" height="44.999" viewBox="0 0 44.999 44.999"><defs><style>.a{fill:#FFFFFF;}</style></defs><path class="a" d="M28.022,11.75a1.978,1.978,0,0,0-.251-1.78,2.173,2.173,0,0,0-1.8-.919h-.035a2.275,2.275,0,0,0-1.475.715c-3.494,3.324-6.952,6.58-10.429,9.875a2.17,2.17,0,0,0-.7,1.808,2.134,2.134,0,0,0,1.051,1.592c1.823,1.1,3.671,2.136,5.5,3.185-.854,2-1.624,3.877-2.419,5.793A10.769,10.769,0,0,1,20.23,11.973a.659.659,0,1,0-.277-1.289,12.087,12.087,0,0,0-2.977,22.565,2.033,2.033,0,0,0,1.063,2.484,2.085,2.085,0,0,0,2.5-.5c3.448-3.262,6.953-6.576,10.431-9.876a2.153,2.153,0,0,0,.7-1.816,2.2,2.2,0,0,0-1.131-1.63c-1.82-1.047-3.61-2.088-5.417-3.133.812-1.912,1.637-3.832,2.422-5.792a10.769,10.769,0,0,1-2.713,20.03.659.659,0,1,0,.284,1.288A12.087,12.087,0,0,0,28.022,11.75Zm-1.26-.389c-.767,1.979-1.615,3.974-2.436,5.9q-.289.68-.577,1.359a.835.835,0,0,0,.381,1.105c1.925,1.111,3.81,2.209,5.746,3.323a.884.884,0,0,1,.479.643.841.841,0,0,1-.3.7c-3.476,3.3-6.985,6.615-10.43,9.874-.493.467-.783.386-1.015.273a.716.716,0,0,1-.378-.913c.955-2.468,1.947-4.731,3.016-7.262a.83.83,0,0,0-.386-1.1c-1.929-1.11-3.882-2.2-5.8-3.358a.818.818,0,0,1-.422-.6.854.854,0,0,1,.3-.709c3.478-3.3,6.936-6.552,10.431-9.877a1.09,1.09,0,0,1,.6-.352.846.846,0,0,1,.713.351.674.674,0,0,1,.076.642ZM42.88,16.953H39.869a.813.813,0,0,1-.756-.538c-.168-.459-.357-.916-.563-1.359a.814.814,0,0,1,.154-.916l2.129-2.129a2.122,2.122,0,0,0,0-3L35.986,4.167a2.122,2.122,0,0,0-3,0L30.859,6.3a.814.814,0,0,1-.916.154c-.443-.206-.9-.4-1.359-.563a.813.813,0,0,1-.538-.756V2.119A2.122,2.122,0,0,0,25.927,0H19.072a2.122,2.122,0,0,0-2.119,2.119V5.13a.813.813,0,0,1-.538.756c-.459.168-.916.357-1.359.563A.814.814,0,0,1,14.14,6.3L12.011,4.166a2.122,2.122,0,0,0-3,0L4.167,9.013a2.122,2.122,0,0,0,0,3L6.3,14.139a.814.814,0,0,1,.154.916c-.206.443-.395.9-.563,1.359a.813.813,0,0,1-.756.538H2.119A2.122,2.122,0,0,0,0,19.072v6.854a2.122,2.122,0,0,0,2.119,2.119H5.13a.813.813,0,0,1,.756.538c.168.459.357.916.563,1.359a.814.814,0,0,1-.154.916L4.166,32.989a2.122,2.122,0,0,0,0,3l4.847,4.847a2.122,2.122,0,0,0,3,0L14.139,38.7a.814.814,0,0,1,.916-.154c.443.206.9.395,1.359.563a.813.813,0,0,1,.538.756V42.88A2.122,2.122,0,0,0,19.072,45h6.854a2.122,2.122,0,0,0,2.119-2.119V39.869a.813.813,0,0,1,.538-.756c.459-.168.916-.357,1.359-.563a.814.814,0,0,1,.916.154l2.129,2.129a2.122,2.122,0,0,0,3,0l4.847-4.847a2.122,2.122,0,0,0,0-3L38.7,30.86a.814.814,0,0,1-.154-.916c.206-.443.395-.9.563-1.359a.813.813,0,0,1,.756-.538H42.88A2.122,2.122,0,0,0,45,25.927V19.072A2.121,2.121,0,0,0,42.88,16.953Zm.8,8.974a.8.8,0,0,1-.8.8H39.869a2.136,2.136,0,0,0-1.994,1.4c-.155.425-.331.848-.521,1.257a2.137,2.137,0,0,0,.418,2.4L39.9,33.921a.8.8,0,0,1,0,1.133L35.053,39.9a.8.8,0,0,1-1.133,0l-2.129-2.129a2.136,2.136,0,0,0-2.4-.418c-.41.19-.833.365-1.257.521a2.136,2.136,0,0,0-1.4,1.994V42.88a.8.8,0,0,1-.8.8H19.072a.8.8,0,0,1-.8-.8V39.869a2.136,2.136,0,0,0-1.4-1.994c-.425-.155-.848-.331-1.257-.521a2.139,2.139,0,0,0-2.4.418L11.078,39.9a.8.8,0,0,1-1.133,0L5.1,35.053a.8.8,0,0,1,0-1.133l2.129-2.129a2.136,2.136,0,0,0,.418-2.4c-.19-.41-.365-.833-.521-1.257a2.136,2.136,0,0,0-1.994-1.4H2.119a.8.8,0,0,1-.8-.8V19.072a.8.8,0,0,1,.8-.8H5.13a2.136,2.136,0,0,0,1.994-1.4c.155-.425.331-.848.521-1.257a2.137,2.137,0,0,0-.418-2.4L5.1,11.078a.8.8,0,0,1,0-1.133L9.946,5.1a.8.8,0,0,1,1.133,0l2.129,2.129a2.136,2.136,0,0,0,2.4.418c.41-.19.833-.365,1.257-.521a2.136,2.136,0,0,0,1.4-1.994V2.119a.8.8,0,0,1,.8-.8h6.854a.8.8,0,0,1,.8.8V5.13a2.136,2.136,0,0,0,1.4,1.994c.425.155.848.331,1.257.521a2.137,2.137,0,0,0,2.4-.418L33.921,5.1a.8.8,0,0,1,1.133,0L39.9,9.946a.8.8,0,0,1,0,1.133l-2.129,2.129a2.137,2.137,0,0,0-.418,2.4c.19.41.365.833.521,1.257a2.136,2.136,0,0,0,1.994,1.4H42.88a.8.8,0,0,1,.8.8v6.854Z" transform="translate(0)"/></svg>