<svg xmlns="http://www.w3.org/2000/svg" width="81.711" height="73.3" viewBox="0 0 81.711 73.3"><defs><style>.a{fill:#0d041d96;}</style></defs><path class="a" d="M13.713,91.921a1.2,1.2,0,1,0-1.2-1.2A1.2,1.2,0,0,0,13.713,91.921ZM68,89.527a1.2,1.2,0,1,0,1.2,1.2A1.2,1.2,0,0,0,68,89.527ZM78.918,74.476h-6.3A18.087,18.087,0,0,0,80.308,51.8a1.2,1.2,0,1,0-2.207.926,15.7,15.7,0,0,1-11.15,21.4V43.456a15.568,15.568,0,0,1,9.188,5.869,1.2,1.2,0,1,0,1.908-1.446,17.935,17.935,0,0,0-11.1-6.864V37.122a1.2,1.2,0,0,0-2.394,0v3.615c-.307-.015-.615-.024-.925-.024h-7.5V37.122a1.2,1.2,0,0,0-2.394,0v3.591H42.052V36.324a2.8,2.8,0,0,0-2.394-2.761V29.143a2.8,2.8,0,0,0-2.793-2.793H26.258a2.8,2.8,0,0,0-2.793,2.793v4.421a2.8,2.8,0,0,0-2.394,2.761v4.389H18.078A18.076,18.076,0,0,0,9.1,74.476h-6.3A2.8,2.8,0,0,0,0,77.269V81.4a2.8,2.8,0,0,0,2.793,2.793H7.639a8.926,8.926,0,1,0,12.149,0h7.049a1.2,1.2,0,0,0,0-2.394H2.793a.4.4,0,0,1-.4-.4V77.269a.4.4,0,0,1,.4-.4H78.918a.4.4,0,0,1,.4.4V81.4a.4.4,0,0,1-.4.4H31.624a1.2,1.2,0,0,0,0,2.394h30.3a8.926,8.926,0,1,0,12.149,0h4.846A2.8,2.8,0,0,0,81.711,81.4V77.269A2.8,2.8,0,0,0,78.918,74.476Zm-65.2,9.717a6.532,6.532,0,1,1-6.532,6.532A6.539,6.539,0,0,1,13.713,84.192Zm12.146-55.05a.4.4,0,0,1,.4-.4H36.866a.4.4,0,0,1,.4.4v4.389H25.859Zm-2.394,7.182a.4.4,0,0,1,.4-.4h15.4a.4.4,0,0,1,.4.4v4.389H23.465ZM53.737,74.476H18.078a15.684,15.684,0,1,1,0-31.369H53.737V74.476Zm10.82-.028c-.785.048-7.582.031-8.426.028V71.833h8.426Zm0-5.009H56.131V67.046h8.426Zm0-4.788H56.131V62.258h8.426Zm0-4.788H56.131V57.47h8.426Zm0-4.788H56.131V52.683h8.426Zm0-4.788H56.131V47.895h8.426Zm0-4.788H56.131V43.107h7.5q.465,0,.925.026Zm9.972,45.223A6.532,6.532,0,1,1,68,84.192,6.54,6.54,0,0,1,74.529,90.724ZM40.855,66.658a6.273,6.273,0,0,0,6.319-6.213c0-1.095-.651-3.708-5.012-8.91a1.705,1.705,0,0,0-2.614,0c-4.36,5.2-5.011,7.815-5.011,8.91A6.273,6.273,0,0,0,40.855,66.658Zm0-12.945c2.369,2.929,3.925,5.582,3.925,6.732a3.926,3.926,0,0,1-7.85,0c0-1.149,1.556-3.8,3.925-6.732Z" transform="translate(0 -26.35)"/></svg>