<svg xmlns="http://www.w3.org/2000/svg" width="46.943" height="46.944" viewBox="0 0 46.943 46.944"><defs><style>.a{fill:#FFFFFF;}</style></defs><path class="a" d="M46.26,29.406h-.808V25.358a2.061,2.061,0,0,0-1.664-2.024L30.123,19.558V14.05h3.971a.688.688,0,1,0,0-1.375H30.123V9.292l13.388,2.4a.687.687,0,0,1,.566.677v.3H36.844a.688.688,0,1,0,0,1.375h7.233v2.37h-.808a.688.688,0,1,0,0,1.375H46.26a.688.688,0,1,0,0-1.375h-.808V12.371a2.061,2.061,0,0,0-1.7-2.03L30.122,7.9V6.4a2.517,2.517,0,0,0-.895-1.926L24.275.293a1.235,1.235,0,0,0-1.6,0L17.725,4.475A2.516,2.516,0,0,0,16.83,6.4V7.9L3.2,10.341a2.061,2.061,0,0,0-1.7,2.03v4.048H.693a.688.688,0,1,0,0,1.375H3.684a.688.688,0,1,0,0-1.375H2.876V14.05H16.831v5.509L3.165,23.334A2.061,2.061,0,0,0,1.5,25.358v4.048H.693a.688.688,0,0,0,0,1.375H3.684a.688.688,0,0,0,0-1.375H2.876v-2.37h13.67L14.1,33.982a.688.688,0,0,0,1.3.458l1.172-3.323,5.692,3.741L13.145,40.81l1.42-4.025a.688.688,0,0,0-1.3-.458l-1.934,5.481h-.327a1.606,1.606,0,0,0-1.6,1.6v1.925a1.606,1.606,0,0,0,1.6,1.6H35.946a1.606,1.606,0,0,0,1.6-1.6V43.413a1.606,1.606,0,0,0-1.6-1.6h-.327L30.407,27.036h13.67v2.37h-.808a.688.688,0,1,0,0,1.375H46.26a.688.688,0,1,0,0-1.375Zm-29.43-3.745H2.876v-.3a.687.687,0,0,1,.566-.677c.021,0,.041-.008.062-.014L16.83,20.985v4.676Zm0-12.987H2.876v-.3a.687.687,0,0,1,.566-.677l13.388-2.4ZM18.206,6.4a1.144,1.144,0,0,1,.407-.876l4.864-4.107,4.864,4.107a1.144,1.144,0,0,1,.407.876V7.783H18.206Zm0,2.757H28.747v3.516H18.206Zm8.61,10.236H20.138l3.339-1.883ZM20.138,14.05h6.678l-3.339,1.883Zm4.739,2.672,3.871-2.183V18.9Zm-6.671-2.183,3.871,2.183L18.206,18.9Zm0,6.23H28.747v4.892H18.206Zm-1.169,9.011L18,27.037H28.948l.989,2.8-6.424,4.2Zm6.474,5.9,9.323,6.128h-18.7Zm12.435,7.5a.229.229,0,0,1,.229.229v1.925a.229.229,0,0,1-.229.229H11.007a.229.229,0,0,1-.229-.229V43.414a.229.229,0,0,1,.229-.229ZM30.409,31.175,33.8,40.8l-9.038-5.94Zm13.668-5.514H30.122V20.985l13.326,3.682c.02.006.041.01.062.014a.687.687,0,0,1,.566.677v.3Z" transform="translate(-0.005 0)"/></svg>