<svg xmlns="http://www.w3.org/2000/svg" width="640.93" height="438.46" viewBox="0 0 640.93 438.46">
  <g id="a188ZTVkBX" transform="translate(0.43 -56.4)">
    <g id="Group_2752" data-name="Group 2752">
      <g id="Group_2751" data-name="Group 2751">
        <path id="Path_4327" data-name="Path 4327" d="M576.23,72.31A12.415,12.415,0,1,1,563.81,59.9,12.426,12.426,0,0,1,576.23,72.31Z" fill="rgba(0,0,0,0)" stroke="#7c1dc9" stroke-width="7"/>
      </g>
    </g>
    <g id="Group_2754" data-name="Group 2754">
      <g id="Group_2753" data-name="Group 2753">
        <path id="Path_4328" data-name="Path 4328" d="M88.66,72.31A12.41,12.41,0,1,1,76.25,59.9,12.423,12.423,0,0,1,88.66,72.31Z" fill="rgba(0,0,0,0)" stroke="#7c1dc9" stroke-width="7"/>
      </g>
    </g>
    <g id="Group_2755" data-name="Group 2755">
      <path id="Path_4329" data-name="Path 4329" d="M99.01,103.35A22.76,22.76,0,1,1,76.25,80.59,22.773,22.773,0,0,1,99.01,103.35Z" fill="#dadada"/>
    </g>
    <g id="Group_2756" data-name="Group 2756">
      <path id="Path_4330" data-name="Path 4330" d="M586.57,104.83a22.755,22.755,0,1,1-22.76-22.76A22.766,22.766,0,0,1,586.57,104.83Z" fill="#dadada"/>
    </g>
    <g id="Group_2758" data-name="Group 2758">
      <path id="Path_4331" data-name="Path 4331" d="M91.49,258.2V486.74H61.01V258.2Z" fill="rgba(77,77,77,0.81)"/>
      <g id="Group_2757" data-name="Group 2757">
        <path id="Path_4332" data-name="Path 4332" d="M91.49,258.2V486.74H61.01V258.2Z" fill="#7c1dc9" stroke="rgba(0,0,0,0)" stroke-width="1"/>
      </g>
    </g>
    <g id="Group_2760" data-name="Group 2760">
      <path id="Path_4333" data-name="Path 4333" d="M579.05,258.2V486.74H548.58V258.2Z" fill="rgba(77,77,77,0.81)"/>
      <g id="Group_2759" data-name="Group 2759">
        <path id="Path_4334" data-name="Path 4334" d="M579.05,258.2V486.74H548.58V258.2Z" fill="#7c1dc9" stroke="rgba(0,0,0,0)" stroke-width="1"/>
      </g>
    </g>
    <g id="Group_2763" data-name="Group 2763">
      <path id="Path_4335" data-name="Path 4335" d="M625,105V260H17.7V105Z" fill="#d40000"/>
      <g id="Group_2761" data-name="Group 2761">
        <path id="Path_4336" data-name="Path 4336" d="M625,105V260H17.7V105Z" fill="rgba(0,0,0,0)" stroke="rgba(0,0,0,0)" stroke-width="1"/>
      </g>
      <g id="Group_2762" data-name="Group 2762">
        <path id="civHnzDW2" d="M625,105V260H17.7V105Z" fill="#7c1dc9"/>
      </g>
    </g>
    <g id="Group_2766" data-name="Group 2766">
      <path id="Path_4337" data-name="Path 4337" d="M87.5,105h18.75L17.5,193.75V175Z" fill="#f3eff3"/>
      <g id="Group_2764" data-name="Group 2764">
        <path id="Path_4338" data-name="Path 4338" d="M87.5,105h18.75L17.5,193.75V175Z" fill="rgba(0,0,0,0)" stroke="rgba(0,0,0,0)" stroke-width="1"/>
      </g>
      <g id="Group_2765" data-name="Group 2765">
        <path id="a5w5WtdtET" d="M87.5,105h18.75L17.5,193.75V175Z" fill="#fff"/>
      </g>
    </g>
    <g id="Group_2769" data-name="Group 2769">
      <path id="Path_4339" data-name="Path 4339" d="M17.5,118.75,31.25,105H50L17.5,137.5V118.75Z" fill="#f3eff3"/>
      <g id="Group_2767" data-name="Group 2767">
        <path id="Path_4340" data-name="Path 4340" d="M17.5,118.75,31.25,105H50L17.5,137.5V118.75Z" fill="rgba(0,0,0,0)" stroke="rgba(0,0,0,0)" stroke-width="1"/>
      </g>
      <g id="Group_2768" data-name="Group 2768">
        <path id="bwmyVMMQN" d="M17.5,118.75,31.25,105H50L17.5,137.5V118.75Z" fill="#fff"/>
      </g>
    </g>
    <g id="Group_2771" data-name="Group 2771">
      <path id="Path_4341" data-name="Path 4341" d="M640,486.74v7.62H.07v-7.62Z" fill="rgba(56,55,55,0.81)"/>
      <g id="Group_2770" data-name="Group 2770">
        <path id="Path_4342" data-name="Path 4342" d="M640,486.74v7.62H.07v-7.62Z" fill="#7c1dc9" stroke="rgba(0,0,0,0)" stroke-width="1"/>
      </g>
    </g>
    <g id="Group_2773" data-name="Group 2773">
      <path id="Path_4343" data-name="Path 4343" d="M40,340H600v40H40Z" fill="#d40000"/>
      <g id="Group_2772" data-name="Group 2772">
        <path id="d5UQWlEenC" d="M40,340H600v40H40Z" fill="#7c1dc9"/>
      </g>
    </g>
    <g id="Group_2776" data-name="Group 2776">
      <path id="Path_4344" data-name="Path 4344" d="M40,357.22,56.25,340H75L40,380V357.22Z" fill="#f3eff3"/>
      <g id="Group_2774" data-name="Group 2774">
        <path id="Path_4345" data-name="Path 4345" d="M40,357.22,56.25,340H75L40,380V357.22Z" fill="rgba(0,0,0,0)" stroke="rgba(0,0,0,0)" stroke-width="1"/>
      </g>
      <g id="Group_2775" data-name="Group 2775">
        <path id="bQHFXcFCR" d="M40,357.22,56.25,340H75L40,380V357.22Z" fill="#fff"/>
      </g>
    </g>
    <g id="Group_2779" data-name="Group 2779">
      <path id="Path_4346" data-name="Path 4346" d="M69.67,380,105,340h20L90.33,380H69.67Z" fill="#f3eff3"/>
      <g id="Group_2777" data-name="Group 2777">
        <path id="Path_4347" data-name="Path 4347" d="M69.67,380,105,340h20L90.33,380H69.67Z" fill="rgba(0,0,0,0)" stroke="rgba(0,0,0,0)" stroke-width="1"/>
      </g>
      <g id="Group_2778" data-name="Group 2778">
        <path id="g72IXydck" d="M69.67,380,105,340h20L90.33,380H69.67Z" fill="#fff"/>
      </g>
    </g>
    <g id="Group_2782" data-name="Group 2782">
      <path id="Path_4348" data-name="Path 4348" d="M120.97,380l35.33-40h20l-34.67,40H120.97Z" fill="#f3eff3"/>
      <g id="Group_2780" data-name="Group 2780">
        <path id="Path_4349" data-name="Path 4349" d="M120.97,380l35.33-40h20l-34.67,40H120.97Z" fill="rgba(0,0,0,0)" stroke="rgba(0,0,0,0)" stroke-width="1"/>
      </g>
      <g id="Group_2781" data-name="Group 2781">
        <path id="fs07JcUiy" d="M120.97,380l35.33-40h20l-34.67,40H120.97Z" fill="#fff"/>
      </g>
    </g>
    <g id="Group_2785" data-name="Group 2785">
      <path id="Path_4350" data-name="Path 4350" d="M170,380l35.33-40h20l-34.67,40H170Z" fill="#f3eff3"/>
      <g id="Group_2783" data-name="Group 2783">
        <path id="Path_4351" data-name="Path 4351" d="M170,380l35.33-40h20l-34.67,40H170Z" fill="rgba(0,0,0,0)" stroke="rgba(0,0,0,0)" stroke-width="1"/>
      </g>
      <g id="Group_2784" data-name="Group 2784">
        <path id="j1yyKsKOZw" d="M170,380l35.33-40h20l-34.67,40H170Z" fill="#fff"/>
      </g>
    </g>
    <g id="Group_2788" data-name="Group 2788">
      <path id="Path_4352" data-name="Path 4352" d="M220,380l35.33-40h20l-34.67,40H220Z" fill="#f3eff3"/>
      <g id="Group_2786" data-name="Group 2786">
        <path id="Path_4353" data-name="Path 4353" d="M220,380l35.33-40h20l-34.67,40H220Z" fill="rgba(0,0,0,0)" stroke="rgba(0,0,0,0)" stroke-width="1"/>
      </g>
      <g id="Group_2787" data-name="Group 2787">
        <path id="c2cWSkbDT3" d="M220,380l35.33-40h20l-34.67,40H220Z" fill="#fff"/>
      </g>
    </g>
    <g id="Group_2791" data-name="Group 2791">
      <path id="Path_4354" data-name="Path 4354" d="M270,380l35.33-40h20l-34.67,40H270Z" fill="#f3eff3"/>
      <g id="Group_2789" data-name="Group 2789">
        <path id="Path_4355" data-name="Path 4355" d="M270,380l35.33-40h20l-34.67,40H270Z" fill="rgba(0,0,0,0)" stroke="rgba(0,0,0,0)" stroke-width="1"/>
      </g>
      <g id="Group_2790" data-name="Group 2790">
        <path id="ox6L8Tqbp" d="M270,380l35.33-40h20l-34.67,40H270Z" fill="#fff"/>
      </g>
    </g>
    <g id="Group_2794" data-name="Group 2794">
      <path id="Path_4356" data-name="Path 4356" d="M321.3,380l35.34-40h20l-34.68,40H321.3Z" fill="#f3eff3"/>
      <g id="Group_2792" data-name="Group 2792">
        <path id="Path_4357" data-name="Path 4357" d="M321.3,380l35.34-40h20l-34.68,40H321.3Z" fill="rgba(0,0,0,0)" stroke="rgba(0,0,0,0)" stroke-width="1"/>
      </g>
      <g id="Group_2793" data-name="Group 2793">
        <path id="duKAFGxBo" d="M321.3,380l35.34-40h20l-34.68,40H321.3Z" fill="#fff"/>
      </g>
    </g>
    <g id="Group_2797" data-name="Group 2797">
      <path id="Path_4358" data-name="Path 4358" d="M370.33,380l35.34-40h20l-34.68,40H370.33Z" fill="#f3eff3"/>
      <g id="Group_2795" data-name="Group 2795">
        <path id="Path_4359" data-name="Path 4359" d="M370.33,380l35.34-40h20l-34.68,40H370.33Z" fill="rgba(0,0,0,0)" stroke="rgba(0,0,0,0)" stroke-width="1"/>
      </g>
      <g id="Group_2796" data-name="Group 2796">
        <path id="b21a4Fhwoi" d="M370.33,380l35.34-40h20l-34.68,40H370.33Z" fill="#fff"/>
      </g>
    </g>
    <g id="Group_2800" data-name="Group 2800">
      <path id="Path_4360" data-name="Path 4360" d="M420.33,380l35.34-40h20l-34.68,40H420.33Z" fill="#f3eff3"/>
      <g id="Group_2798" data-name="Group 2798">
        <path id="Path_4361" data-name="Path 4361" d="M420.33,380l35.34-40h20l-34.68,40H420.33Z" fill="rgba(0,0,0,0)" stroke="rgba(0,0,0,0)" stroke-width="1"/>
      </g>
      <g id="Group_2799" data-name="Group 2799">
        <path id="b4dS8MsXc9" d="M420.33,380l35.34-40h20l-34.68,40H420.33Z" fill="#fff"/>
      </g>
    </g>
    <g id="Group_2803" data-name="Group 2803">
      <path id="Path_4362" data-name="Path 4362" d="M470,380l35.33-40h20l-34.67,40H470Z" fill="#f3eff3"/>
      <g id="Group_2801" data-name="Group 2801">
        <path id="Path_4363" data-name="Path 4363" d="M470,380l35.33-40h20l-34.67,40H470Z" fill="rgba(0,0,0,0)" stroke="rgba(0,0,0,0)" stroke-width="1"/>
      </g>
      <g id="Group_2802" data-name="Group 2802">
        <path id="adfee3LgD" d="M470,380l35.33-40h20l-34.67,40H470Z" fill="#fff"/>
      </g>
    </g>
    <g id="Group_2806" data-name="Group 2806">
      <path id="Path_4364" data-name="Path 4364" d="M519.03,380l35.33-40h20l-34.67,40H519.03Z" fill="#f3eff3"/>
      <g id="Group_2804" data-name="Group 2804">
        <path id="Path_4365" data-name="Path 4365" d="M519.03,380l35.33-40h20l-34.67,40H519.03Z" fill="rgba(0,0,0,0)" stroke="rgba(0,0,0,0)" stroke-width="1"/>
      </g>
      <g id="Group_2805" data-name="Group 2805">
        <path id="a1a04W3vnI" d="M519.03,380l35.33-40h20l-34.67,40H519.03Z" fill="#fff"/>
      </g>
    </g>
    <g id="Group_2809" data-name="Group 2809">
      <path id="Path_4366" data-name="Path 4366" d="M569.03,380l30.27-34.27.7-.8v23.1l-.55.71L589.69,380H569.03Z" fill="#f3eff3"/>
      <g id="Group_2807" data-name="Group 2807">
        <path id="Path_4367" data-name="Path 4367" d="M569.03,380l30.27-34.27.7-.8v23.1l-.55.71L589.69,380H569.03Z" fill="rgba(0,0,0,0)" stroke="rgba(0,0,0,0)" stroke-width="1"/>
      </g>
      <g id="Group_2808" data-name="Group 2808">
        <path id="dOfWx4uLF" d="M569.03,380l30.27-34.27.7-.8v23.1l-.55.71L589.69,380H569.03Z" fill="#fff"/>
      </g>
    </g>
    <g id="Group_2812" data-name="Group 2812">
      <path id="Path_4368" data-name="Path 4368" d="M143.75,105H162.5L17.5,250V231.25Z" fill="#f3eff3"/>
      <g id="Group_2810" data-name="Group 2810">
        <path id="Path_4369" data-name="Path 4369" d="M143.75,105H162.5L17.5,250V231.25Z" fill="rgba(0,0,0,0)" stroke="rgba(0,0,0,0)" stroke-width="1"/>
      </g>
      <g id="Group_2811" data-name="Group 2811">
        <path id="c2xnCjDjOs" d="M143.75,105H162.5L17.5,250V231.25Z" fill="#fff"/>
      </g>
    </g>
    <g id="Group_2815" data-name="Group 2815">
      <path id="Path_4370" data-name="Path 4370" d="M200,105h18.75L62.5,260.1,43.75,260Z" fill="#f3eff3"/>
      <g id="Group_2813" data-name="Group 2813">
        <path id="Path_4371" data-name="Path 4371" d="M200,105h18.75L62.5,260.1,43.75,260Z" fill="rgba(0,0,0,0)" stroke="rgba(0,0,0,0)" stroke-width="1"/>
      </g>
      <g id="Group_2814" data-name="Group 2814">
        <path id="b105v4ls0l" d="M200,105h18.75L62.5,260.1,43.75,260Z" fill="#fff"/>
      </g>
    </g>
    <g id="Group_2818" data-name="Group 2818">
      <path id="Path_4372" data-name="Path 4372" d="M256.25,105H275L118.75,260.1,100,260Z" fill="#f3eff3"/>
      <g id="Group_2816" data-name="Group 2816">
        <path id="Path_4373" data-name="Path 4373" d="M256.25,105H275L118.75,260.1,100,260Z" fill="rgba(0,0,0,0)" stroke="rgba(0,0,0,0)" stroke-width="1"/>
      </g>
      <g id="Group_2817" data-name="Group 2817">
        <path id="ajorqLAGD" d="M256.25,105H275L118.75,260.1,100,260Z" fill="#fff"/>
      </g>
    </g>
    <g id="Group_2821" data-name="Group 2821">
      <path id="Path_4374" data-name="Path 4374" d="M256.25,104.9H275l-145,145V231.15Z" fill="#f3eff3"/>
      <g id="Group_2819" data-name="Group 2819">
        <path id="Path_4375" data-name="Path 4375" d="M256.25,104.9H275l-145,145V231.15Z" fill="rgba(0,0,0,0)" stroke="rgba(0,0,0,0)" stroke-width="1"/>
      </g>
      <g id="Group_2820" data-name="Group 2820">
        <path id="f5DNmMGtE" d="M256.25,104.9H275l-145,145V231.15Z" fill="#fff"/>
      </g>
    </g>
    <g id="Group_2824" data-name="Group 2824">
      <path id="Path_4376" data-name="Path 4376" d="M312.5,104.9h18.75L175,260l-18.75-.1Z" fill="#f3eff3"/>
      <g id="Group_2822" data-name="Group 2822">
        <path id="Path_4377" data-name="Path 4377" d="M312.5,104.9h18.75L175,260l-18.75-.1Z" fill="rgba(0,0,0,0)" stroke="rgba(0,0,0,0)" stroke-width="1"/>
      </g>
      <g id="Group_2823" data-name="Group 2823">
        <path id="bKYpfHQJ6" d="M312.5,104.9h18.75L175,260l-18.75-.1Z" fill="#fff"/>
      </g>
    </g>
    <g id="Group_2827" data-name="Group 2827">
      <path id="Path_4378" data-name="Path 4378" d="M368.75,104.9H387.5L231.25,260l-18.75-.1Z" fill="#f3eff3"/>
      <g id="Group_2825" data-name="Group 2825">
        <path id="Path_4379" data-name="Path 4379" d="M368.75,104.9H387.5L231.25,260l-18.75-.1Z" fill="rgba(0,0,0,0)" stroke="rgba(0,0,0,0)" stroke-width="1"/>
      </g>
      <g id="Group_2826" data-name="Group 2826">
        <path id="b1sfKPVIEb" d="M368.75,104.9H387.5L231.25,260l-18.75-.1Z" fill="#fff"/>
      </g>
    </g>
    <g id="Group_2830" data-name="Group 2830">
      <path id="Path_4380" data-name="Path 4380" d="M368.75,104.9H387.5l-145,145V231.15Z" fill="#f3eff3"/>
      <g id="Group_2828" data-name="Group 2828">
        <path id="Path_4381" data-name="Path 4381" d="M368.75,104.9H387.5l-145,145V231.15Z" fill="rgba(0,0,0,0)" stroke="rgba(0,0,0,0)" stroke-width="1"/>
      </g>
      <g id="Group_2829" data-name="Group 2829">
        <path id="a1CurjX3E0" d="M368.75,104.9H387.5l-145,145V231.15Z" fill="#fff"/>
      </g>
    </g>
    <g id="Group_2833" data-name="Group 2833">
      <path id="Path_4382" data-name="Path 4382" d="M425,104.9h18.75L287.5,260l-18.75-.1Z" fill="#f3eff3"/>
      <g id="Group_2831" data-name="Group 2831">
        <path id="Path_4383" data-name="Path 4383" d="M425,104.9h18.75L287.5,260l-18.75-.1Z" fill="rgba(0,0,0,0)" stroke="rgba(0,0,0,0)" stroke-width="1"/>
      </g>
      <g id="Group_2832" data-name="Group 2832">
        <path id="a2f2vyXeZv" d="M425,104.9h18.75L287.5,260l-18.75-.1Z" fill="#fff"/>
      </g>
    </g>
    <g id="Group_2836" data-name="Group 2836" transform="translate(14.76 5)">
      <path id="Path_4384" data-name="Path 4384" d="M481.25,104.9H500L343.75,260,325,259.9Z" fill="#f3eff3"/>
      <g id="Group_2834" data-name="Group 2834">
        <path id="Path_4385" data-name="Path 4385" d="M481.25,104.9H500L343.75,260,325,259.9Z" fill="rgba(0,0,0,0)" stroke="rgba(0,0,0,0)" stroke-width="1"/>
      </g>
      <g id="Group_2835" data-name="Group 2835">
        <path id="abDw2rW0b" d="M481.25,104.9H500L343.75,260,325,259.9Z" fill="#fff"/>
      </g>
    </g>
    <g id="Group_2839" data-name="Group 2839">
      <path id="Path_4386" data-name="Path 4386" d="M625.21,131.25l.12,18.75L512.5,260H493.75Z" fill="#f3eff3"/>
      <g id="Group_2837" data-name="Group 2837">
        <path id="Path_4387" data-name="Path 4387" d="M625.21,131.25l.12,18.75L512.5,260H493.75Z" fill="rgba(0,0,0,0)" stroke="rgba(0,0,0,0)" stroke-width="1"/>
      </g>
      <g id="Group_2838" data-name="Group 2838">
        <path id="dMsRoV709" d="M625.21,131.25l.12,18.75L512.5,260H493.75Z" fill="#fff"/>
      </g>
    </g>
    <g id="Group_2842" data-name="Group 2842">
      <path id="Path_4388" data-name="Path 4388" d="M536.32,104.9h18.75L398.82,260l-18.75-.1Z" fill="#f3eff3"/>
      <g id="Group_2840" data-name="Group 2840">
        <path id="Path_4389" data-name="Path 4389" d="M536.32,104.9h18.75L398.82,260l-18.75-.1Z" fill="rgba(0,0,0,0)" stroke="rgba(0,0,0,0)" stroke-width="1"/>
      </g>
      <g id="Group_2841" data-name="Group 2841">
        <path id="a27gBjmriX" d="M536.32,104.9h18.75L398.82,260l-18.75-.1Z" fill="#fff"/>
      </g>
    </g>
    <g id="Group_2845" data-name="Group 2845">
      <path id="Path_4390" data-name="Path 4390" d="M592.57,104.9h18.75L455.07,260l-18.75-.1Z" fill="#f3eff3"/>
      <g id="Group_2843" data-name="Group 2843">
        <path id="Path_4391" data-name="Path 4391" d="M592.57,104.9h18.75L455.07,260l-18.75-.1Z" fill="rgba(0,0,0,0)" stroke="rgba(0,0,0,0)" stroke-width="1"/>
      </g>
      <g id="Group_2844" data-name="Group 2844">
        <path id="a1K3ECkyO0" d="M592.57,104.9h18.75L455.07,260l-18.75-.1Z" fill="#fff"/>
      </g>
    </g>
    <g id="Group_2848" data-name="Group 2848">
      <path id="Path_4392" data-name="Path 4392" d="M625,181.25V200l-62.5,60H543.75Z" fill="#f3eff3"/>
      <g id="Group_2846" data-name="Group 2846">
        <path id="Path_4393" data-name="Path 4393" d="M625,181.25V200l-62.5,60H543.75Z" fill="rgba(0,0,0,0)" stroke="rgba(0,0,0,0)" stroke-width="1"/>
      </g>
      <g id="Group_2847" data-name="Group 2847">
        <path id="g38cPLoKao" d="M625,181.25V200l-62.5,60H543.75Z" fill="#fff"/>
      </g>
    </g>
    <g id="Group_2851" data-name="Group 2851">
      <path id="Path_4394" data-name="Path 4394" d="M594.03,260.07l14.02-16.52L625,225v18.75l-6.25,7.75L612.5,260l-7.81.07Z" fill="#f3eff3"/>
      <g id="Group_2849" data-name="Group 2849">
        <path id="Path_4395" data-name="Path 4395" d="M594.03,260.07l14.02-16.52L625,225v18.75l-6.25,7.75L612.5,260l-7.81.07Z" fill="rgba(0,0,0,0)" stroke="rgba(0,0,0,0)" stroke-width="1"/>
      </g>
      <g id="Group_2850" data-name="Group 2850">
        <path id="a20z59yzcA" d="M594.03,260.07l14.02-16.52L625,225v18.75l-6.25,7.75L612.5,260l-7.81.07Z" fill="#fff"/>
      </g>
    </g>
  </g>
</svg>
