<svg xmlns="http://www.w3.org/2000/svg" width="27.761" height="27.774" viewBox="0 0 27.761 27.774"><defs><style>.a{fill:#0d041d96;}</style></defs><g transform="translate(0 0.001)"><path class="a" d="M108.629,288a4.629,4.629,0,1,0,4.629,4.629A4.629,4.629,0,0,0,108.629,288Zm0,8.332a3.7,3.7,0,1,1,3.7-3.7A3.7,3.7,0,0,1,108.629,296.332Zm0,0" transform="translate(-97.983 -271.336)"/><path class="a" d="M153.852,321.389c.565,0,.926.274.926.463h.926a1.511,1.511,0,0,0-1.389-1.342V320h-.926v.509A1.509,1.509,0,0,0,152,321.852c0,.779.813,1.389,1.852,1.389.565,0,.926.274.926.463s-.361.463-.926.463-.926-.274-.926-.463H152a1.511,1.511,0,0,0,1.389,1.342v.509h.926v-.509A1.509,1.509,0,0,0,155.7,323.7c0-.779-.813-1.389-1.852-1.389-.565,0-.926-.274-.926-.463S153.286,321.389,153.852,321.389Zm0,0" transform="translate(-143.205 -301.485)"/><path class="a" d="M23.608,26.847H4.166V15.738h7.406a1.389,1.389,0,0,0,1.389-1.389V2.776h5.092V8.331h5.555v6.481h.926V7.677L18.707,1.851H12.961V1.388A1.389,1.389,0,0,0,11.572,0H1.388A1.389,1.389,0,0,0,0,1.388V14.349a1.389,1.389,0,0,0,1.389,1.389H3.24V27.773H24.533V21.292h-.926ZM18.979,3.431l3.974,3.974H18.979ZM.925,14.349V1.388A.463.463,0,0,1,1.388.925H11.572a.463.463,0,0,1,.463.463V14.349a.463.463,0,0,1-.463.463H1.388A.463.463,0,0,1,.925,14.349Zm0,0"/><path class="a" d="M256,200h.926v.926H256Zm0,0" transform="translate(-241.188 -188.428)"/><path class="a" d="M288,200h5.555v.926H288Zm0,0" transform="translate(-271.336 -188.428)"/><path class="a" d="M256,168h.926v.926H256Zm0,0" transform="translate(-241.188 -158.28)"/><path class="a" d="M288,168h5.555v.926H288Zm0,0" transform="translate(-271.336 -158.28)"/><path class="a" d="M256,232h.926v.926H256Zm0,0" transform="translate(-241.188 -218.577)"/><path class="a" d="M288,232h5.555v.926H288Zm0,0" transform="translate(-271.336 -218.577)"/><path class="a" d="M256,264h.926v.926H256Zm0,0" transform="translate(-241.188 -248.725)"/><path class="a" d="M288,264h5.555v.926H288Zm0,0" transform="translate(-271.336 -248.725)"/><path class="a" d="M34.184,24H24v3.24H34.184Zm-.926,2.315H24.926V24.926h8.332Zm0,0" transform="translate(-22.612 -22.612)"/><path class="a" d="M33.852,88h-.926a.926.926,0,0,0-.926.926v.926a.926.926,0,0,0,.926.926h.926a.926.926,0,0,0,.926-.926v-.926A.926.926,0,0,0,33.852,88Zm-.926,1.852v-.926h.926v.926Zm0,0" transform="translate(-30.149 -82.909)"/><path class="a" d="M89.852,88h-.926a.926.926,0,0,0-.926.926v.926a.926.926,0,0,0,.926.926h.926a.926.926,0,0,0,.926-.926v-.926A.926.926,0,0,0,89.852,88Zm-.926,1.852v-.926h.926v.926Zm0,0" transform="translate(-82.909 -82.909)"/><path class="a" d="M145.852,88h-.926a.926.926,0,0,0-.926.926v.926a.926.926,0,0,0,.926.926h.926a.926.926,0,0,0,.926-.926v-.926A.926.926,0,0,0,145.852,88Zm-.926,1.852v-.926h.926v.926Zm0,0" transform="translate(-135.668 -82.909)"/><path class="a" d="M33.852,144h-.926a.926.926,0,0,0-.926.926v.926a.926.926,0,0,0,.926.926h.926a.926.926,0,0,0,.926-.926v-.926A.926.926,0,0,0,33.852,144Zm-.926,1.852v-.926h.926v.926Zm0,0" transform="translate(-30.149 -135.669)"/><path class="a" d="M89.852,144h-.926a.926.926,0,0,0-.926.926v.926a.926.926,0,0,0,.926.926h.926a.926.926,0,0,0,.926-.926v-.926A.926.926,0,0,0,89.852,144Zm-.926,1.852v-.926h.926v.926Zm0,0" transform="translate(-82.909 -135.669)"/><path class="a" d="M145.852,144h-.926a.926.926,0,0,0-.926.926v.926a.926.926,0,0,0,.926.926h.926a.926.926,0,0,0,.926-.926v-.926A.926.926,0,0,0,145.852,144Zm-.926,1.852v-.926h.926v.926Zm0,0" transform="translate(-135.668 -135.669)"/><path class="a" d="M33.852,200h-.926a.926.926,0,0,0-.926.926v.926a.926.926,0,0,0,.926.926h.926a.926.926,0,0,0,.926-.926v-.926A.926.926,0,0,0,33.852,200Zm-.926,1.852v-.926h.926v.926Zm0,0" transform="translate(-30.149 -188.428)"/><path class="a" d="M89.852,200h-.926a.926.926,0,0,0-.926.926v.926a.926.926,0,0,0,.926.926h.926a.926.926,0,0,0,.926-.926v-.926A.926.926,0,0,0,89.852,200Zm-.926,1.852v-.926h.926v.926Zm0,0" transform="translate(-82.909 -188.428)"/><path class="a" d="M145.852,200h-.926a.926.926,0,0,0-.926.926v.926a.926.926,0,0,0,.926.926h.926a.926.926,0,0,0,.926-.926v-.926A.926.926,0,0,0,145.852,200Zm-.926,1.852v-.926h.926v.926Zm0,0" transform="translate(-135.668 -188.428)"/><path class="a" d="M291.164,248.86a1.422,1.422,0,0,0-1.963,0l-7.936,7.935a.468.468,0,0,0-.093.134l-1.117,2.427a.463.463,0,0,0,.614.614l2.427-1.117a.464.464,0,0,0,.134-.093l7.935-7.936A1.388,1.388,0,0,0,291.164,248.86Zm-8.532,9.186-1.213.559.559-1.213,5.917-5.917.655.655Zm6.573-6.573-.655-.654.324-.324.655.655Zm1.306-1.305-.327.327-.655-.655.328-.327a.473.473,0,0,1,.654,0A.463.463,0,0,1,290.511,250.167Zm0,0" transform="translate(-263.811 -234.09)"/></g></svg>