<svg xmlns="http://www.w3.org/2000/svg" width="133.048" height="133.048" viewBox="0 0 133.048 133.048"><defs><style>.a{fill:#4c2e73;}.b{fill:#ebf4ff;}</style></defs><path class="a" d="M24.947,0H108.1a24.945,24.945,0,0,1,24.947,24.947V108.1A24.945,24.945,0,0,1,108.1,133.048H24.947A24.945,24.945,0,0,1,0,108.1V24.947A24.945,24.945,0,0,1,24.947,0Z"/><path class="b" d="M31.914,49.762a2.088,2.088,0,0,1-1.472-.607L17.274,35.987a2.081,2.081,0,0,1,1.472-3.551h6.237V19.963A3.466,3.466,0,0,1,28.446,16.5h6.931a3.466,3.466,0,0,1,3.463,3.463V32.437h6.237a2.081,2.081,0,0,1,1.472,3.551L33.382,49.155A2.071,2.071,0,0,1,31.914,49.762Z" transform="translate(52.626 52.103)"/><g transform="translate(33.262 43.656)"><path class="b" d="M66.209,10.5H16.316A8.34,8.34,0,0,0,8,18.816V52.078a8.34,8.34,0,0,0,8.316,8.315H42.289l-1.551-1.551a7.416,7.416,0,0,1-2.108-3.991H16.316a2.781,2.781,0,0,1-2.773-2.773V18.816a2.781,2.781,0,0,1,2.773-2.773H66.209a2.781,2.781,0,0,1,2.773,2.773V32.4a9.126,9.126,0,0,1,2.773,6.515v6.927h.69a7.5,7.5,0,0,1,2.079.3V18.816A8.34,8.34,0,0,0,66.209,10.5Z" transform="translate(-8 -10.5)"/><path class="b" d="M27.043,13.833H10.412a2.08,2.08,0,0,0-2.079,2.079V33.927a2.08,2.08,0,0,0,2.079,2.079H27.043a7.628,7.628,0,0,0,7.621-7.621V21.454A7.628,7.628,0,0,0,27.043,13.833ZM23.579,30.464a5.542,5.542,0,1,1,5.542-5.542A5.543,5.543,0,0,1,23.579,30.464Z" transform="translate(-6.948 0.025)"/></g></svg>