<svg xmlns="http://www.w3.org/2000/svg" width="54.024" height="53.998" viewBox="0 0 54.024 53.998"><defs><style>.a{fill:#370f70;}</style></defs><g transform="translate(0 0)"><g transform="translate(0 0)"><path class="a" d="M51.546,42.718H2.455a2.455,2.455,0,0,0,0,4.91h49.09a2.455,2.455,0,0,0,0-4.91Z" transform="translate(0 6.37)"/><path class="a" d="M5.124,40.356a2.456,2.456,0,0,0,0,4.911H48.078a2.456,2.456,0,0,0,0-4.911h-.613V18.264h.613a1.226,1.226,0,0,0,0-2.453H5.124a1.226,1.226,0,1,0,0,2.453h.614V40.355H5.124ZM42.555,18.264V40.355H35.192V18.264Zm-12.274,0V40.355H22.918V18.264Zm-19.636,0h7.363V40.355H10.646Z" transform="translate(0.399 2.349)"/><path class="a" d="M2.455,15.965H51.569a2.456,2.456,0,0,0,.8-4.778L28.009.227A2.46,2.46,0,0,0,26,.227L1.448,11.272a2.455,2.455,0,0,0,1.007,4.693Z" transform="translate(0 -0.012)"/></g></g></svg>