<svg xmlns="http://www.w3.org/2000/svg" width="32.779" height="32.763" viewBox="0 0 32.779 32.763"><defs><style>.a{fill:rgb(55, 15, 112);}</style></defs><g transform="translate(0 -0.012)"><g transform="translate(0 0.012)"><path class="a" d="M31.276,42.718H1.49a1.49,1.49,0,1,0,0,2.979H31.275a1.49,1.49,0,0,0,0-2.979Z" transform="translate(0 -12.934)"/><path class="a" d="M4.159,30.7a1.49,1.49,0,0,0,0,2.98H30.221a1.49,1.49,0,0,0,0-2.98h-.372V17.3h.372a.744.744,0,0,0,0-1.488H4.159a.744.744,0,1,0,0,1.488h.372V30.7H4.159ZM26.87,17.3V30.7H22.4V17.3Zm-7.447,0V30.7H14.955V17.3Zm-11.914,0h4.468V30.7H7.509Z" transform="translate(-0.808 -4.792)"/><path class="a" d="M1.49,9.691h29.8a1.49,1.49,0,0,0,.483-2.9L16.995.142a1.493,1.493,0,0,0-1.222,0L.879,6.844A1.489,1.489,0,0,0,1.49,9.691Z" transform="translate(0 -0.012)"/></g></g></svg>