<svg xmlns="http://www.w3.org/2000/svg" width="100.645" height="100.597" viewBox="0 0 100.645 100.597"><defs><style>.a{fill:#e5e3e0;}</style></defs><g transform="translate(0 0)"><g transform="translate(0 0)"><path class="a" d="M96.029,42.718H4.574a4.574,4.574,0,0,0,0,9.148H96.026a4.574,4.574,0,0,0,0-9.148Z" transform="translate(0 48.731)"/><path class="a" d="M7.243,61.537a4.575,4.575,0,0,0,0,9.15H87.265a4.575,4.575,0,0,0,0-9.15H86.124V20.381h1.141a2.285,2.285,0,0,0,0-4.57H7.243a2.285,2.285,0,1,0,0,4.57H8.386V61.535H7.243ZM76.976,20.381V61.535H63.258V20.381Zm-22.865,0V61.535H40.393V20.381Zm-36.581,0H31.247V61.535H17.53Z" transform="translate(3.046 18.021)"/><path class="a" d="M4.574,29.732h91.5a4.575,4.575,0,0,0,1.484-8.9L52.18.413a4.583,4.583,0,0,0-3.752,0L2.7,20.989a4.573,4.573,0,0,0,1.876,8.743Z" transform="translate(0 -0.012)"/></g></g></svg>