<svg xmlns="http://www.w3.org/2000/svg" width="95.131" height="95.477" viewBox="0 0 95.131 95.477"><defs><style>.a{fill:#4c2e73;}</style></defs><g transform="translate(-0.926)"><g transform="translate(0.926 0)"><path class="a" d="M90.461,35.6a5.6,5.6,0,0,0,5.6-5.6V22.759a5.569,5.569,0,0,0-3.507-5.191L50.59.41A5.57,5.57,0,0,0,46.413.4L4.433,17.568A5.569,5.569,0,0,0,.926,22.759V30a5.6,5.6,0,0,0,5.6,5.6H9.88V77.757H6.522a5.6,5.6,0,0,0-5.6,5.6v6.529a5.6,5.6,0,0,0,5.6,5.6H90.461a5.6,5.6,0,0,0,5.6-5.6V83.353a5.6,5.6,0,0,0-5.6-5.6H87.1V35.6h3.358Zm0,47.752c0,6.678.019,6.529,0,6.529H6.522V83.352Zm-74.986-5.6V35.6h6.342V77.756Zm11.938,0V35.6H39.725V77.756Zm17.907,0V35.6h6.342V77.756Zm11.938,0V35.6H69.57V77.756Zm17.907,0V35.6h6.342V77.756ZM6.522,30c0-7.805-.008-7.242.02-7.254L48.492,5.6l41.95,17.153c.029.012.02-.533.02,7.254H6.522Z" transform="translate(-0.926 0)"/></g><g transform="translate(45.694 12.097)"><path class="a" d="M243.725,64.854a2.8,2.8,0,0,0-2.8,2.8v5.969a2.8,2.8,0,1,0,5.6,0V67.652A2.8,2.8,0,0,0,243.725,64.854Z" transform="translate(-240.927 -64.854)"/></g></g></svg>