<svg xmlns="http://www.w3.org/2000/svg" width="27.21" height="31.19" viewBox="0 0 27.21 31.19"><defs><style>.a{fill:#370f70;}</style></defs><g transform="translate(0 0)"><g transform="translate(0 0)"><path class="a" d="M35.4,0a2.735,2.735,0,0,0-2.735,2.735V31.19l2.817-3.036,2.792,2.187,2.808-2.187,2.8,2.187.058-.045,2.752-2.142,2.8,2.187,2.81-2.187,2.8,3.036V2.248A4.942,4.942,0,0,1,55.476,0Zm9.987,23.1H36.015V21.268h9.372Zm.2-5.8H36.215V15.473h9.372Zm0-5.8H36.215V9.677h9.372Zm-6.7-5.8V3.882H48.9V5.71ZM51.57,23.1H47.684V21.268H51.57Zm.2-5.8H47.884V15.473h3.885Zm0-5.8H47.884V9.677h3.885Z" transform="translate(-32.665)"/></g><path class="a" d="M429.169,1.47V8.638h-3.254V1.47c0-1.96,3.254-1.96,3.254,0Z" transform="translate(-401.959 0)"/></g></svg>