<svg xmlns="http://www.w3.org/2000/svg" width="25.608" height="21.34" viewBox="0 0 25.608 21.34"><defs><style>.a{fill:#fff;}</style></defs><g transform="translate(0 -42.666)"><g transform="translate(0 42.666)"><g transform="translate(0 0)"><path class="a" d="M23.474,45.867H18.139V44.8a2.136,2.136,0,0,0-2.134-2.134H9.6A2.136,2.136,0,0,0,7.469,44.8v1.067H2.134A2.136,2.136,0,0,0,0,48v3.2a2.136,2.136,0,0,0,2.134,2.134H10.67V52.8a.533.533,0,0,1,.534-.534h3.2a.533.533,0,0,1,.534.534v.534h8.536A2.136,2.136,0,0,0,25.608,51.2V48A2.136,2.136,0,0,0,23.474,45.867Zm-7.469,0H9.6V44.8h6.4Z" transform="translate(0 -42.666)"/><path class="a" d="M25.312,266.44a.534.534,0,0,0-.56.053,2.107,2.107,0,0,1-1.279.439H14.938v1.6a.533.533,0,0,1-.534.534H11.2a.533.533,0,0,1-.534-.534v-1.6H2.134a2.107,2.107,0,0,1-1.279-.439.533.533,0,0,0-.855.425V274.4a2.136,2.136,0,0,0,2.134,2.134h21.34a2.136,2.136,0,0,0,2.134-2.134v-7.483A.534.534,0,0,0,25.312,266.44Z" transform="translate(0 -255.194)"/></g></g></g></svg>