<svg xmlns="http://www.w3.org/2000/svg" width="45.222" height="45.222" viewBox="0 0 45.222 45.222"><defs><style>.a{fill:#fff;}</style></defs><path class="a" d="M43.469,39.7H41.208V-.246A.712.712,0,0,0,40.454-1H2.769a.712.712,0,0,0-.754.754V39.7H-.246A.712.712,0,0,0-1,40.454v3.015a.712.712,0,0,0,.754.754H43.469a.712.712,0,0,0,.754-.754V40.454A.712.712,0,0,0,43.469,39.7ZM3.522.507H39.7V39.7H28.395V31.409a.712.712,0,0,0-.754-.754H15.581a.712.712,0,0,0-.754.754V39.7H3.522ZM16.335,39.7V32.163h4.522V39.7Zm6.03-7.537h4.522V39.7H22.365Zm20.35,10.552H.507V41.208H42.715v1.507Z" transform="translate(1 1)"/><path class="a" d="M89.718,40.967h-6.03a.712.712,0,0,0-.754.754v4.522a.712.712,0,0,0,.754.754h6.03a.712.712,0,0,0,.754-.754V41.721A.712.712,0,0,0,89.718,40.967Zm-.754,4.522H84.442V42.474h4.522Z" transform="translate(-75.398 -37.198)"/><path class="a" d="M89.718,133.295h-6.03a.712.712,0,0,0-.754.754v4.522a.712.712,0,0,0,.754.754h6.03a.712.712,0,0,0,.754-.754v-4.522A.712.712,0,0,0,89.718,133.295Zm-.754,4.522H84.442V134.8h4.522Z" transform="translate(-75.398 -121.236)"/><path class="a" d="M209.59,139.326h6.03a.712.712,0,0,0,.754-.754V134.05a.712.712,0,0,0-.754-.754h-6.03a.712.712,0,0,0-.754.754v4.522A.712.712,0,0,0,209.59,139.326Zm.754-4.522h4.522v3.015h-4.522Z" transform="translate(-189.993 -121.237)"/><path class="a" d="M335.492,139.326h6.03a.712.712,0,0,0,.754-.754V134.05a.712.712,0,0,0-.754-.754h-6.03a.712.712,0,0,0-.754.754v4.522A.712.712,0,0,0,335.492,139.326Zm.754-4.522h4.522v3.015h-4.522Z" transform="translate(-304.59 -121.237)"/><path class="a" d="M209.59,231.654h6.03a.712.712,0,0,0,.754-.754v-4.522a.712.712,0,0,0-.754-.754h-6.03a.712.712,0,0,0-.754.754V230.9A.712.712,0,0,0,209.59,231.654Zm.754-4.522h4.522v3.015h-4.522Z" transform="translate(-189.993 -205.274)"/><path class="a" d="M335.492,231.654h6.03a.712.712,0,0,0,.754-.754v-4.522a.712.712,0,0,0-.754-.754h-6.03a.712.712,0,0,0-.754.754V230.9A.712.712,0,0,0,335.492,231.654Zm.754-4.522h4.522v3.015h-4.522Z" transform="translate(-304.59 -205.274)"/><path class="a" d="M89.718,225.623h-6.03a.712.712,0,0,0-.754.754V230.9a.712.712,0,0,0,.754.754h6.03a.712.712,0,0,0,.754-.754v-4.522A.712.712,0,0,0,89.718,225.623Zm-.754,4.522H84.442V227.13h4.522Z" transform="translate(-75.398 -205.273)"/><path class="a" d="M209.59,47h6.03a.712.712,0,0,0,.754-.754V41.722a.712.712,0,0,0-.754-.754h-6.03a.712.712,0,0,0-.754.754v4.522A.712.712,0,0,0,209.59,47Zm.754-4.522h4.522V45.49h-4.522Z" transform="translate(-189.993 -37.199)"/><path class="a" d="M335.492,47h6.03a.712.712,0,0,0,.754-.754V41.722a.712.712,0,0,0-.754-.754h-6.03a.712.712,0,0,0-.754.754v4.522A.712.712,0,0,0,335.492,47Zm.754-4.522h4.522V45.49h-4.522Z" transform="translate(-304.59 -37.199)"/><path class="a" d="M192.8,319.459h9.044a.754.754,0,0,0,0-1.507H192.8a.754.754,0,0,0,0,1.507Z" transform="translate(-174.715 -289.311)"/></svg>