<svg xmlns="http://www.w3.org/2000/svg" width="39" height="39" viewBox="0 0 39 39"><defs><style>.a{fill:#290c53;}</style></defs><g transform="translate(0 -0.001)"><g transform="translate(0 0.001)"><path class="a" d="M19.5,0A19.5,19.5,0,1,0,39,19.5,19.522,19.522,0,0,0,19.5,0Zm0,35.8A16.3,16.3,0,1,1,35.8,19.5,16.322,16.322,0,0,1,19.5,35.8Z" transform="translate(0 -0.001)"/><path class="a" d="M98.536,96.275l5.515-5.515a1.6,1.6,0,0,0-2.26-2.26l-5.515,5.515L90.76,88.5a1.6,1.6,0,0,0-2.26,2.26l5.515,5.515L88.5,101.79a1.6,1.6,0,0,0,2.26,2.261l5.515-5.515,5.515,5.515a1.6,1.6,0,1,0,2.26-2.261Z" transform="translate(-76.775 -76.775)"/></g></g></svg>