<svg xmlns="http://www.w3.org/2000/svg" width="101.046" height="40.422" viewBox="0 0 101.046 40.422">
  <g id="surface1" transform="translate(0 -0.492)">
    <path id="Path_60" data-name="Path 60" d="M240,86.891h6.736v3.369H240Zm0,0" transform="translate(-197.898 -71.242)" fill="#fff"/>
    <path id="Path_61" data-name="Path 61" d="M99.6,10.613,88.161,8.98a57.736,57.736,0,0,0-6.483-3.435A56.713,56.713,0,0,0,58.216.492H56.228a57.245,57.245,0,0,0-27.334,6.97l-5.773,3.149a39.793,39.793,0,0,0-19.257,5.22A7.688,7.688,0,0,0,0,22.49v10a1.684,1.684,0,0,0,1.684,1.684H7.339a10.067,10.067,0,0,0,19,0H71.335a10.067,10.067,0,0,0,19,0h.6a1.692,1.692,0,0,0,.626-.12l5.455-2.189a6.369,6.369,0,0,0,4.024-5.943V12.281A1.685,1.685,0,0,0,99.6,10.613Zm-76.16,21.54a6.737,6.737,0,1,1,.136-1.347A6.736,6.736,0,0,1,23.441,32.153Zm30.45-1.347H26.945a10.1,10.1,0,1,0-20.209,0H3.368V22.49a4.308,4.308,0,0,1,2.167-3.733,36.411,36.411,0,0,1,18.041-4.791H53.891Zm0-20.209H30.182l.325-.177A53.848,53.848,0,0,1,53.891,3.934ZM57.259,3.86h.953a53.3,53.3,0,0,1,19.816,3.8l-2.94,2.94H57.259ZM87.436,32.153a6.737,6.737,0,1,1,.136-1.347A6.736,6.736,0,0,1,87.436,32.153Zm10.241-16.5H92.625v3.369h5.052v6.9a3.014,3.014,0,0,1-1.906,2.814l-4.831,1.94c0-.155-.02-.308-.03-.463s-.014-.336-.03-.505-.051-.337-.078-.505-.047-.337-.081-.49-.083-.323-.127-.484-.078-.321-.128-.478-.111-.306-.168-.46-.11-.311-.169-.463-.138-.289-.209-.432-.14-.3-.219-.445-.169-.268-.245-.4-.168-.288-.264-.426-.186-.248-.278-.372-.2-.271-.3-.4-.208-.231-.313-.337-.221-.249-.336-.367-.231-.211-.347-.315-.241-.228-.369-.337-.258-.193-.385-.289-.256-.2-.391-.288-.286-.168-.431-.262-.263-.169-.4-.241-.306-.149-.461-.223-.276-.14-.419-.2-.337-.125-.505-.185-.278-.108-.421-.154c-.192-.059-.389-.1-.585-.15-.128-.03-.251-.071-.38-.1-.207-.042-.419-.066-.63-.1-.125-.016-.244-.044-.369-.055a10.236,10.236,0,0,0-1.027-.052,10.114,10.114,0,0,0-10.1,10.1H57.259V13.964H75.784a1.681,1.681,0,0,0,1.19-.493L81.342,9.1a54,54,0,0,1,5.339,2.921,1.69,1.69,0,0,0,.653.239L97.678,13.74Zm0,0" transform="translate(0 0)" fill="#fff"/>
  </g>
</svg>
