<svg xmlns="http://www.w3.org/2000/svg" width="49.34" height="49.34" viewBox="0 0 49.34 49.34"><defs><style>.a{fill:#e0edff;}.b{fill:#bdd1f2;}.c{fill:#548aff;}.d{fill:#7dafff;}.e{fill:#4976f2;}</style></defs><g transform="translate(-24 -24)"><path class="a" d="M73.34,88v40.833a1.7,1.7,0,0,1-1.7,1.7H25.7a1.7,1.7,0,0,1-1.7-1.7V88Z" transform="translate(0 -57.195)"/><path class="a" d="M24,30.805V25.7A1.7,1.7,0,0,1,25.7,24H71.638a1.7,1.7,0,0,1,1.7,1.7v5.1Z"/><g transform="translate(26.69 26.69)"><circle class="b" cx="1" cy="1" r="1" transform="translate(-0.02 -0.02)"/><circle class="b" cx="1" cy="1" r="1" transform="translate(1.98 -0.02)"/><circle class="b" cx="1" cy="1" r="1" transform="translate(4.98 -0.02)"/></g><path class="c" d="M216,224h3.4v3.4H216Z" transform="translate(-171.584 -178.733)"/><path class="d" d="M212.253,221.1h-3.4a.851.851,0,0,1-.851-.851v-3.4a.851.851,0,0,1,.851-.851h3.4a.851.851,0,0,1,.851.851v3.4a.851.851,0,0,1-.851.851Zm-2.552-1.7h1.7v-1.7h-1.7Z" transform="translate(-164.434 -171.583)"/><path class="c" d="M280,232h2.552v1.7H280Z" transform="translate(-228.778 -185.882)"/><path class="c" d="M320,232h11.91v1.7H320Z" transform="translate(-264.525 -185.882)"/><path class="c" d="M216,288h3.4v3.4H216Z" transform="translate(-171.584 -235.927)"/><path class="d" d="M212.253,285.1h-3.4a.851.851,0,0,1-.851-.851v-3.4a.851.851,0,0,1,.851-.851h3.4a.851.851,0,0,1,.851.851v3.4a.851.851,0,0,1-.851.851Zm-2.552-1.7h1.7v-1.7h-1.7Z" transform="translate(-164.434 -228.778)"/><path class="c" d="M280,296h2.552v1.7H280Z" transform="translate(-228.778 -243.077)"/><path class="c" d="M320,296h11.91v1.7H320Z" transform="translate(-264.525 -243.077)"/><path class="c" d="M216,352h3.4v3.4H216Z" transform="translate(-171.584 -293.122)"/><path class="d" d="M212.253,349.1h-3.4a.851.851,0,0,1-.851-.851v-3.4a.851.851,0,0,1,.851-.851h3.4a.851.851,0,0,1,.851.851v3.4a.851.851,0,0,1-.851.851Zm-2.552-1.7h1.7v-1.7h-1.7Z" transform="translate(-164.434 -285.973)"/><path class="c" d="M280,360h2.552v1.7H280Z" transform="translate(-228.778 -300.271)"/><path class="c" d="M320,360h11.91v1.7H320Z" transform="translate(-264.525 -300.271)"/><path class="c" d="M216,416h3.4v3.4H216Z" transform="translate(-171.584 -350.316)"/><path class="d" d="M212.253,413.1h-3.4a.851.851,0,0,1-.851-.851v-3.4a.851.851,0,0,1,.851-.851h3.4a.851.851,0,0,1,.851.851v3.4a.851.851,0,0,1-.851.851Zm-2.552-1.7h1.7v-1.7h-1.7Z" transform="translate(-164.434 -343.167)"/><path class="c" d="M280,424h2.552v1.7H280Z" transform="translate(-228.778 -357.466)"/><path class="c" d="M320,424h11.91v1.7H320Z" transform="translate(-264.525 -357.466)"/><path class="c" d="M64,104v36.58H75.91V112.507h28.923V104Z" transform="translate(-35.747 -71.493)"/><path class="e" d="M64,184H75.91v1.7H64Z" transform="translate(-35.747 -142.986)"/><path class="e" d="M432,104h1.7v8.507H432Z" transform="translate(-364.615 -71.493)"/></g></svg>