<svg xmlns="http://www.w3.org/2000/svg" width="34.467" height="34.437" viewBox="0 0 34.467 34.437"><defs><style>.a{fill:#B7B7B7;}</style></defs><g transform="translate(0 -0.219)"><g transform="translate(0 12.377)"><path class="a" d="M31.433,180.826H29.418l-6.065,6.066a1.012,1.012,0,0,1-.262.189l-6,3a3.029,3.029,0,0,1-4.064-4.063l2.6-5.194H3.029A3.032,3.032,0,0,0,0,183.855v16.221a3.032,3.032,0,0,0,3.029,3.029h28.4a3.032,3.032,0,0,0,3.029-3.029V183.855A3.032,3.032,0,0,0,31.433,180.826ZM5.048,188.9h6.125a1.01,1.01,0,1,1,0,2.019H5.048a1.01,1.01,0,1,1,0-2.019Zm24.366,10.163H5.048a1.01,1.01,0,1,1,0-2.019H29.414a1.01,1.01,0,1,1,0,2.019Zm0-4.038H5.048a1.01,1.01,0,1,1,0-2.019H29.414a1.01,1.01,0,1,1,0,2.019Z" transform="translate(0 -180.826)"/></g><g transform="translate(28.582 0.219)"><g transform="translate(0 0)"><path class="a" d="M429.582,1.077a3.1,3.1,0,0,0-4.283,0l-.714.714,4.284,4.283.713-.713a3.029,3.029,0,0,0,0-4.284Z" transform="translate(-424.585 -0.219)"/></g></g><g transform="translate(14.722 13.412)"><path class="a" d="M221.325,196.2l-2.53,5.061a1.01,1.01,0,0,0,1.355,1.355l5.061-2.53Z" transform="translate(-218.688 -196.204)"/></g><g transform="translate(18.587 3.219)"><path class="a" d="M284.673,44.778l-8.568,8.567,4.284,4.284,8.567-8.567Z" transform="translate(-276.105 -44.778)"/></g></g></svg>