<svg xmlns="http://www.w3.org/2000/svg" width="68.184" height="61.99" viewBox="0 0 68.184 61.99"><defs><style>.a{fill:#0d041d96;}</style></defs><g transform="translate(0 -23.256)"><g transform="translate(8.091 30.415)"><g transform="translate(0 0)"><path class="a" d="M86.758,77.017a26,26,0,1,0,26,26A26.031,26.031,0,0,0,86.758,77.017Zm0,47.29a21.288,21.288,0,1,1,21.288-21.289A21.313,21.313,0,0,1,86.758,124.307Z" transform="translate(-60.757 -77.017)"/></g></g><g transform="translate(30.321 44.162)"><path class="a" d="M238.685,191.712H232.4V182.6a2.357,2.357,0,0,0-4.713,0v11.469a2.356,2.356,0,0,0,2.357,2.357h8.641a2.357,2.357,0,1,0,0-4.713Z" transform="translate(-227.688 -180.243)"/></g><g transform="translate(9.74 72.677)"><path class="a" d="M84.146,394.973a2.357,2.357,0,0,0-3.328.175L73.748,403a2.356,2.356,0,1,0,3.5,3.152l7.07-7.855A2.356,2.356,0,0,0,84.146,394.973Z" transform="translate(-73.143 -394.368)"/></g><g transform="translate(46.662 72.678)"><path class="a" d="M361.566,403.007l-7.07-7.855a2.356,2.356,0,1,0-3.5,3.152l7.07,7.855a2.356,2.356,0,1,0,3.5-3.152Z" transform="translate(-350.389 -394.371)"/></g><g transform="translate(0 23.256)"><g transform="translate(0 0)"><path class="a" d="M20.344,26.694a12,12,0,0,0-16.825.017A11.874,11.874,0,0,0,0,35.224a11.693,11.693,0,0,0,3.536,8.348,2.358,2.358,0,0,0,3.315-.017L20.362,30.044a2.358,2.358,0,0,0-.018-3.35ZM5.443,38.3a7.024,7.024,0,0,1-.73-3.1,7.194,7.194,0,0,1,7.2-7.233,7.36,7.36,0,0,1,3.154.709Z" transform="translate(0 -23.26)"/></g></g><g transform="translate(47.132 23.256)"><path class="a" d="M371.452,26.707a12,12,0,0,0-16.826-.017,2.356,2.356,0,0,0-.017,3.35l13.511,13.511a2.355,2.355,0,0,0,3.315.017,11.683,11.683,0,0,0,3.536-8.347A11.88,11.88,0,0,0,371.452,26.707Zm-1.924,11.586-9.621-9.621A7.212,7.212,0,0,1,370.257,35.2,7.022,7.022,0,0,1,369.527,38.293Z" transform="translate(-353.918 -23.256)"/></g></g></svg>