<svg xmlns="http://www.w3.org/2000/svg" width="215.667" height="211.058" viewBox="0 0 215.667 211.058"><defs><style>.a{fill:#365e7d;}.b{fill:#2b4d66;}.c{fill:#f4fbff;}.d{fill:#daf1f4;}.e{fill:#eab14d;}.f{fill:#e49542;}</style></defs><g transform="translate(0 -5.471)"><circle class="a" cx="89.193" cy="89.193" r="89.193" transform="translate(0 5.471)"/><path class="b" d="M292.743,94.664A89.194,89.194,0,0,0,203.55,5.471c-2.005,0-3.994.073-5.967.2a89.2,89.2,0,0,1,83,82.71,5.133,5.133,0,0,1-5.281,5.442q-.694-.015-1.393-.015a66.651,66.651,0,0,0-65.836,76.767,11.331,11.331,0,0,1-10.36,13.067l-.135.009c1.973.13,3.961.2,5.967.2A89.218,89.218,0,0,0,292.743,94.664Z" transform="translate(-114.356)"/><circle class="c" cx="68.468" cy="68.468" r="68.468" transform="translate(20.726 26.197)"/><path class="d" d="M272.645,123.142a68.468,68.468,0,0,0-68.468-68.468q-2.783,0-5.51.221a68.471,68.471,0,0,1,62.957,68.648l0,0a66.677,66.677,0,0,0-53.35,58.509,10.3,10.3,0,0,1-9.319,9.308l-.283.023a68.47,68.47,0,0,0,73.977-68.246Z" transform="translate(-114.984 -28.478)"/><g transform="translate(30.799 36.27)"><g transform="translate(55.14 0)"><path class="a" d="M207.276,89.7a3.254,3.254,0,0,1-3.254-3.254v-4.6a3.254,3.254,0,1,1,6.509,0v4.6A3.254,3.254,0,0,1,207.276,89.7Z" transform="translate(-204.022 -78.589)"/></g><g transform="translate(90.876 16.15)"><path class="a" d="M292.116,126.692a3.255,3.255,0,0,1-2.3-5.556l3.253-3.253a3.255,3.255,0,1,1,4.6,4.6l-3.253,3.253A3.245,3.245,0,0,1,292.116,126.692Z" transform="translate(-288.861 -116.93)"/></g><g transform="translate(105.679 55.14)"><path class="a" d="M331.859,216h-4.6a3.254,3.254,0,0,1,0-6.509h4.6a3.254,3.254,0,1,1,0,6.509Z" transform="translate(-324.004 -209.493)"/></g><g transform="translate(56.479 107.018)"><path class="a" d="M210.454,343.762a3.254,3.254,0,0,1-3.254-3.254v-4.6a3.254,3.254,0,1,1,6.509,0v4.6A3.254,3.254,0,0,1,210.454,343.762Z" transform="translate(-207.2 -332.652)"/></g><g transform="translate(16.15 90.876)"><path class="a" d="M114.713,304.094a3.255,3.255,0,0,1-2.3-5.556l3.253-3.253a3.255,3.255,0,0,1,4.6,4.6l-3.253,3.253A3.246,3.246,0,0,1,114.713,304.094Z" transform="translate(-111.458 -294.332)"/></g><g transform="translate(0 55.14)"><path class="a" d="M80.973,216h-4.6a3.254,3.254,0,1,1,0-6.509h4.6a3.254,3.254,0,1,1,0,6.509Z" transform="translate(-73.118 -209.493)"/></g><g transform="translate(16.15 16.15)"><path class="a" d="M117.966,126.692a3.245,3.245,0,0,1-2.3-.953l-3.253-3.253a3.255,3.255,0,0,1,4.6-4.6l3.253,3.253a3.255,3.255,0,0,1-2.3,5.556Z" transform="translate(-111.458 -116.93)"/></g></g><g transform="translate(74.493 61.949)"><path class="b" d="M191.55,176.86a3.253,3.253,0,0,1-2.271-.923l-11.446-11.146a3.255,3.255,0,1,1,4.541-4.663l5.921,5.766V142.805a3.254,3.254,0,1,1,6.509,0v30.8a3.254,3.254,0,0,1-3.254,3.255Z" transform="translate(-176.848 -139.551)"/></g><circle class="e" cx="56.11" cy="56.11" r="56.11" transform="translate(103.448 104.31)"/><path class="f" d="M369.921,240.117a56.649,56.649,0,0,0-6.458.372,56.11,56.11,0,0,1,0,111.475,56.11,56.11,0,1,0,6.458-111.847Z" transform="translate(-210.364 -135.807)"/><g transform="translate(152.02 120.619)"><path class="c" d="M367.409,330.716a6.509,6.509,0,0,1-6.509-6.509V285.346a6.509,6.509,0,0,1,13.018,0v38.861A6.509,6.509,0,0,1,367.409,330.716Z" transform="translate(-360.9 -278.837)"/><g transform="translate(0 59.883)"><path class="c" d="M367.409,438.164a6.509,6.509,0,0,1-6.509-6.509v-4.146a6.509,6.509,0,1,1,13.018,0v4.146A6.51,6.51,0,0,1,367.409,438.164Z" transform="translate(-360.9 -421)"/></g></g><g transform="translate(155.275 120.619)"><path class="d" d="M371.881,278.837a6.472,6.472,0,0,0-3.254.878,6.5,6.5,0,0,1,3.254,5.631v38.861a6.5,6.5,0,0,1-3.254,5.631,6.5,6.5,0,0,0,9.764-5.631V285.346A6.51,6.51,0,0,0,371.881,278.837Z" transform="translate(-368.627 -278.837)"/><path class="d" d="M371.881,421a6.471,6.471,0,0,0-3.254.878,6.5,6.5,0,0,1,3.254,5.631v4.146a6.5,6.5,0,0,1-3.254,5.631,6.5,6.5,0,0,0,9.764-5.631v-4.146A6.51,6.51,0,0,0,371.881,421Z" transform="translate(-368.627 -361.117)"/></g></g></svg>