<svg xmlns="http://www.w3.org/2000/svg" width="126" height="126" viewBox="0 0 126 126"><defs><style>.a{fill:#FFFFFF;}</style></defs><g transform="translate(50.4)"><path class="a" d="M204.6,0a12.6,12.6,0,1,0,12.6,12.6A12.6,12.6,0,0,0,204.6,0Zm0,21a8.4,8.4,0,1,1,8.4-8.4A8.4,8.4,0,0,1,204.6,21Z" transform="translate(-192)"/></g><g transform="translate(44.1 27.3)"><path class="a" d="M195.3,104h-.5l-.443.22a16.74,16.74,0,0,1-14.923,0L179,104h-.5A10.513,10.513,0,0,0,168,114.5v12.6a6.3,6.3,0,0,0,6.3,6.3h25.2a6.3,6.3,0,0,0,6.3-6.3V114.5A10.513,10.513,0,0,0,195.3,104Zm6.3,23.1a2.1,2.1,0,0,1-2.1,2.1H174.3a2.1,2.1,0,0,1-2.1-2.1V114.5a6.3,6.3,0,0,1,5.853-6.283,21.016,21.016,0,0,0,17.695,0A6.3,6.3,0,0,1,201.6,114.5Z" transform="translate(-168 -104)"/></g><g transform="translate(94.5 69.3)"><path class="a" d="M372.6,264a12.6,12.6,0,1,0,12.6,12.6A12.6,12.6,0,0,0,372.6,264Zm0,21a8.4,8.4,0,1,1,8.4-8.4A8.4,8.4,0,0,1,372.6,285Z" transform="translate(-360 -264)"/></g><g transform="translate(88.2 96.6)"><path class="a" d="M363.3,368h-.5l-.443.21a16.742,16.742,0,0,1-14.923,0L347,368h-.5A10.513,10.513,0,0,0,336,378.5v12.6a6.3,6.3,0,0,0,6.3,6.3h25.2a6.3,6.3,0,0,0,6.3-6.3V378.5A10.513,10.513,0,0,0,363.3,368Zm6.3,23.1a2.1,2.1,0,0,1-2.1,2.1H342.3a2.1,2.1,0,0,1-2.1-2.1V378.5a6.3,6.3,0,0,1,5.853-6.283,21.016,21.016,0,0,0,17.695,0A6.3,6.3,0,0,1,369.6,378.5Z" transform="translate(-336 -368)"/></g><g transform="translate(6.3 69.3)"><path class="a" d="M36.6,264a12.6,12.6,0,1,0,12.6,12.6A12.6,12.6,0,0,0,36.6,264Zm0,21a8.4,8.4,0,1,1,8.4-8.4A8.4,8.4,0,0,1,36.6,285Z" transform="translate(-24 -264)"/></g><g transform="translate(0 96.6)"><path class="a" d="M27.3,368h-.5l-.443.21a16.742,16.742,0,0,1-14.923,0L11,368h-.5A10.513,10.513,0,0,0,0,378.5v12.6a6.3,6.3,0,0,0,6.3,6.3H31.5a6.3,6.3,0,0,0,6.3-6.3V378.5A10.513,10.513,0,0,0,27.3,368Zm6.3,23.1a2.1,2.1,0,0,1-2.1,2.1H6.3a2.1,2.1,0,0,1-2.1-2.1V378.5a6.3,6.3,0,0,1,5.853-6.283,21.016,21.016,0,0,0,17.695,0A6.3,6.3,0,0,1,33.6,378.5Z" transform="translate(0 -368)"/></g><g transform="translate(41.999 102.899)"><path class="a" d="M201.833,395.744l0-.007a2.1,2.1,0,0,0-2.755-1.109h0a46.582,46.582,0,0,1-29.952,2.062l1.966-.578a2.1,2.1,0,0,0-1.18-4.032l-8.4,2.463c-.032,0-.055.036-.084.046a2.081,2.081,0,0,0-.542.3,1.831,1.831,0,0,0-.21.132,2.034,2.034,0,0,0-.514.714,2.1,2.1,0,0,0-.16.867,6.474,6.474,0,0,0,.21.84c.013.029,0,.063.023.092l4.2,8.037a2.1,2.1,0,1,0,3.725-1.945l-1.709-3.268a50.548,50.548,0,0,0,34.27-1.865A2.1,2.1,0,0,0,201.833,395.744Z" transform="translate(-159.998 -391.995)"/></g><g transform="translate(79.799 16.438)"><path class="a" d="M343.283,101.4a2.1,2.1,0,0,0-2.969,0l-2.971,2.972a50.324,50.324,0,0,0-30.421-41.58,2.1,2.1,0,1,0-1.646,3.864,46.131,46.131,0,0,1,27.777,37.113l-2.369-2.369a2.1,2.1,0,0,0-2.969,2.969l6.3,6.3a2.1,2.1,0,0,0,2.97,0l0,0,6.3-6.3A2.1,2.1,0,0,0,343.283,101.4Z" transform="translate(-303.998 -62.622)"/></g><g transform="translate(12.6 12.635)"><path class="a" d="M81.539,53.683a1.954,1.954,0,0,0-.055-.363c0-.019-.023-.032-.032-.052s0-.036,0-.052a2.013,2.013,0,0,0-.2-.29,2.12,2.12,0,0,0-.239-.346,1.971,1.971,0,0,0-.41-.279,1.847,1.847,0,0,0-.235-.17l-8.4-3.837a2.1,2.1,0,0,0-1.743,3.818L74.578,54.1A50.323,50.323,0,0,0,48,98.5a2.1,2.1,0,1,0,4.2,0A46.128,46.128,0,0,1,74.928,58.717L73.41,61.89a2.1,2.1,0,0,0,.981,2.8,2.067,2.067,0,0,0,.909.21,2.1,2.1,0,0,0,1.89-1.191l4.2-8.763a.1.1,0,0,1,.017-.065,2.02,2.02,0,0,0,.113-.445,2.174,2.174,0,0,0,.08-.347A2.1,2.1,0,0,0,81.539,53.683Z" transform="translate(-48 -48.134)"/></g></svg>