<svg xmlns="http://www.w3.org/2000/svg" width="37.967" height="37.967" viewBox="0 0 37.967 37.967">
  <path id="cpu" d="M31.066,9.523v14.4a.624.624,0,1,1-1.249,0V9.523a1.875,1.875,0,0,0-1.873-1.873H9.523A1.875,1.875,0,0,0,7.649,9.523V27.944a1.875,1.875,0,0,0,1.873,1.873H27.944a1.875,1.875,0,0,0,1.873-1.873.624.624,0,1,1,1.249,0,3.126,3.126,0,0,1-3.122,3.122H9.523A3.126,3.126,0,0,1,6.4,27.944V9.523A3.126,3.126,0,0,1,9.523,6.4H27.944A3.126,3.126,0,0,1,31.066,9.523Zm-12.333-5a.624.624,0,0,0,.624-.624V.624a.624.624,0,0,0-1.249,0V3.9A.624.624,0,0,0,18.733,4.527Zm-6.244,0a.624.624,0,0,0,.624-.624V.624a.624.624,0,1,0-1.249,0V3.9A.624.624,0,0,0,12.489,4.527Zm12.489,0A.624.624,0,0,0,25.6,3.9V.624a.624.624,0,1,0-1.249,0V3.9A.624.624,0,0,0,24.978,4.527ZM18.733,32.939a.624.624,0,0,0-.624.624v3.278a.624.624,0,0,0,1.249,0V33.564A.624.624,0,0,0,18.733,32.939Zm6.244,0a.624.624,0,0,0-.624.624v3.278a.624.624,0,1,0,1.249,0V33.564A.624.624,0,0,0,24.978,32.939Zm-12.489,0a.624.624,0,0,0-.624.624v3.278a.624.624,0,1,0,1.249,0V33.564A.624.624,0,0,0,12.489,32.939ZM36.842,18.109H33.564a.624.624,0,1,0,0,1.249h3.278a.624.624,0,0,0,0-1.249Zm-3.278-5h3.278a.624.624,0,1,0,0-1.249H33.564a.624.624,0,1,0,0,1.249Zm3.278,11.24H33.564a.624.624,0,1,0,0,1.249h3.278a.624.624,0,1,0,0-1.249ZM3.9,18.109H.624a.624.624,0,0,0,0,1.249H3.9a.624.624,0,0,0,0-1.249Zm0,6.244H.624a.624.624,0,1,0,0,1.249H3.9a.624.624,0,1,0,0-1.249Zm0-12.489H.624a.624.624,0,1,0,0,1.249H3.9a.624.624,0,1,0,0-1.249Zm15.658,9.124a1.171,1.171,0,1,1-1.656,0A1.17,1.17,0,0,1,19.561,20.989ZM21.6,19.829a.624.624,0,0,0,0-.883,4.057,4.057,0,0,0-5.74,0,.624.624,0,1,0,.883.883,2.808,2.808,0,0,1,3.974,0A.625.625,0,0,0,21.6,19.829Zm2.318-2.318a.624.624,0,0,0,0-.883,7.333,7.333,0,0,0-10.377,0,.624.624,0,1,0,.883.883,6.085,6.085,0,0,1,8.61,0A.625.625,0,0,0,23.922,17.511Z" transform="translate(0.25 0.25)" fill="#fff" stroke="#fff" stroke-width="0.5"/>
</svg>
