<svg xmlns="http://www.w3.org/2000/svg" width="37.021" height="33" viewBox="0 0 37.021 33"><defs><style>.a{fill:#b7b7b7;}</style></defs><g transform="translate(0 -33.234)"><g transform="translate(0 33.234)"><path class="a" d="M196.977,38.071l-22.673-4.8a1.788,1.788,0,0,0-2.113,1.375l-.431,2.768,26.161,5.536.431-2.768A1.788,1.788,0,0,0,196.977,38.071Z" transform="translate(-161.37 -33.234)"/><path class="a" d="M26.072,169.336a1.805,1.805,0,0,0-2.215-1.253l-4.3,1.195L9.406,167.13,8.29,172.4l-6.973,1.935a1.8,1.8,0,0,0-1.253,2.215l3.929,14.16a1.8,1.8,0,0,0,2.215,1.253l22.54-6.255A1.8,1.8,0,0,0,30,183.5l-.674-2.431,2.528.534a1.787,1.787,0,0,0,2.113-1.375l1.6-7.558-9.106-1.927Zm2.6,7.2.557-2.635a.736.736,0,0,1,.869-.566l2.635.558a.736.736,0,0,1,.566.869l-.557,2.635a.736.736,0,0,1-.869.566l-2.635-.557A.736.736,0,0,1,28.675,176.532ZM1.71,175.751l6.238-1.73,14.718-4.084,1.584-.44a.33.33,0,0,1,.086-.012.34.34,0,0,1,.323.243l.186.67.583,2.1-23.18,6.432-.769-2.769A.337.337,0,0,1,1.71,175.751Zm26.878,8.136a.338.338,0,0,1-.232.41L5.817,190.552a.327.327,0,0,1-.086.012.34.34,0,0,1-.323-.243l-2.292-8.259,23.18-6.433,1.414,5.094Z" transform="translate(0 -159.03)"/><path class="a" d="M93.13,445.139a.736.736,0,0,0-.9-.511l-2.632.731a.735.735,0,0,0-.51.9l.73,2.632a.735.735,0,0,0,.9.51l2.632-.73a.736.736,0,0,0,.511-.9Z" transform="translate(-83.67 -419.717)"/></g></g></svg>