<svg xmlns="http://www.w3.org/2000/svg" width="48.814" height="36" viewBox="0 0 48.814 36"><defs><style>.a{fill:#86dc76;}</style></defs><path class="a" d="M48.814,72.763v3.661a.814.814,0,0,1-.814.814H.814A.814.814,0,0,1,0,76.424V72.763a.814.814,0,0,1,.814-.814H48A.814.814,0,0,1,48.814,72.763Zm0-3.254V67.068A4.068,4.068,0,0,0,44.746,63H4.068A4.068,4.068,0,0,0,0,67.068v2.441a.814.814,0,0,0,.814.814H48A.814.814,0,0,0,48.814,69.508Zm-9.62,16.11a.819.819,0,0,0-.619,1.1,4.271,4.271,0,0,1,0,3,.814.814,0,0,0,.594,1.1,2.644,2.644,0,1,0,.025-5.2ZM.814,78.864H48a.814.814,0,0,1,.814.814V94.932A4.068,4.068,0,0,1,44.746,99H4.068A4.068,4.068,0,0,1,0,94.932V79.678A.814.814,0,0,1,.814,78.864Zm14.237,11.9a.814.814,0,0,0-.814-.814H7.424a.814.814,0,0,0,0,1.627h6.814A.814.814,0,0,0,15.051,90.763Zm0-5.085a.814.814,0,0,0-.814-.814H7.424a.814.814,0,0,0,0,1.627h6.814A.814.814,0,0,0,15.051,85.678ZM43.932,88.22a4.275,4.275,0,0,0-6.814-3.43,4.27,4.27,0,1,0,0,6.86A4.275,4.275,0,0,0,43.932,88.22Z" transform="translate(0 -63)"/></svg>