<svg xmlns="http://www.w3.org/2000/svg" width="73.943" height="54.533" viewBox="0 0 73.943 54.533"><defs><style>.a{fill:#0d041d96;}</style></defs><path class="a" d="M73.943,69.162v42.209a6.169,6.169,0,0,1-6.162,6.162H6.162A6.169,6.169,0,0,1,0,111.371V92.885a1.232,1.232,0,1,1,2.465,0v18.486a3.7,3.7,0,0,0,3.7,3.7H67.781a3.7,3.7,0,0,0,3.7-3.7V69.162a3.7,3.7,0,0,0-3.7-3.7H6.162a3.7,3.7,0,0,0-3.7,3.7v4.93h63.16a1.232,1.232,0,1,1,0,2.465H2.465v8.011h63.16a1.232,1.232,0,0,1,0,2.465H1.232A1.232,1.232,0,0,1,0,85.8V69.162A6.169,6.169,0,0,1,6.162,63H67.781A6.169,6.169,0,0,1,73.943,69.162ZM64.084,101.2A4.009,4.009,0,0,0,57.9,97.843a6.47,6.47,0,1,1-1.675-1.835,6.469,6.469,0,1,1,3.851,11.665,1.232,1.232,0,1,1,0-2.465A4.01,4.01,0,0,0,64.084,101.2Zm-7.7,0a4.005,4.005,0,1,0-4.005,4.005A4.01,4.01,0,0,0,56.382,101.2ZM11.246,98.585H21.567a1.232,1.232,0,0,0,0-2.465H11.246a1.232,1.232,0,0,0,0,2.465Zm0,7.7H21.567a1.232,1.232,0,0,0,0-2.465H11.246a1.232,1.232,0,0,0,0,2.465Z" transform="translate(0 -63)"/></svg>