<svg xmlns="http://www.w3.org/2000/svg" width="33.717" height="28.457" viewBox="0 0 33.717 28.457"><defs><style>.a{fill:#fff;}</style></defs><g transform="translate(0 -39.939)"><path class="a" d="M172.2,50.638l-5.993-10.211a.988.988,0,0,0-1.346-.355l-3.591,2.074-3.235-1.19a3.651,3.651,0,0,0-.361-.111,3.61,3.61,0,0,0-2.7.374L149.627,44.3a2.47,2.47,0,1,0,2.47,4.277l5.868-3.388a1.976,1.976,0,0,1,1.976,0s11.823,6.828,11.861,6.852l.176-.145A.988.988,0,0,0,172.2,50.638Z" transform="translate(-138.619 0)"/><path class="a" d="M32.079,74.511,20.333,67.729l-5.868,3.388a4.419,4.419,0,0,1-2.215.6,4.473,4.473,0,0,1-1.158-.153,4.445,4.445,0,0,1-1.582-7.8l-2.422-1.4a.988.988,0,0,0-1.364.389L.118,73.2a.988.988,0,0,0,.377,1.322l.513.3.9-1.561a4.2,4.2,0,0,1,6.71-.763,4.2,4.2,0,0,1,5.489,2.857c.032.119.058.239.079.359a4.2,4.2,0,0,1,3.112,3c.032.119.058.239.079.359a4.2,4.2,0,0,1,2.693,6.19L18.84,87.4l2.638,1.523a2.223,2.223,0,0,0,2.223-3.85l1.711.988a2.223,2.223,0,0,0,2.223-3.85l1.141.659A2.223,2.223,0,0,0,31,79.019l-1.141-.659a2.223,2.223,0,0,0,2.223-3.85Z" transform="translate(0 -20.824)"/><path class="a" d="M30.8,235.948a2.222,2.222,0,0,0-3.036.814l.659-1.141a2.223,2.223,0,1,0-3.85-2.223l.659-1.141a2.223,2.223,0,0,0-3.85-2.223l-.659,1.141a2.223,2.223,0,0,0-3.85-2.223l-2.387,4.135a2.223,2.223,0,1,0,3.85,2.222,2.223,2.223,0,1,0,3.85,2.223,2.223,2.223,0,1,0,3.85,2.223,2.223,2.223,0,1,0,3.85,2.223l1.729-2.994A2.222,2.222,0,0,0,30.8,235.948Z" transform="translate(-13.254 -175.529)"/></g></svg>