<svg xmlns="http://www.w3.org/2000/svg" width="32.133" height="32.133" viewBox="0 0 32.133 32.133"><defs><style>.a{fill:#fff;}</style></defs><g transform="translate(18.209 13.924)"><path class="a" d="M284.318,208H273.607A1.607,1.607,0,0,0,272,209.607v15a1.607,1.607,0,0,0,1.607,1.607h10.711a1.607,1.607,0,0,0,1.607-1.607v-15A1.607,1.607,0,0,0,284.318,208Zm-5.891,17.138h-4.82a.536.536,0,0,1-.536-.536v-3.749h5.356Zm0-5.356h-5.356V215.5h5.356Zm6.427,4.82a.536.536,0,0,1-.536.536H279.5v-4.284h5.356Zm0-4.82H279.5V215.5h5.356Zm0-5.356H273.071v-4.82a.536.536,0,0,1,.536-.536h10.711a.536.536,0,0,1,.536.536Z" transform="translate(-272 -208)"/></g><g transform="translate(20.351 16.067)"><path class="a" d="M313.1,240h-8.569a.536.536,0,0,0-.536.536v2.142a.536.536,0,0,0,.536.536H313.1a.536.536,0,0,0,.536-.536v-2.142A.536.536,0,0,0,313.1,240Zm-.536,2.142h-7.5v-1.071h7.5Z" transform="translate(-304 -240)"/></g><g transform="translate(20.351 21.958)"><path class="a" d="M306.142,329.071V328h-1.071v1.071H304v1.071h1.071v1.071h1.071v-1.071h1.071v-1.071Z" transform="translate(-304 -328)"/></g><g transform="translate(27.276 23.54)"><g transform="translate(0 0)"><rect class="a" width="3" transform="translate(-0.209 -0.473)"/></g></g><g transform="translate(20.443 27.47)"><path class="a" d="M308.405,411.1l-.757-.757-.757.757-.757-.757-.757.757.757.757-.757.757.757.757.757-.757.757.757.757-.757-.757-.757Z" transform="translate(-305.376 -410.344)"/></g><g transform="translate(27.276 28.522)"><g transform="translate(0 0)"><rect class="a" width="3" height="2" transform="translate(-0.209 -0.455)"/></g></g><g transform="translate(27.276 29.767)"><g transform="translate(0 0)"><rect class="a" width="1" transform="translate(-0.209 0.3)"/></g></g><g transform="translate(27.276 27.276)"><g transform="translate(0 0)"><rect class="a" width="1" height="1" transform="translate(-0.209 -0.209)"/></g></g><g transform="translate(0 0)"><path class="a" d="M21.422,0H5.891V0a.532.532,0,0,0-.379.152L.157,5.512A.531.531,0,0,0,0,5.891H0V31.062a1.071,1.071,0,0,0,1.071,1.071H17.138V31.062H13.924V29.456H15a.536.536,0,0,0,.536-.536V26.242A.536.536,0,0,0,15,25.707H13.924V24.1H15a.536.536,0,0,0,.536-.536V20.887A.536.536,0,0,0,15,20.351h-.014a5.356,5.356,0,1,0-6.4,0h-4.3a.536.536,0,0,0-.536.536v2.142H2.678a.536.536,0,0,0-.536.536v2.678a.536.536,0,0,0,.536.536H3.749v1.607H2.678a.536.536,0,0,0-.536.536v2.142H1.071V6.427H5.356A1.071,1.071,0,0,0,6.427,5.356V1.071h15V12.853h1.071V1.071A1.071,1.071,0,0,0,21.422,0ZM14.46,26.778v1.607H4.82V26.778ZM7.5,16.067a4.284,4.284,0,1,1,4.284,4.284A4.284,4.284,0,0,1,7.5,16.067ZM4.82,21.422h9.64v1.607H4.82ZM3.213,25.707V24.1h9.64v1.607H3.213Zm0,3.749h9.64v1.607H3.213Zm2.142-24.1H1.828L5.356,1.828Z"/></g><g transform="translate(23.564 0)"><path class="a" d="M358.427,2.678h-1.071a.536.536,0,0,0-.536-.536h-.536V.536A.536.536,0,0,0,355.749,0h-2.142a.536.536,0,0,0-.536.536V2.142h-.536a.536.536,0,0,0-.536.536V12.853h1.071V3.213h3.213v9.64h1.071v-9.1h1.071v6.962H359.5V3.749A1.071,1.071,0,0,0,358.427,2.678Zm-3.213-.536h-1.071V1.071h1.071Z" transform="translate(-352)"/></g><g transform="translate(8.594 4.857)"><g transform="translate(0)"><rect class="a" width="8" transform="translate(0.473 0.209)"/></g></g><g transform="translate(2.366 7.348)"><g transform="translate(0 0)"><rect class="a" width="18" height="2" transform="translate(-0.299 -0.282)"/></g></g><g transform="translate(2.366 9.839)"><g transform="translate(0 0)"><rect class="a" width="7" height="1" transform="translate(-0.299 0.227)"/></g></g><g transform="translate(16.067 9.839)"><g transform="translate(0 0)"><rect class="a" width="4" height="1" transform="translate(0 0.227)"/></g></g></svg>