<svg xmlns="http://www.w3.org/2000/svg" width="55" height="55" viewBox="0 0 55 55"><defs><style>.a,.b{fill:#f24141;}.a{opacity:0.2;}</style></defs><g transform="translate(-21 -285)"><path class="a" d="M27.5,0A27.5,27.5,0,1,1,0,27.5,27.5,27.5,0,0,1,27.5,0Z" transform="translate(21 285)"/><g transform="translate(-19.433 296.667)"><path class="b" d="M79.512,9.251a.956.956,0,0,0,.89-1.309,6.071,6.071,0,0,0-5.622-3.8H73.606A5.081,5.081,0,0,0,68.656,0H66.614a5.082,5.082,0,0,0-4.95,4.147H60.489a6.071,6.071,0,0,0-5.622,3.8.956.956,0,0,0,.89,1.309Zm-12.9-7.337h2.042a3.14,3.14,0,0,1,2.983,2.233H63.632A3.14,3.14,0,0,1,66.614,1.914Z"/><path class="b" d="M91.372,193.834a2.881,2.881,0,0,0,2.864,2.667H107a2.881,2.881,0,0,0,2.864-2.667L111.209,175H90.031Zm11.865-13.714a.957.957,0,0,1,1.912.1l-.51,10.208a.957.957,0,0,1-1.912-.1ZM97,179.212a.957.957,0,0,1,1,.908l.51,10.208a.957.957,0,0,1-1.912.1l-.51-10.208A.957.957,0,0,1,97,179.212Z" transform="translate(-32.985 -163.835)"/></g></g></svg>