<svg xmlns="http://www.w3.org/2000/svg" width="303.352" height="303.397" viewBox="0 0 303.352 303.397"><defs><style>.a{fill:#f29c1f;}.b{fill:#f0c419;}.c{fill:#2c3e50;}.d{fill:#35495e;}.e{fill:#fff;}.f{fill:#e57e25;}.g{fill:#802d40;}</style></defs><g transform="translate(0 0.001)"><path class="a" d="M42.526,374.122c-1.935,2.458-3.977,4.866-6.069,7.22A20.93,20.93,0,0,1,5.282,353.407a123.544,123.544,0,0,0,12.5-16.634Zm0,0" transform="translate(0 -137.212)"/><path class="b" d="M149.965,0A141.215,141.215,0,0,0,70.924,258.252h.053l42.371,29.45v5.231a10.491,10.491,0,0,0,10.46,10.463h88.927A10.493,10.493,0,0,0,223.2,292.933V262.018c.47-.312.942-.574,1.412-.889,2.3-1.463,4.6-2.981,6.8-4.551a.419.419,0,0,0,.051.157,10.8,10.8,0,0,0,2.722,3.558c.366.366.785.785,1.2,1.15a20.34,20.34,0,0,0,2.458,1.831,7.644,7.644,0,0,0,1.361.889,13.425,13.425,0,0,0,1.516.731,9.633,9.633,0,0,0,1.308.523c.681.262,1.361.472,2.042.681a20.047,20.047,0,0,0,5.282.681,20.874,20.874,0,0,0,15.59-6.958A164.979,164.979,0,0,0,306.894,151.7C307.521,104.618,275.506,0,149.965,0Zm0,0" transform="translate(-3.551 0)"/><path class="b" d="M306.894,151.7a164.978,164.978,0,0,1-41.952,108.124,20.874,20.874,0,0,1-15.59,6.958,20.048,20.048,0,0,1-5.282-.681c-.681-.208-1.361-.419-2.042-.681a9.633,9.633,0,0,1-1.308-.523,13.427,13.427,0,0,1-1.516-.731,7.642,7.642,0,0,1-1.361-.889,20.342,20.342,0,0,1-2.458-1.831c-.417-.366-.836-.785-1.2-1.15a10.8,10.8,0,0,1-2.722-3.558.419.419,0,0,1-.051-.157c-2.2,1.569-4.5,3.088-6.8,4.551-.47.315-.942.576-1.412.889a140.066,140.066,0,0,1-41.482,16.844h-.157l-.208-1.62a34.154,34.154,0,0,0-31.385-21.029h-5.231a31.458,31.458,0,0,0-28.77,18.833,30,30,0,0,0-1.1,3.032,30.561,30.561,0,0,0-1.516,9.574v.051l-42.371-29.45h-.053A141.215,141.215,0,0,1,149.965,0C275.506,0,307.522,104.62,306.894,151.7Zm0,0" transform="translate(-3.551 -0.001)"/><path class="a" d="M375.3,364.872c-2.2,1.569-4.5,3.088-6.8,4.551a20.97,20.97,0,0,1-1.308-29.24,119.949,119.949,0,0,0,29.6-64.4A11.458,11.458,0,0,1,408.15,265.8a119.967,119.967,0,0,1-30.5,74.386,20.943,20.943,0,0,0-2.354,24.689Zm0,0" transform="translate(-147.44 -108.293)"/><path class="c" d="M144.744,451.219A31.385,31.385,0,0,0,115.972,432.4h-5.229a31.439,31.439,0,0,0-31.388,31.446v5.241a10.5,10.5,0,0,0,10.463,10.481h88.927Zm0,0" transform="translate(-32.332 -176.173)"/><path class="d" d="M295.139,438.18V469.1a10.493,10.493,0,0,1-10.463,10.463H195.75a10.491,10.491,0,0,1-10.46-10.463v-5.282a30.562,30.562,0,0,1,1.516-9.574,30,30,0,0,1,1.1-3.032,31.458,31.458,0,0,1,28.77-18.833h5.231A34.154,34.154,0,0,1,253.292,453.4l.366,1.62A140.064,140.064,0,0,0,295.14,438.18Zm0,0" transform="translate(-75.492 -176.162)"/><path class="c" d="M342.146,442.172v10.463a140.2,140.2,0,0,1-31.154,14.06,8.01,8.01,0,0,1-10.328-7.678,140.064,140.064,0,0,0,41.482-16.844Zm0,0" transform="translate(-122.499 -180.154)"/><path class="e" d="M144.352,150.051a25.817,25.817,0,0,1,4.97,15.328,26.155,26.155,0,0,1-52.311,0,25.818,25.818,0,0,1,4.97-15.328Zm0,0" transform="translate(-39.525 -61.135)"/><path class="d" d="M137.226,165.087a15.693,15.693,0,1,0-15.692,15.722A15.707,15.707,0,0,0,137.226,165.087Zm0,0" transform="translate(-43.122 -60.855)"/><path class="e" d="M285.6,150.051a25.833,25.833,0,0,1,4.97,15.328,26.155,26.155,0,0,1-52.311,0,25.818,25.818,0,0,1,4.97-15.328Zm0,0" transform="translate(-97.072 -61.135)"/><path class="d" d="M278.446,165.087a15.708,15.708,0,1,1-4.6-11.118,15.707,15.707,0,0,1,4.6,11.118Zm0,0" transform="translate(-100.647 -60.855)"/><path class="f" d="M86.388,101.321A29.422,29.422,0,0,1,98.052,88.948a36.088,36.088,0,0,1,16.659-5.111,42.057,42.057,0,0,1,17.018,2.711,51.653,51.653,0,0,1,7.576,3.66,64.75,64.75,0,0,1,6.6,5.011,1.968,1.968,0,0,1-1.687,3.414l-.234-.049c-2.616-.544-5.03-1.338-7.442-2.025-2.47-.468-4.822-1.231-7.21-1.595a62.633,62.633,0,0,0-14.011-1.039,54.23,54.23,0,0,0-13.541,2.766,72.943,72.943,0,0,0-13.363,6.252l-.16.093a1.326,1.326,0,0,1-1.866-1.713Zm0,0" transform="translate(-35.145 -34.138)"/><path class="f" d="M293.654,102.939a72.943,72.943,0,0,0-13.363-6.252,54.228,54.228,0,0,0-13.541-2.766,62.664,62.664,0,0,0-14.013,1.039c-2.386.363-4.738,1.127-7.21,1.595-2.41.687-4.824,1.481-7.44,2.025l-.231.049a1.968,1.968,0,0,1-1.69-3.414,64.141,64.141,0,0,1,6.6-5.009,51.429,51.429,0,0,1,7.576-3.662,42.079,42.079,0,0,1,17.016-2.711,36.116,36.116,0,0,1,16.661,5.111,29.422,29.422,0,0,1,11.664,12.372,1.325,1.325,0,0,1-1.856,1.718Zm0,0" transform="translate(-95.944 -34.136)"/><path class="g" d="M221.25,299.793a5.232,5.232,0,0,1-5.231-5.231V289.33a5.235,5.235,0,0,0-5.231-5.231H137.553a5.231,5.231,0,0,1,0-10.463h73.234a15.71,15.71,0,0,1,15.694,15.694v5.231a5.232,5.232,0,0,1-5.231,5.231Zm0,0" transform="translate(-53.913 -111.488)"/><g transform="translate(52.255 83.684)"><path class="a" d="M183.326,319.41H172.864a5.23,5.23,0,1,1,0-10.46h10.463a5.23,5.23,0,0,1,0,10.46Zm0,0" transform="translate(-120.553 -209.559)"/><path class="a" d="M145.725,151.685H93.415a5.231,5.231,0,1,1,0-10.463h52.311a5.231,5.231,0,1,1,0,10.463Zm0,0" transform="translate(-88.184 -141.223)"/><path class="a" d="M286.967,151.685H234.657a5.231,5.231,0,1,1,0-10.463h52.311a5.231,5.231,0,0,1,0,10.463Zm0,0" transform="translate(-145.73 -141.223)"/></g></g></svg>