<svg xmlns="http://www.w3.org/2000/svg" width="78" height="78" viewBox="0 0 78 78"><defs><style>.a{fill:#75b3fa;}.b{fill:#ebf4ff;}</style></defs><path class="a" d="M14.625,0h48.75A14.624,14.624,0,0,1,78,14.625v48.75A14.624,14.624,0,0,1,63.375,78H14.625A14.624,14.624,0,0,1,0,63.375V14.625A14.624,14.624,0,0,1,14.625,0Z"/><path class="b" d="M25.6,36a1.224,1.224,0,0,1-.863-.356l-7.72-7.72a1.22,1.22,0,0,1,.863-2.082h3.656V18.53a2.032,2.032,0,0,1,2.03-2.03h4.063a2.032,2.032,0,0,1,2.03,2.03v7.313h3.656a1.22,1.22,0,0,1,.863,2.082l-7.72,7.72A1.214,1.214,0,0,1,25.6,36Z" transform="translate(23.957 23.719)"/><g transform="translate(19.5 25.594)"><path class="b" d="M42.125,10.5H12.875A4.889,4.889,0,0,0,8,15.375v19.5a4.889,4.889,0,0,0,4.875,4.875H28.1l-.909-.909a4.348,4.348,0,0,1-1.236-2.34H12.875a1.63,1.63,0,0,1-1.626-1.626v-19.5a1.63,1.63,0,0,1,1.626-1.626h29.25a1.63,1.63,0,0,1,1.626,1.626v7.963a5.35,5.35,0,0,1,1.626,3.82v4.061h.4A4.4,4.4,0,0,1,47,31.4V15.375A4.889,4.889,0,0,0,42.125,10.5Z" transform="translate(-8 -10.5)"/><path class="b" d="M19.3,13.833H9.552a1.219,1.219,0,0,0-1.219,1.219V25.613a1.219,1.219,0,0,0,1.219,1.219H19.3a4.472,4.472,0,0,0,4.468-4.468V18.3A4.472,4.472,0,0,0,19.3,13.833Zm-2.03,9.75a3.249,3.249,0,1,1,3.249-3.249A3.25,3.25,0,0,1,17.271,23.583Z" transform="translate(-7.521 -5.709)"/></g></svg>