<svg xmlns="http://www.w3.org/2000/svg" width="66.917" height="59.797" viewBox="0 0 66.917 59.797"><defs><style>.a{fill:#0d041d96;}.b{fill:#0d041d96;}</style></defs><g transform="translate(0 -0.024)"><path class="a" d="M95.347,95.5a1.323,1.323,0,0,0,1.841,0l5.045-4.89a1.322,1.322,0,0,0-1.841-1.9l-2.8,2.715v-9.1a1.322,1.322,0,0,0-2.645,0v9.1l-2.8-2.716a1.322,1.322,0,0,0-1.84,1.9Zm0,0" transform="translate(-78.013 -70.272)"/><path class="b" d="M60.306,14.6H36.019A18.192,18.192,0,0,0,0,18.224,17.8,17.8,0,0,0,3.709,29.233V53.209a6.62,6.62,0,0,0,6.613,6.612H60.306a6.619,6.619,0,0,0,6.612-6.612V21.262A6.665,6.665,0,0,0,60.306,14.6ZM47.252,34.479l17.021-10.3V52.04ZM60.306,17.241a4,4,0,0,1,3.962,3.819L40.515,35.452a10.039,10.039,0,0,1-10.407.01l-2.635-1.594a18.239,18.239,0,0,0,8.9-15.658c0-.317-.008-.572-.024-.969ZM18.187,36.425a18.144,18.144,0,0,0,4.467-.555L6.354,52.1V32.038a18.091,18.091,0,0,0,11.833,4.387Zm0-33.73A15.543,15.543,0,1,1,2.646,18.238,15.543,15.543,0,0,1,18.188,2.7ZM60.306,57.176H10.323A3.97,3.97,0,0,1,6.93,55.264L26.125,36.146l2.613,1.582a12.7,12.7,0,0,0,13.147,0l3.046-1.844L63.7,55.253a3.97,3.97,0,0,1-3.4,1.923Zm0,0" transform="translate(0 0)"/><path class="a" d="M290.373,322.872h7.273a1.322,1.322,0,1,0,0-2.645h-7.273a1.322,1.322,0,0,0,0,2.645Zm0,0" transform="translate(-250.829 -277.861)"/><path class="a" d="M302.936,350.227H290.373a1.322,1.322,0,0,0,0,2.645h12.562a1.322,1.322,0,1,0,0-2.645Zm0,0" transform="translate(-250.829 -303.894)"/><path class="a" d="M302.936,380.227H290.373a1.322,1.322,0,0,0,0,2.645h12.562a1.322,1.322,0,1,0,0-2.645Zm0,0" transform="translate(-250.829 -329.927)"/></g></svg>