<svg xmlns="http://www.w3.org/2000/svg" width="32.382" height="48.042" viewBox="0 0 32.382 48.042"><defs><style>.a{fill:#FFFFFF;}</style></defs><g transform="translate(-83.447)"><g transform="translate(83.447)"><path class="a" d="M115.125,38.926a.7.7,0,0,0-.7.7v6.616a.389.389,0,0,1-.389.389H110.25V32.776a.7.7,0,0,0-1.407,0V46.635h-7.618l2.209-2.43a1.262,1.262,0,0,0,.3-1.012c0-.007,0-.014,0-.021l-2.1-12.43.567-.853a1.6,1.6,0,0,0,1.008.437,1.232,1.232,0,0,0,1.1-.682h0l2.219-4.448,5.055,1.958a4.876,4.876,0,0,1,2.839,4.432v4.76a.7.7,0,0,0,1.407,0v-4.76a6.281,6.281,0,0,0-3.714-5.736l-.013-.005-8.414-3.258V20.612a6.594,6.594,0,0,0,2.5-4.338,3.046,3.046,0,0,0,1.789-.73,2.988,2.988,0,0,0,.312-4.216V8.722a8.722,8.722,0,1,0-17.444,0V11.4a2.826,2.826,0,0,0-.726,1.884,2.982,2.982,0,0,0,1.038,2.264,3.045,3.045,0,0,0,1.789.73,6.524,6.524,0,0,0,2.638,4.442v1.869l-8.4,3.258-.013.005a6.281,6.281,0,0,0-3.714,5.736V46.246a1.8,1.8,0,0,0,1.8,1.8h6.7a.7.7,0,0,0,0-1.407H90.434V32.776a.7.7,0,1,0-1.407,0V46.635H85.243a.389.389,0,0,1-.389-.389V31.585a4.876,4.876,0,0,1,2.838-4.432l5.051-1.958,2.219,4.448a1.232,1.232,0,0,0,1.1.682,1.6,1.6,0,0,0,1.008-.437l.567.853-2.1,12.43,0,.021a1.262,1.262,0,0,0,.3,1.012l2.209,2.43H95.233a.7.7,0,0,0,0,1.407h18.8a1.8,1.8,0,0,0,1.8-1.8V39.63A.7.7,0,0,0,115.125,38.926Zm-9.916-14.241-2.069,4.146-2.488-1.767,2.556-3.154Zm-4.16,4.388-.537.808H98.758l-.537-.808,1.414-1Zm-4.063-6.26V21.5a7.14,7.14,0,0,0,2.661.5,6.607,6.607,0,0,0,2.632-.549v1.367l-2.644,3.264ZM107.6,13.281a1.577,1.577,0,0,1-.548,1.2,1.639,1.639,0,0,1-.813.374V11.71A1.592,1.592,0,0,1,107.6,13.281Zm-14.72,1.571a1.59,1.59,0,0,1-1.361-1.571,1.671,1.671,0,0,1,1.361-1.535Zm.038-4.54a3.479,3.479,0,0,0-.673.152V8.722a7.314,7.314,0,1,1,14.629,0v1.693a3.129,3.129,0,0,0-.634-.123c0-.679.006-.548-2.216-2.936a1.252,1.252,0,0,0-1.6-.195,13.568,13.568,0,0,1-8.2,2.208A1.251,1.251,0,0,0,92.921,10.312Zm1.37,5.094V10.784a15.039,15.039,0,0,0,8.8-2.372c1.019,1.094,1.571,1.668,1.748,1.886v5.108a5.273,5.273,0,0,1-10.544,0Zm1.841,13.425-2.069-4.146,2-.774,2.556,3.155Zm.807,14.492,2.037-12.035h1.32l2.037,12.035-2.7,2.967Z" transform="translate(-83.447)"/></g></g></svg>