<svg xmlns="http://www.w3.org/2000/svg" width="72.023" height="117.046" viewBox="0 0 72.023 117.046"><defs><style>.a{fill:#ffdf8e;}.b{fill:#ffb64c;}</style></defs><g transform="translate(-98.483)"><path class="a" d="M166.334,41.463l-24.827,5.429L153.646,4.38a3.431,3.431,0,0,0-6.1-2.914l-10.91,15.5L99.116,70.27a3.431,3.431,0,0,0,3.623,5.3l22.125-5.445-12.1,42.553a3.433,3.433,0,0,0,6.053,2.978l17.818-24.036,33.188-44.768a3.431,3.431,0,0,0-3.488-5.39Z" transform="translate(0 0)"/><path class="b" d="M298.574,46.853,265.386,91.622V16.966l10.91-15.5a3.431,3.431,0,0,1,6.1,2.914L270.259,46.892l24.827-5.429a3.431,3.431,0,0,1,3.488,5.39Z" transform="translate(-128.752 0)"/><path class="b" d="M327.219,375.754l-8.229-.137,4.371-8.6a3.429,3.429,0,0,0-6.113-3.108L310.391,377.4c-1.4,2.735.431,4.528,3.06,4.983l8.209.137-4.422,8.844a3.429,3.429,0,1,0,6.133,3.067l6.858-13.715A3.436,3.436,0,0,0,327.219,375.754Z" transform="translate(-163.098 -279.281)"/><path class="a" d="M112.208.4a3.429,3.429,0,0,0-4.6,1.533L100.75,15.649a3.435,3.435,0,0,0,3.087,4.962h8.147l-4.376,8.753a3.429,3.429,0,1,0,6.134,3.067L120.6,18.716a3.435,3.435,0,0,0-3.067-4.962h-8.167L113.741,5A3.429,3.429,0,0,0,112.208.4Z" transform="translate(-1.471 -0.029)"/></g></svg>