<svg id="fuel_10_" data-name="fuel (10)" xmlns="http://www.w3.org/2000/svg" width="150" height="150px" viewBox="0 0 75.853 75.853">
  <path id="Path_48" data-name="Path 48" d="M37.926,75.853A37.926,37.926,0,1,0,0,37.926,37.926,37.926,0,0,0,37.926,75.853Zm0-73.324a35.4,35.4,0,1,1-35.4,35.4,35.4,35.4,0,0,1,35.4-35.4Zm0,0" fill="none"/>
  <path id="Path_49" data-name="Path 49" d="M65.473,78.314a8.849,8.849,0,0,1,17.6,0,2.5,2.5,0,0,0,2.5,2.224h17.523a2.529,2.529,0,0,0,2.506-2.166,30.9,30.9,0,0,0,.275-4.156,31.605,31.605,0,1,0-63.21-.019,30.661,30.661,0,0,0,.273,4.172,2.529,2.529,0,0,0,2.508,2.168H62.97a2.5,2.5,0,0,0,2.5-2.224Zm15.59-8.177,6.305-4.311a.253.253,0,0,1,.341.362l-4.307,6.3a11.369,11.369,0,0,0-2.339-2.35ZM45.447,78.026a28.12,28.12,0,0,1-.253-3.827,29.077,29.077,0,0,1,58.154.018,29.685,29.685,0,0,1-.24,3.793h-.013l-17.514.032a11.375,11.375,0,0,0-.789-3.11l4.995-7.3a2.781,2.781,0,0,0-3.858-3.88L78.6,68.755A11.368,11.368,0,0,0,62.97,78.01Zm0,0" transform="translate(-36.345 -36.29)" fill="#220844"/>
  <path id="Path_50" data-name="Path 50" d="M221.122,259.92a6.3,6.3,0,0,0,.986-.307c.027-.011.048-.028.075-.039a6.311,6.311,0,0,0,1.939-1.315c.127-.127.209-.262.318-.389a6.219,6.219,0,0,0,.464-.568,5.918,5.918,0,0,0,.295-.542,6.218,6.218,0,0,0,.292-.556c.069-.17.108-.345.162-.519a6.2,6.2,0,0,0,.2-.674c.035-.18.035-.365.056-.546a3.386,3.386,0,0,0,0-1.353c-.02-.182-.02-.366-.056-.546a6.208,6.208,0,0,0-.2-.674c-.054-.173-.093-.349-.162-.518a6.146,6.146,0,0,0-.292-.557,5.983,5.983,0,0,0-.295-.542,6.211,6.211,0,0,0-.464-.568c-.109-.126-.2-.268-.318-.389a6.3,6.3,0,0,0-1.94-1.315c-.027-.012-.048-.028-.075-.039a6.3,6.3,0,0,0-.986-.307c-.069-.016-.134-.048-.2-.062a6.325,6.325,0,0,0-2.528,0c-.071.014-.135.046-.2.062a6.333,6.333,0,0,0-.986.307c-.026.012-.048.028-.074.039a6.3,6.3,0,0,0-1.94,1.315c-.126.126-.208.262-.317.389a6.318,6.318,0,0,0-.464.568q-.161.264-.295.542a6.133,6.133,0,0,0-.292.557c-.069.169-.108.345-.162.518a6.211,6.211,0,0,0-.2.674c-.035.179-.035.364-.056.546a6.333,6.333,0,0,0-.067.677,6.455,6.455,0,0,0,.068.677c.02.182.02.366.056.546a6.2,6.2,0,0,0,.2.674c.054.173.093.349.162.519a6.214,6.214,0,0,0,.292.556,5.925,5.925,0,0,0,.295.542,6.212,6.212,0,0,0,.464.568c.109.126.2.268.318.389a6.316,6.316,0,0,0,1.94,1.315c.027.011.048.028.075.039a6.3,6.3,0,0,0,.986.307c.069.017.134.048.2.062a6.325,6.325,0,0,0,2.528,0C220.988,259.968,221.052,259.936,221.122,259.92Zm-4.03-3.35a3.632,3.632,0,0,1-.316-.337,3.945,3.945,0,0,1-.273-.333,3.5,3.5,0,0,1-.182-.337,3.553,3.553,0,0,1-.17-.321c-.045-.106-.068-.221-.1-.331a3.909,3.909,0,0,1-.113-.38,3.66,3.66,0,0,1-.039-.391,3.618,3.618,0,0,1,0-.69,3.674,3.674,0,0,1,.039-.391,3.909,3.909,0,0,1,.113-.38c.035-.11.059-.225.1-.331s.112-.215.17-.322a3.552,3.552,0,0,1,.182-.336,3.954,3.954,0,0,1,.273-.333,3.8,3.8,0,0,1,1.363-1.031.358.358,0,0,1,.042-.021,3.771,3.771,0,0,1,.59-.185c.042-.01.081-.03.127-.037a3.783,3.783,0,0,1,1.517,0c.043.008.082.027.127.037a3.77,3.77,0,0,1,.59.185c.016,0,.03.017.047.024a3.8,3.8,0,0,1,1.361,1.032,4.21,4.21,0,0,1,.27.33q.1.163.182.336a3.172,3.172,0,0,1,.17.322c.043.111.068.221.1.331a3.758,3.758,0,0,1,.112.38,3.8,3.8,0,0,1,.04.4,3.747,3.747,0,0,1,0,.675,3.866,3.866,0,0,1-.04.4,3.758,3.758,0,0,1-.112.38c-.035.11-.06.225-.1.331s-.113.215-.17.322-.116.227-.182.336a4.091,4.091,0,0,1-.27.33,3.742,3.742,0,0,1-5.442.34Zm0,0" transform="translate(-181.727 -210.805)" fill="#220844"/>
  <path id="Path_51" data-name="Path 51" d="M95.457,93.7a22.386,22.386,0,0,1,4.334-3.061c.311-.174.624-.336.965-.5l.952,2.3a1.263,1.263,0,0,0,1.168.781,1.289,1.289,0,0,0,.484-.1,1.265,1.265,0,0,0,.684-1.653l-.951-2.3a20.762,20.762,0,0,1,2.961-.826c.364-.082.728-.141,1.1-.2a.325.325,0,0,0,.077-.016c.669-.093,1.349-.166,2.023-.212h.1V90.41a1.264,1.264,0,1,0,2.528,0v-2.5h.077c.69.048,1.372.127,2.038.214l.08.016c.379.058.74.116,1.138.2a21.079,21.079,0,0,1,2.932.821l-.955,2.3a1.264,1.264,0,0,0,.683,1.652,1.288,1.288,0,0,0,.484.1,1.265,1.265,0,0,0,1.168-.781l.95-2.3.013.006c.325.15.64.315.97.5a22.232,22.232,0,0,1,4.316,3.058l-1.751,1.75a1.265,1.265,0,0,0,1.789,1.789l1.744-1.758a22.281,22.281,0,0,1,3.061,4.331c.173.313.336.633.5.968l-2.3.952a1.265,1.265,0,0,0,.969,2.336l2.3-.952a21.125,21.125,0,0,1,.826,2.958c.08.366.14.731.2,1.108a.367.367,0,0,0,.013.069c.095.671.167,1.353.214,2.031v.094h-2.487a1.264,1.264,0,0,0,0,2.529h3.792a1.265,1.265,0,0,0,1.264-1.264q0-.759-.04-1.517-.08-1.147-.238-2.253a.472.472,0,0,0-.018-.108c-.065-.422-.134-.832-.22-1.218a22.87,22.87,0,0,0-.963-3.422,11.233,11.233,0,0,0-.416-1.068c-.006-.023-.015-.046-.023-.066a.209.209,0,0,1,0-.027c0-.01-.014-.016-.019-.028-.171-.428-.364-.844-.551-1.233s-.368-.748-.564-1.1a24.942,24.942,0,0,0-4.318-5.8c-.013-.013-.017-.032-.029-.045s-.032-.017-.046-.03a24.917,24.917,0,0,0-5.777-4.309c-.368-.2-.737-.4-1.1-.565-.4-.194-.823-.387-1.252-.558-.01,0-.016-.014-.028-.019s-.02,0-.029,0l-.066-.024a10.646,10.646,0,0,0-1.025-.4,23.392,23.392,0,0,0-3.434-.97c-.408-.092-.815-.159-1.236-.225a.978.978,0,0,0-.116-.02c-.737-.105-1.488-.185-2.275-.239a27.834,27.834,0,0,0-3.013,0q-1.147.08-2.253.237c-.039.005-.076.012-.113.019-.422.067-.829.127-1.21.22a23.284,23.284,0,0,0-3.422.962,11.121,11.121,0,0,0-1.066.414l-.066.024h-.029c-.009,0-.017.014-.028.019-.428.171-.847.364-1.235.551s-.75.368-1.1.564a24.958,24.958,0,0,0-5.794,4.318c-.014.012-.031.016-.045.03s-.017.032-.03.044A24.92,24.92,0,0,0,88.4,98.582c-.2.368-.4.736-.564,1.1-.2.42-.406.852-.541,1.21l-.014.036c0,.011-.017.019-.023.031s0,.027-.008.041a.493.493,0,0,0-.024.06,10.414,10.414,0,0,0-.4,1.021,22.624,22.624,0,0,0-.972,3.438c-.091.408-.16.818-.226,1.238-.008.036-.013.072-.018.111-.1.738-.184,1.488-.237,2.275-.031.484-.045.99-.045,1.5A1.265,1.265,0,0,0,86.6,111.9h3.792a1.264,1.264,0,0,0,0-2.529H87.895V109.3q.069-1.04.214-2.047a.545.545,0,0,1,.012-.071c.058-.379.118-.742.2-1.131a20.687,20.687,0,0,1,.822-2.933l2.295.951a1.265,1.265,0,0,0,.969-2.336l-2.3-.952v-.012c.152-.326.317-.641.5-.971a22.257,22.257,0,0,1,3.063-4.316l1.75,1.751a1.265,1.265,0,0,0,1.789-1.789Zm0,0" transform="translate(-72.69 -72.711)" fill="#220844"/>
</svg>
