<svg xmlns="http://www.w3.org/2000/svg" width="30.673" height="27.489" viewBox="0 0 30.673 27.489"><defs><style>.a{fill:#fff;}</style></defs><g transform="translate(-6 -3.565)"><path class="a" d="M14,150H24.677v1.359H14Z" transform="translate(-7.482 -140.689)"/><path class="a" d="M82,300h1.941v3.106H82Z" transform="translate(-71.082 -280.983)"/><path class="a" d="M14,219.443H24.677V201H14Zm2.459-13.978h5.824v6.989H16.459Z" transform="translate(-7.482 -188.389)"/><path class="a" d="M16.548,90.777A2.411,2.411,0,0,1,16.671,90H6v1.941H16.744A3.543,3.543,0,0,1,16.548,90.777Z" transform="translate(0 -84.572)"/><path class="a" d="M286.714,91.941V90h-10.67a2.422,2.422,0,0,1,.122.777,3.542,3.542,0,0,1-.2,1.165Z" transform="translate(-252.5 -84.572)"/><path class="a" d="M209.971,155.055a3.559,3.559,0,0,1-.971-.135v21.425h1.941V154.958l-.129,0A3.54,3.54,0,0,1,209.971,155.055Z" transform="translate(-189.864 -145.291)"/><path class="a" d="M279.677,321.318V312h-7.765v9.318H269v1.941h13.654v-1.941Zm-4.853-6.6h1.941v1.941h-1.941Z" transform="translate(-245.981 -292.206)"/><path class="a" d="M199,63.85a1.618,1.618,0,0,0,3.236,0,6.588,6.588,0,0,0-1.618-2.64A6.579,6.579,0,0,0,199,63.85Z" transform="translate(-180.511 -57.645)"/></g></svg>