<svg xmlns="http://www.w3.org/2000/svg" width="315.996" height="259.216" viewBox="0 0 315.996 259.216">
  <g id="gold-ingots" transform="translate(0 -46)">
    <path id="Path_2979" data-name="Path 2979" d="M241,46h18.515V83.031H241Z" transform="translate(-92.26)" fill="#e5e3e0"/>
    <path id="Path_2980" data-name="Path 2980" d="M0,0H37.027V18.514H0Z" transform="translate(236.519 111.752) rotate(-45)" fill="#e5e3e0"/>
    <path id="Path_2981" data-name="Path 2981" d="M0,0H18.514V37.027H0Z" transform="translate(40.157 98.643) rotate(-45)" fill="#e5e3e0"/>
    <path id="Path_2982" data-name="Path 2982" d="M74.679,413.031,56.163,376H18.515L0,413.031v18.515H74.679Z" transform="translate(0 -126.331)" fill="#e5e3e0"/>
    <path id="Path_2983" data-name="Path 2983" d="M214.515,376,196,413.031v18.515h74.062V413.031L251.546,376Z" transform="translate(-75.033 -126.331)" fill="#e5e3e0"/>
    <path id="Path_2984" data-name="Path 2984" d="M196,173.031v18.515h74.062V173.031L251.546,136H214.515Z" transform="translate(-75.033 -34.454)" fill="#e5e3e0"/>
    <path id="Path_2985" data-name="Path 2985" d="M180.062,293.031,161.546,256H124.515L106,293.031v18.515h74.062Z" transform="translate(-40.579 -80.392)" fill="#e5e3e0"/>
    <path id="Path_2986" data-name="Path 2986" d="M360.062,293.031,341.546,256H304.515L286,293.031v18.515h74.062Z" transform="translate(-109.487 -80.392)" fill="#e5e3e0"/>
    <path id="Path_2987" data-name="Path 2987" d="M409.515,376,391,413.031v18.515h74.679V413.031L447.163,376Z" transform="translate(-149.683 -126.331)" fill="#e5e3e0"/>
  </g>
</svg>
