<svg xmlns="http://www.w3.org/2000/svg" width="33.719" height="33.719" viewBox="0 0 33.719 33.719"><defs><style>.a{fill:#fff;}</style></defs><g transform="translate(0 0)"><g transform="translate(11.92 0)"><path class="a" d="M185.939,9.84a.986.986,0,0,1-.866-.514l-1.259-2.3-2.3-1.259a.987.987,0,0,1,0-1.733l2.3-1.259,1.259-2.3a1.026,1.026,0,0,1,1.733,0l1.259,2.3,2.3,1.259a.987.987,0,0,1,0,1.733l-2.3,1.259-1.259,2.3A.986.986,0,0,1,185.939,9.84Z" transform="translate(-181 0)"/></g><g transform="translate(0 6.031)"><path class="a" d="M4.939,101.419a.986.986,0,0,1-.866-.514l-1.259-2.3-2.3-1.259a.987.987,0,0,1,0-1.733l2.3-1.259,1.259-2.3a1.026,1.026,0,0,1,1.733,0l1.259,2.3,2.3,1.259a.987.987,0,0,1,0,1.733l-2.3,1.259-1.259,2.3a.986.986,0,0,1-.866.514Z" transform="translate(0 -91.579)"/></g><g transform="translate(23.84 6.031)"><path class="a" d="M366.939,101.419a.986.986,0,0,1-.866-.514l-1.259-2.3-2.3-1.259a.987.987,0,0,1,0-1.733l2.3-1.259,1.259-2.3a1.026,1.026,0,0,1,1.733,0l1.259,2.3,2.3,1.259a.987.987,0,0,1,0,1.733l-2.3,1.259-1.259,2.3A.986.986,0,0,1,366.939,101.419Z" transform="translate(-362 -91.579)"/></g><g transform="translate(0 23.84)"><path class="a" d="M14.818,371.878H.988A.987.987,0,0,1,0,370.891v-1.976a.988.988,0,0,1,.051-.313l1.976-5.927A.987.987,0,0,1,2.964,362h9.878a.987.987,0,0,1,.937.675l1.976,5.927a.987.987,0,0,1,.051.313v1.976A.987.987,0,0,1,14.818,371.878Z" transform="translate(0 -362)"/></g><g transform="translate(17.913 23.84)"><path class="a" d="M286.818,371.878h-13.83a.987.987,0,0,1-.988-.988v-1.976a.988.988,0,0,1,.051-.313l1.976-5.927a.987.987,0,0,1,.937-.675h9.878a.987.987,0,0,1,.937.675l1.976,5.927a.987.987,0,0,1,.051.313v1.976A.987.987,0,0,1,286.818,371.878Z" transform="translate(-272 -362)"/></g><g transform="translate(9.944 11.92)"><path class="a" d="M163.842,190.878H151.988a.987.987,0,0,1-.988-.988v-1.976a.988.988,0,0,1,.051-.313l1.976-5.927a.987.987,0,0,1,.937-.675h7.9a.987.987,0,0,1,.937.675l1.976,5.927a.986.986,0,0,1,.051.313v1.976A.987.987,0,0,1,163.842,190.878Z" transform="translate(-151 -181)"/></g></g></svg>