<svg xmlns="http://www.w3.org/2000/svg" width="196" height="196" viewBox="0 0 196 196"><defs><style>.a{fill:#f9f3ff;stroke:#4c2e73;stroke-width:2px;}.b{fill:#e3d4f5;}.c{fill:#4c2e73;}.d{stroke:none;}.e{fill:none;}</style></defs><g transform="translate(-1010 -411)"><g class="a" transform="translate(1010 411)"><circle class="d" cx="98" cy="98" r="98"/><circle class="e" cx="98" cy="98" r="97"/></g><circle class="b" cx="66" cy="66" r="66" transform="translate(1042 443)"/><g transform="translate(1062.288 463.287)"><path class="c" d="M45.712,0A45.712,45.712,0,1,0,91.424,45.712,45.765,45.765,0,0,0,45.712,0ZM71.26,33.683,42.046,62.668a4.5,4.5,0,0,1-6.3.115L20.278,48.691a4.647,4.647,0,0,1-.344-6.416,4.532,4.532,0,0,1,6.416-.229L38.609,53.273,64.73,27.152a4.618,4.618,0,0,1,6.53,6.53Z"/></g></g></svg>