<svg xmlns="http://www.w3.org/2000/svg" width="147.998" height="210.995" viewBox="0 0 147.998 210.995">
  <g id="Group_393" data-name="Group 393" transform="translate(-222.504 -24)">
    <path id="Subtraction_3" data-name="Subtraction 3" d="M22764.5,2009.995h-136.375a74.54,74.54,0,0,1-11.623-40,74.056,74.056,0,0,1,6.289-29.974,75.908,75.908,0,0,1,7.373-13.08,78.745,78.745,0,0,1,9.766-11.394,80.158,80.158,0,0,1,11.84-9.4,81.239,81.239,0,0,1,13.588-7.095,83.115,83.115,0,0,1,62.281,0,81.239,81.239,0,0,1,13.588,7.095,80.4,80.4,0,0,1,11.84,9.4,77.906,77.906,0,0,1,9.766,11.394c.564.8,1.127,1.638,1.668,2.478v80.57h0v0Z" transform="translate(-22394 -1775)" fill="#f86041" opacity="0.05"/>
    <path id="Subtraction_1" data-name="Subtraction 1" d="M80.146,154a82.449,82.449,0,0,1-31.2-6.051,81.117,81.117,0,0,1-13.615-7.1,79.962,79.962,0,0,1-11.859-9.4,78.008,78.008,0,0,1-9.787-11.4A76.138,76.138,0,0,1,6.3,106.971a74.458,74.458,0,0,1,0-59.944,76.157,76.157,0,0,1,7.391-13.079,78,78,0,0,1,9.787-11.4,79.93,79.93,0,0,1,11.859-9.4,81.147,81.147,0,0,1,13.615-7.1A82.451,82.451,0,0,1,80.146,0a83.386,83.386,0,0,1,21.535,2.811A81.442,81.442,0,0,1,121,10.74V143.26a81.442,81.442,0,0,1-19.318,7.928A83.375,83.375,0,0,1,80.146,154Z" transform="translate(249.502 24)" fill="#4c2e73" opacity="0.05"/>
  </g>
</svg>
