<svg xmlns="http://www.w3.org/2000/svg" width="26.35" height="33.853" viewBox="0 0 26.35 33.853"><defs><style>.a{fill:#fff;}</style></defs><g transform="translate(-56.739)"><g transform="translate(56.739)"><path class="a" d="M81.459,0H67.413V9.53a1.142,1.142,0,0,1-1.142,1.142h-9.53v21.55a1.632,1.632,0,0,0,1.632,1.632H81.459a1.632,1.632,0,0,0,1.632-1.632V1.632A1.632,1.632,0,0,0,81.459,0ZM75.028,27.093h-9.3a1.142,1.142,0,0,1,0-2.284h9.3a1.142,1.142,0,1,1,0,2.284Zm0-5.373h-9.3a1.142,1.142,0,0,1,0-2.284h9.3a1.142,1.142,0,0,1,0,2.284Zm0-5.373h-9.3a1.142,1.142,0,0,1,0-2.284h9.3a1.142,1.142,0,0,1,0,2.284Z" transform="translate(-56.741)"/></g><g transform="translate(56.739)"><path class="a" d="M65.113,0a1.631,1.631,0,0,0-1.154.478L57.217,7.22a1.632,1.632,0,0,0-.478,1.154v.014h8.388V0Z" transform="translate(-56.739)"/></g></g></svg>