<svg xmlns="http://www.w3.org/2000/svg" width="35.208" height="28.645" viewBox="0 0 35.208 28.645"><defs><style>.a{fill:#00f200;}</style></defs><g transform="translate(19.193 -3.328) rotate(45)"><g transform="translate(0 9.076)"><path class="a" d="M16.453,1.62A5.5,5.5,0,0,0,12.45,0L9.706,2.745A.8.8,0,1,0,10.83,3.87,2.386,2.386,0,0,1,14.2,7.243L7.251,14.191a2.386,2.386,0,0,1-3.374-3.374L5.8,8.9a6.653,6.653,0,0,1-.6-.529A7.032,7.032,0,0,1,3.813,6.389L1.628,8.568A5.567,5.567,0,0,0,9.5,16.44l6.953-6.947A5.643,5.643,0,0,0,16.453,1.62Z"/></g><g transform="translate(4.706 0)"><path class="a" d="M12.872,9.571a6.962,6.962,0,0,1,1.395,1.979L16.314,9.5A5.567,5.567,0,0,0,8.442,1.628L1.626,8.447a5.556,5.556,0,0,0,4,9.492l2.744-2.744A.8.8,0,0,0,7.249,14.07,2.386,2.386,0,1,1,3.875,10.7l6.816-6.819a2.386,2.386,0,0,1,3.374,3.374L12.276,9.043a6.485,6.485,0,0,1,.6.529Z"/></g></g></svg>