<svg xmlns="http://www.w3.org/2000/svg" width="49.183" height="62.601" viewBox="0 0 49.183 62.601"><defs><style>.a{fill:white;}</style></defs><g transform="translate(-47.037 0)"><g transform="translate(47.037 0)"><path class="a" d="M89.96,8.2H84.3V5.668c0-.82-.894-1.192-1.714-1.192h-4.4A6.666,6.666,0,0,0,71.554,0a6.781,6.781,0,0,0-6.632,4.471H60.6c-.82,0-1.639.373-1.639,1.192V8.2H53.3a6.334,6.334,0,0,0-6.26,6.036v42.7c0,3.279,2.981,5.663,6.26,5.663H89.961c3.279,0,6.26-2.385,6.26-5.663v-42.7A6.334,6.334,0,0,0,89.96,8.2ZM61.941,7.457h4.1a1.64,1.64,0,0,0,1.416-1.341,4.322,4.322,0,0,1,4.1-3.353,4.247,4.247,0,0,1,4.024,3.353,1.639,1.639,0,0,0,1.49,1.341h4.248v5.962H61.941Zm31.3,49.481c0,1.639-1.639,2.683-3.279,2.683H53.3c-1.639,0-3.279-1.043-3.279-2.683v-42.7A3.353,3.353,0,0,1,53.3,11.183H58.96v3.8A1.565,1.565,0,0,0,60.6,16.4H82.583A1.639,1.639,0,0,0,84.3,14.984v-3.8H89.96a3.354,3.354,0,0,1,3.279,3.055v42.7Z" transform="translate(-47.037 0)"/><path class="a" d="M110.768,230.776a1.49,1.49,0,0,0-2.087-.074l-4.769,4.546-2.012-2.087a1.49,1.49,0,0,0-2.087-.074,1.565,1.565,0,0,0,0,2.161l3.055,3.13a1.341,1.341,0,0,0,1.043.447,1.49,1.49,0,0,0,1.043-.447l5.813-5.514a1.416,1.416,0,0,0,.086-2C110.827,230.832,110.8,230.8,110.768,230.776Z" transform="translate(-91.915 -197.461)"/><path class="a" d="M217.178,256.034h-17.14a1.49,1.49,0,1,0,0,2.981h17.14a1.49,1.49,0,1,0,0-2.981Z" transform="translate(-176.937 -219.514)"/><path class="a" d="M110.768,147.184a1.49,1.49,0,0,0-2.087-.074l-4.769,4.546-2.012-2.087a1.49,1.49,0,0,0-2.087-.074,1.565,1.565,0,0,0,0,2.161l3.055,3.13a1.341,1.341,0,0,0,1.043.447,1.49,1.49,0,0,0,1.043-.447l5.813-5.514a1.416,1.416,0,0,0,.086-2C110.827,147.24,110.8,147.211,110.768,147.184Z" transform="translate(-91.915 -125.792)"/><path class="a" d="M217.178,172.442h-17.14a1.49,1.49,0,0,0,0,2.981h17.14a1.49,1.49,0,1,0,0-2.981Z" transform="translate(-176.937 -147.846)"/><path class="a" d="M110.768,314.367a1.491,1.491,0,0,0-2.087-.074l-4.769,4.546-2.012-2.087a1.49,1.49,0,0,0-2.087-.074,1.565,1.565,0,0,0,0,2.161l3.055,3.13a1.341,1.341,0,0,0,1.043.447,1.49,1.49,0,0,0,1.043-.447l5.813-5.514a1.416,1.416,0,0,0,.086-2C110.827,314.424,110.8,314.395,110.768,314.367Z" transform="translate(-91.915 -269.129)"/><path class="a" d="M217.178,339.626h-17.14a1.49,1.49,0,1,0,0,2.981h17.14a1.49,1.49,0,1,0,0-2.981Z" transform="translate(-176.937 -291.183)"/></g></g></svg>