<svg id="Group_706" data-name="Group 706" xmlns="http://www.w3.org/2000/svg" width="47.591" height="47.848" viewBox="0 0 47.591 47.848">
  <path id="Path_2434" data-name="Path 2434" d="M142.657,286.857v10.915c0,2.412.409,2.834,2.757,2.834q8.688,0,17.376,0c1.914,0,2.455-.539,2.457-2.459,0-4.188.025-8.376-.018-12.564-.009-.895.182-1.234,1.159-1.217,3.43.06,6.862.051,10.292.005.911-.012,1.082.225.977,1.138a23.869,23.869,0,1,1-.188-7.291c.244,1.247,0,1.585-1.3,1.549-3.294-.092-6.594-.058-9.889-.011-.824.012-1.067-.215-1.051-1.042.051-2.583.029-5.168.016-7.752-.009-1.669-.6-2.268-2.239-2.271q-9.022-.013-18.044,0c-1.737,0-2.288.569-2.3,2.348-.013,1.47,0,2.941-.005,4.411,0,.292.112.819-.235.806-1.617-.059-2.062,1.592-3.257,2.131-.41.185-.81.492-.167.959.543.394.045.813-.083,1.169a39.679,39.679,0,0,0-2.649,9.791,8.17,8.17,0,0,0,.176,3.048,2.379,2.379,0,0,0,2.588,1.859c1.257-.085,1.768-.835,2.05-2.019.336-1.412.062-2.852.449-4.274A3.862,3.862,0,0,1,142.657,286.857Z" transform="translate(-130.093 -258.583)" fill="#fff" fill-rule="evenodd"/>
  <path id="Path_2435" data-name="Path 2435" d="M171,285.534c2.045,0,4.09-.01,6.136,0,1.622.01,2.112.519,2.119,2.173.007,1.779,0,3.557,0,5.336a1.615,1.615,0,0,1-1.807,1.819q-6.336.025-12.673,0a1.64,1.64,0,0,1-1.86-1.782c-.019-1.912-.033-3.824,0-5.736.022-1.134.438-1.887,1.809-1.837C166.819,285.59,168.911,285.534,171,285.534Z" transform="translate(-147.234 -272.653)" fill="#fff" fill-rule="evenodd"/>
  <path id="Path_2436" data-name="Path 2436" d="M150.459,300.924c0,1.93-.028,3.652.015,5.372a1.333,1.333,0,0,1-.636,1.2,4.292,4.292,0,0,0-1.662,4.089,6.429,6.429,0,0,1-.487,3.609c-.441.888-1.3,1.132-1.875.394a3.089,3.089,0,0,1-.775-2.317,43.314,43.314,0,0,1,3.044-10.392c.1-.231.126-.65.418-.615C149.468,302.384,149.7,301.49,150.459,300.924Z" transform="translate(-137.889 -280.705)" fill="#fff" fill-rule="evenodd"/>
</svg>
