<svg xmlns="http://www.w3.org/2000/svg" width="34" height="33.425" viewBox="0 0 34 33.425"><defs><style>.a{fill:#fff;}</style></defs><g transform="translate(0 -4.331)"><path class="a" d="M28.121,160.192h-2.8a1,1,0,0,0,0,1.992h.063a14.746,14.746,0,0,1-20.965-4.469H8.48a1,1,0,0,0,1-1V143.538a1,1,0,0,0-1-1H1a1,1,0,0,0-1,1V156.72a1,1,0,0,0,1,1H2.133a16.748,16.748,0,0,0,14.5,9.069c.126,0,.251,0,.377,0a16.623,16.623,0,0,0,10.114-3.41v.612a1,1,0,1,0,1.992,0v-2.8a1,1,0,0,0-1-1Z" transform="translate(0 -129.033)"/><path class="a" d="M206.555,153.638A9.673,9.673,0,0,1,204.1,152.5a.826.826,0,0,1-.189-.785,1.127,1.127,0,0,1,.743-.889,1.985,1.985,0,0,1,1.8.264,1,1,0,1,0,1.193-1.6,3.973,3.973,0,0,0-1.484-.665v-.405a1,1,0,1,0-1.992,0v.47l-.088.025a3.1,3.1,0,0,0-2.126,2.427,2.764,2.764,0,0,0,.917,2.722,10.526,10.526,0,0,0,3.022,1.452,1.284,1.284,0,0,1,.93,1.506,1.678,1.678,0,0,1-1.665,1.416,2.787,2.787,0,0,1-2-.525,1,1,0,0,0-1.091,1.667,4.437,4.437,0,0,0,2.1.811v.455a1,1,0,0,0,1.992,0V160.3a3.568,3.568,0,0,0,1.476-.82,3.738,3.738,0,0,0,1.151-2.123A3.282,3.282,0,0,0,206.555,153.638Z" transform="translate(-188.223 -133.591)"/><path class="a" d="M101.63,14.066h-.818A16.728,16.728,0,0,0,75.5,7.738V7.126a1,1,0,1,0-1.992,0v2.8a1,1,0,0,0,1,1h2.8a1,1,0,1,0,0-1.992h-.064a14.743,14.743,0,0,1,21.347,5.133H94.145a1,1,0,0,0-1,1V27.579a1,1,0,0,0,1,1h7.484a1,1,0,0,0,1-1V15.062a1,1,0,0,0-1-1Z" transform="translate(-68.626)"/></g></svg>