<svg xmlns="http://www.w3.org/2000/svg" width="98" height="98" viewBox="0 0 98 98"><defs><style>.a{fill:#fcd462;}.b{fill:#2f4859;}.c{fill:#3a556a;}.d{fill:#64798a;}.e{fill:#44c4a1;}.f{fill:#ebf0f3;}</style></defs><g transform="translate(-11.127 -11.127)"><circle class="a" cx="49" cy="49" r="49" transform="translate(11.127 11.127)"/><path class="b" d="M88.156,55.06v27H43.02V59.22l.461-1.919,1.7-1.842,4.606-.4H88.156Z" transform="translate(-7.441 -10.239)"/><path class="c" d="M52.915,65.055l-7.423-1.006L43.6,62.668,42,60.48V94.155a5.036,5.036,0,0,0,5.028,5.028H91.856a.86.86,0,0,0,.867-.867V64.648Z" transform="translate(-7.204 -11.499)"/><path class="d" d="M91.873,63.953H47.045a5.036,5.036,0,0,1,0-10.063H87.1a.867.867,0,0,1,0,1.735H47.045a3.3,3.3,0,0,0,0,6.594H91.873a.867.867,0,0,1,0,1.735Z" transform="translate(-7.252 -9.967)"/><path class="d" d="M86.729,83.54a4.529,4.529,0,0,0,0,9.058H102V83.54Z" transform="translate(-16.546 -16.858)"/><circle class="c" cx="2.364" cy="2.364" r="2.364" transform="translate(67.811 68.847)"/><path class="e" d="M90.836,60.248l4.345-4.337a1.535,1.535,0,0,0,0-2.165l-14.208-14.2a1.535,1.535,0,0,0-2.157,0L58.09,60.271Z" transform="translate(-10.943 -6.531)"/><path class="f" d="M89.088,61.47l3.27-3.27a2.579,2.579,0,0,1,0-3.646L82.164,44.36a2.579,2.579,0,0,1-3.646,0L61.4,61.47Z" transform="translate(-11.712 -7.753)"/><path class="e" d="M87.042,62.249l3.615-3.615a4.606,4.606,0,0,1,0-2.955L82.69,47.71a4.606,4.606,0,0,1-2.955,0L65.15,62.249Z" transform="translate(-12.584 -8.531)"/><path class="f" d="M81.8,65.232a5.98,5.98,0,0,0-11.675,0Z" transform="translate(-13.739 -11.514)"/><circle class="f" cx="2.41" cy="2.41" r="2.41" transform="translate(67.749 44.683)"/><path class="e" d="M74.648,66.234h1.374l-.307-.307a1.167,1.167,0,0,1,.545-.238,1.006,1.006,0,0,1,.768.269l.415-.491a1.535,1.535,0,0,0-.768-.384,1.443,1.443,0,0,0-.837.092,2.3,2.3,0,0,0-.56.345l-.66-.66-.438.438.66.652A1.235,1.235,0,0,1,74.648,66.234Z" transform="translate(-14.682 -12.516)"/><path class="d" d="M91.873,62.259H47.045a3.3,3.3,0,0,1,0-6.594h9.8V53.93h-9.8a5.036,5.036,0,0,0,0,10.063H91.873a.867.867,0,1,0,0-1.735Z" transform="translate(-7.252 -9.976)"/></g></svg>