<svg id="naira" xmlns="http://www.w3.org/2000/svg" width="36.845" height="36.845" viewBox="0 0 36.845 36.845">
  <path id="Path_586" data-name="Path 586" d="M163.953,136h-2.159v5.4H158l-2.985-5.4h-1.855v5.4H151v2.159h2.159v2.159H151v2.159h2.159v5.4h2.159v-5.4h3.8l2.985,5.4h1.855v-5.4h2.159v-2.159h-2.159v-2.159h2.159V141.4h-2.159Zm-8.635,9.715v-2.159h1.408l1.194,2.159Zm6.477,0h-1.408l-1.194-2.159h2.6Zm0,0" transform="translate(-140.134 -126.213)" fill="white"/>
  <path id="Path_587" data-name="Path 587" d="M18.422,0A18.422,18.422,0,1,0,36.845,18.422,18.462,18.462,0,0,0,18.422,0Zm0,34.686A16.264,16.264,0,1,1,34.686,18.422,16.282,16.282,0,0,1,18.422,34.686Zm0,0" fill="white"/>
</svg>
