<svg xmlns="http://www.w3.org/2000/svg" width="28.355" height="30.933" viewBox="0 0 28.355 30.933"><defs><style>.a{fill:#380f70;}.b{fill:#ff0000;}</style></defs><path class="a" d="M138.165,421.8a4.839,4.839,0,0,1-4.833-4.833.967.967,0,1,1,1.933,0,2.9,2.9,0,0,0,5.8,0,.967.967,0,1,1,1.933,0A4.839,4.839,0,0,1,138.165,421.8Zm0,0" transform="translate(-125.277 -390.867)"/><path class="a" d="M23.522,87.2H2.255A2.256,2.256,0,0,1,.789,83.23a.891.891,0,0,1,.1-.077,8.662,8.662,0,0,0,2.975-6.535v-3.6A9.033,9.033,0,0,1,12.889,64a3.883,3.883,0,0,1,.636.039.966.966,0,1,1-.317,1.906,2.027,2.027,0,0,0-.318-.012A7.1,7.1,0,0,0,5.8,73.022v3.6A10.6,10.6,0,0,1,2.058,84.7c-.019.016-.036.03-.057.044a.319.319,0,0,0-.068.2.326.326,0,0,0,.322.322H23.522a.326.326,0,0,0,.322-.322.308.308,0,0,0-.07-.2c-.019-.014-.036-.028-.055-.044a10.6,10.6,0,0,1-3.742-8.083v-1.4a.967.967,0,1,1,1.933,0v1.4a8.665,8.665,0,0,0,2.979,6.539.94.94,0,0,1,.1.075A2.255,2.255,0,0,1,23.522,87.2Zm0,0" transform="translate(0 -60.134)"/><path class="b" d="M262.445,12.889a6.444,6.444,0,1,1,6.444-6.444A6.452,6.452,0,0,1,262.445,12.889Zm0-10.955a4.511,4.511,0,1,0,4.511,4.511,4.516,4.516,0,0,0-4.511-4.511Zm0,0" transform="translate(-240.533)"/></svg>