<svg xmlns="http://www.w3.org/2000/svg" width="58.119" height="40.265" viewBox="0 0 58.119 40.265"><defs><style>.a{fill:#6d7486;}.b{fill:#7ce5e9;}.c{fill:#370f70;}.d{fill:#b0b5ca;}.e{fill:#ccd3df;}.f{fill:#50dd5a;}.g{fill:#eadf53;}.h{fill:#6ad3d3;}.i{fill:#f4f8fc;}</style></defs><g transform="translate(-10.5 -85.93)"><path class="a" d="M218.43,259.147V262.9h6.1V259.01Z" transform="translate(-183.317 -152.593)"/><path class="a" d="M50.73,259v3.887h6.1v-3.749Z" transform="translate(-35.468 -152.584)"/><path class="b" d="M361.389,211.77l2.137,9.169H352.82V211.77Z" transform="translate(-301.8 -110.944)"/><path class="c" d="M363.167,184.47l3.448,12.519-.007.024a3.247,3.247,0,0,0-.943-.142h-2.139l-2.137-9.169H352.82v-.627a2.6,2.6,0,0,1,2.6-2.6Z" transform="translate(-301.8 -86.876)"/><path class="c" d="M340.3,145.98h-7.034a3.551,3.551,0,0,0-3.551,3.551v13.478h2.734V153.14a2.6,2.6,0,0,1,2.6-2.6h10v-.692C345.061,147.718,342.921,145.98,340.3,145.98Z" transform="translate(-281.434 -52.942)"/><path class="c" d="M366.608,289.372a3.249,3.249,0,0,0-.943-.142H352.82v10.463h17.126a.473.473,0,0,0,.473-.474v-4.163c0-2.236-1.644-5.028-3.812-5.684Z" transform="translate(-301.8 -179.235)"/><path class="d" d="M59.706,317.07H20.973a.473.473,0,0,0-.473.473v6.22a.473.473,0,0,0,.473.473H59.837V317.07Z" transform="translate(-8.816 -203.78)"/><path class="e" d="M59.825,289.84H20.973a.473.473,0,0,0-.473.473v2.276a.473.473,0,0,0,.473.474H59.837V289.84Z" transform="translate(-8.816 -179.773)"/><path class="c" d="M39.928,109.68H16.55a6.049,6.049,0,0,0-6.05,6.05v5.832a6.049,6.049,0,0,0,6.051,6.05H39.928a6.043,6.043,0,0,0,6.049-6.05v-5.833a6.049,6.049,0,0,0-6.049-6.049Z" transform="translate(0 -20.939)"/><path class="f" d="M165.17,85.93h5.979v2.811H165.17Z" transform="translate(-136.362)"/><path class="g" d="M235.631,97.733a1.271,1.271,0,0,0-2.171.9v18.214a1.272,1.272,0,0,0,2.544,0V98.631A1.264,1.264,0,0,0,235.631,97.733Z" transform="translate(-196.568 -10.077)"/><path class="a" d="M63.259,344.53a4.987,4.987,0,0,1,.04.64,5.09,5.09,0,1,1-10.18,0,4.9,4.9,0,0,1,.04-.634,5.09,5.09,0,0,1,10.1-.006Z" transform="translate(-37.575 -224.068)"/><path class="a" d="M391.018,344.516a5.09,5.09,0,1,1-10.138.645,5.23,5.23,0,0,1,.04-.642,5.09,5.09,0,0,1,10.1,0Z" transform="translate(-326.538 -224.058)"/><path class="d" d="M79.916,364.7a2.174,2.174,0,1,1-2.176,2.175,2.174,2.174,0,0,1,2.176-2.175Z" transform="translate(-59.281 -245.772)"/><path class="d" d="M407.684,364.7a2.174,2.174,0,1,1-2.174,2.174,2.174,2.174,0,0,1,2.174-2.174Z" transform="translate(-348.253 -245.772)"/><path class="a" d="M24.051,323.764v-6.22a.473.473,0,0,1,.473-.473H20.973a.473.473,0,0,0-.473.473v6.22a.473.473,0,0,0,.473.473h3.551A.473.473,0,0,1,24.051,323.764Z" transform="translate(-8.816 -203.78)"/><path class="d" d="M24.051,292.59v-2.276a.473.473,0,0,1,.473-.473H20.973a.473.473,0,0,0-.473.473v2.276a.473.473,0,0,0,.473.474h3.551A.473.473,0,0,1,24.051,292.59Z" transform="translate(-8.816 -179.773)"/><path class="c" d="M14.051,121.562v-5.833a6.049,6.049,0,0,1,6.05-6.049H16.55a6.049,6.049,0,0,0-6.05,6.05v5.832a6.049,6.049,0,0,0,6.051,6.05H20.1a6.049,6.049,0,0,1-6.05-6.051Z" transform="translate(0 -20.939)"/><path class="g" d="M67.931,97.733a1.271,1.271,0,0,0-2.171.9v18.214a1.272,1.272,0,0,0,2.544,0V98.631A1.264,1.264,0,0,0,67.931,97.733Z" transform="translate(-48.719 -10.077)"/><path class="h" d="M352.82,211.77h3.551v9.169H352.82Z" transform="translate(-301.8 -110.944)"/><path class="b" d="M117.22,109.679v3.011h-2.526v-3.011h-1.42v17.932h1.42v-3.027h2.526v3.027h1.42V109.679Zm0,4.432v2.071h-2.526v-2.071Zm0,3.491v2.071h-2.526V117.6Zm-2.526,5.562v-2.071h2.526v2.071Z" transform="translate(-90.609 -20.938)"/><g transform="translate(13.81 91.617)"><path class="i" d="M39.175,136.082a.71.71,0,0,1-.71-.71v-.69a.71.71,0,1,1,1.42,0v.69A.71.71,0,0,1,39.175,136.082Z" transform="translate(-38.465 -133.972)"/><path class="i" d="M39.175,163.641a.71.71,0,0,1-.71-.71v-5.507a.71.71,0,0,1,1.42,0v5.507A.71.71,0,0,1,39.175,163.641Z" transform="translate(-38.465 -154.022)"/></g></g></svg>