<svg id="_x33_0" fill="white" enable-background="new 0 0 64 64" height="512" viewBox="0 0 64 64" width="512" xmlns="http://www.w3.org/2000/svg"><g><path d="m40.257 23.331-2.664 2.959c-1.443-1.414-3.417-2.29-5.593-2.29-4.411 0-8 3.589-8 8s3.589 8 8 8 8-3.589 8-8c0-1.506-.426-2.91-1.152-4.114l2.895-3.217zm-2.257 8.669c0 3.309-2.691 6-6 6s-6-2.691-6-6 2.691-6 6-6c1.662 0 3.168.68 4.256 1.776l-4.294 4.771-2.255-2.254-1.414 1.414 3.745 3.746 5.391-5.99c.363.771.571 1.629.571 2.537z"/><path d="m11 45h4v2h-4z"/><path d="m5 49h10v2h-10z"/><path d="m5 53h10v2h-10z"/><path d="m5 57h10v2h-10z"/><path d="m61 19c1.103 0 2-.897 2-2v-7c0-1.654-1.346-3-3-3h-5v-3c0-1.654-1.346-3-3-3h-12c-1.465 0-2.684 1.057-2.944 2.447-1.662-.292-3.356-.447-5.056-.447-3.688 0-7.274.688-10.67 2.033-.108-.018-.217-.033-.33-.033h-2.695c-1.15-2.413-3.59-4-6.305-4-3.859 0-7 3.14-7 7v1.184c-1.161.414-2 1.514-2 2.816 0 1.654 1.346 3 3 3h1v1c0 1.192.704 2.215 1.713 2.699l-.495 1.485-1.685.481c-3.258.931-5.533 3.947-5.533 7.335v1h2.172c-.102.996-.172 1.998-.172 3 0 3.392.586 6.704 1.727 9.859l-3.141 3.141c-.378.378-.586.88-.586 1.414v14.586c0 1.103.897 2 2 2h14c1.103 0 2-.897 2-2v-3.077c4.015 2.014 8.473 3.077 13 3.077s8.985-1.063 13-3.077v3.077c0 1.103.897 2 2 2h14c1.103 0 2-.897 2-2v-14c0-1.103-.897-2-2-2h-3.078c2.015-4.014 3.078-8.472 3.078-13 0-4.246-.904-8.323-2.667-12.137.206-.258.37-.546.483-.863zm-1-10c.552 0 1 .449 1 1v1h-4v2h4v4h-2.184c-.414-1.161-1.514-2-2.816-2-.352 0-.686.072-1 .184v-6.184zm-4 10c-.552 0-1-.449-1-1s.448-1 1-1 1 .449 1 1-.448 1-1 1zm-17-15c0-.551.448-1 1-1h12c.552 0 1 .449 1 1v13h-6.184c-.414-1.161-1.514-2-2.816-2s-2.402.839-2.816 2h-2.184zm6 14c0 .551-.448 1-1 1s-1-.449-1-1 .448-1 1-1 1 .449 1 1zm-26-6c0 .551-.448 1-1 1h-1v-2h1c.552 0 1 .449 1 1zm-5.721 7 .456 1.367-1.735.579-1.735-.578.456-1.368zm1.744 3.047.776.222-.907 1.209-1.04-1.04zm-1.023-5.047h-4c-.552 0-1-.449-1-1v-5h6v5c0 .551-.448 1-1 1zm-1-8v-2h8v2zm-1-6c1.599 0 3.069.766 3.997 2h-2.997c-1.103 0-2 .897-2 2v2h-4v-1c0-2.757 2.243-5 5-5zm-6 10c-.552 0-1-.449-1-1s.448-1 1-1h1v2zm2.977 9.047 1.172.391-1.04 1.04-.907-1.209zm-2.778.886 2.692 3.59 3.109-3.109 3.108 3.108 2.692-3.59c1.62.781 2.786 2.3 3.109 4.067h-17.818c.322-1.767 1.488-3.285 3.108-4.066zm.801 19.481v2.586h-2.586zm-4 18.586v-14h4c1.103 0 2-.897 2-2v-4h8l.001 20zm58.001 0h-14.001v-14h4v4h6v-4h4zm-8.001-14h2v2h-2zm2.656-2h-8.656c-1.103 0-2 .897-2 2v8.655c-3.964 2.183-8.442 3.345-13 3.345s-9.036-1.162-13-3.345v-14.655c0-1.103-.897-2-2-2h-8.586c-.526 0-1.042.213-1.414.586l-.699.699c-.86-2.666-1.301-5.445-1.301-8.285 0-1.002.072-2.005.182-3h17.818v-1c0-3.388-2.275-6.404-5.533-7.335l-1.685-.481-.495-1.485c1.009-.484 1.713-1.507 1.713-2.699v-1h1c1.654 0 3-1.346 3-3 0-.352-.072-.686-.184-1h.184c1.103 0 2-.897 2-2v-2c0-.153-.021-.301-.054-.444 2.898-1.032 5.938-1.556 9.054-1.556 1.684 0 3.36.165 5 .472v11.528c0 1.103.897 2 2 2h2.184c.414 1.161 1.514 2 2.816 2s2.402-.839 2.816-2h6.369c.414 1.161 1.514 2 2.816 2 .214 0 .422-.024.623-.067 1.57 3.483 2.376 7.199 2.376 11.067 0 4.557-1.162 9.036-3.344 13z"/></g></svg>