<svg xmlns="http://www.w3.org/2000/svg" width="51.469" height="51.466" viewBox="0 0 51.469 51.466"><defs><style>.a{fill:#ce0f15;}</style></defs><g transform="translate(0 0)"><path class="a" d="M43.861,13.147a.858.858,0,0,0,1.716,0,4.3,4.3,0,0,0-3.431-4.2V8.858a.858.858,0,0,0-1.716,0v.086a4.289,4.289,0,0,0,0,8.406v5.075a2.573,2.573,0,0,1-1.716-2.416.858.858,0,0,0-1.716,0,4.3,4.3,0,0,0,3.431,4.2V24.3a.858.858,0,0,0,1.716,0v-.086a4.289,4.289,0,0,0,0-8.406V10.731A2.573,2.573,0,0,1,43.861,13.147Zm-5.147,0a2.573,2.573,0,0,1,1.716-2.415v4.831A2.573,2.573,0,0,1,38.715,13.147Zm5.147,6.862a2.573,2.573,0,0,1-1.716,2.415V17.593A2.573,2.573,0,0,1,43.861,20.009Z" transform="translate(-5.262 -1.138)"/><path class="a" d="M40.009,4A12.009,12.009,0,1,0,52.017,16.009,12.009,12.009,0,0,0,40.009,4Zm0,22.3A10.293,10.293,0,1,1,50.3,16.009,10.293,10.293,0,0,1,40.009,26.3Z" transform="translate(-3.983 -0.569)"/><path class="a" d="M38.3,0a15.446,15.446,0,0,0-15.4,14.582h-.9a3.431,3.431,0,0,0-3.431,3.431v9.08l-1.109-1.109A.858.858,0,0,0,16.253,27.2l2.573,2.573a.858.858,0,0,0,1.213,0L22.613,27.2A.858.858,0,0,0,21.4,25.984l-1.109,1.109v-9.08A1.716,1.716,0,0,1,22.006,16.3h.9A15.435,15.435,0,0,0,37.446,30.836V33.1l-.251-.251a.858.858,0,0,0-1.213,1.213L37.7,35.775a.858.858,0,0,0,1.213,0l1.716-1.716a.858.858,0,0,0-1.213-1.213l-.251.251V30.836A15.429,15.429,0,0,0,38.3,0Zm0,29.164A13.724,13.724,0,1,1,52.028,15.44,13.724,13.724,0,0,1,38.3,29.164Z" transform="translate(-2.278 0)"/><path class="a" d="M2.573,56.16H6.862a2.56,2.56,0,0,0,1.9-.858H30.279a6.849,6.849,0,0,0,3.567-1l16.075-9.786A3.212,3.212,0,0,0,51.4,42.382a3.158,3.158,0,0,0-.537-2.464.84.84,0,0,0-.05-.073,3.2,3.2,0,0,0-3.581-1.115L31.359,44.022a2.578,2.578,0,0,1-.815.132h-.492a3.946,3.946,0,0,0-.319-3.377l-.077-.129a5.175,5.175,0,0,0-4.41-2.5H20.758A6.992,6.992,0,0,1,16.4,36.619a8.719,8.719,0,0,0-5.424-1.9h-1.7A2.573,2.573,0,0,0,6.862,33H2.573A2.573,2.573,0,0,0,0,35.573V53.586A2.573,2.573,0,0,0,2.573,56.16Zm12.759-18.2a8.719,8.719,0,0,0,5.425,1.9h4.487a3.447,3.447,0,0,1,2.941,1.665l.077.128a2.241,2.241,0,0,1-.129,2.5H22.924a8.548,8.548,0,0,0-4.758,1.441l-.629.419a.858.858,0,1,0,.952,1.427l.628-.419a6.84,6.84,0,0,1,3.807-1.153h7.624a4.294,4.294,0,0,0,1.357-.22l15.878-5.293a1.48,1.48,0,0,1,1.619.452c.015.025.032.049.049.073a1.492,1.492,0,0,1-.417,2.17L32.955,52.836a5.147,5.147,0,0,1-2.676.751H9.435V36.431h1.544a6.992,6.992,0,0,1,4.353,1.528ZM1.716,35.573a.858.858,0,0,1,.858-.858H6.862a.858.858,0,0,1,.858.858V53.586a.858.858,0,0,1-.858.858H2.573a.858.858,0,0,1-.858-.858Z" transform="translate(0 -4.694)"/></g></svg>