<svg xmlns="http://www.w3.org/2000/svg" xmlns:xlink="http://www.w3.org/1999/xlink" width="418" height="190" viewBox="0 0 418 190"><defs><style>.a{fill:#322a7d;}.b{opacity:0.5;clip-path:url(#a);}.c{fill:#1c1479;}.d{fill:#370f70;}</style><clipPath id="a"><rect class="a" width="418" height="190" rx="20"/></clipPath></defs><g class="b"><g transform="translate(-358.442 -363.873)"><path class="c" d="M2,1257.733V1100.6c2.367-.056,4.736-.07,7.1-.173,13.547-.591,27.1-1.807,40.638-1.678,26.143.25,52.282,1.16,78.416,2.016a41.72,41.72,0,0,0,18.824-3.427c6.171-2.767,12.349-5.523,18.444-8.467,15.457-7.467,31.727-11.089,48.648-12.235,8.772-.594,17.5-1.951,26.227-3.185s17.369-3.111,26.113-4.035a47.107,47.107,0,0,1,28.838,5.746c7.971,4.538,13.6,11.193,15.924,20.6,3.954,16.028-4.686,29.985-20.195,32.225a69.359,69.359,0,0,1-12.949.336c-6.42-.287-12.82-1.308-19.236-1.386-14.528-.176-24,6.992-28.878,21.432a58.81,58.81,0,0,0-1.757,30.453c4.792,24.688,18.112,42.862,39.369,54.027,28.657,15.052,58.308,16.337,88.119,4.008,27.679-11.447,47.757-32.146,62.292-59.086,10.068-18.662,15.389-38.975,18.772-59.988,1.327-8.24,3.1-16.413,4.965-24.541a29.144,29.144,0,0,1,5.976-12.018c4.425-5.381,9.986-7.3,16.581-5.952,1.368.279,2.708.723,4.051,1.123a196.152,196.152,0,0,1,52.846,25.312c5.786,3.856,11.546,7.765,17.438,11.434a121.464,121.464,0,0,0,60.92,18.679c13.77.485,27.362-1.053,40.885-3.468,17.36-3.1,34.644-6.753,52.239-8.124a23.512,23.512,0,0,0,15.773-7.287,77.213,77.213,0,0,0,9.462-11.734c4.247-6.724,8.055-13.771,11.78-20.839,4.878-9.258,9.336-18.762,14.253-28,13.77-25.859,31.481-48.19,54.18-65.938A182.186,182.186,0,0,1,880.775,950a54.163,54.163,0,0,1,14.158-.3c3.919.374,4.9,2.976,3.015,6.659a27.333,27.333,0,0,1-3.908,5.7c-3.061,3.426-6.208,6.79-9.54,9.92-6.465,6.074-13.073,11.981-19.64,17.936-12.611,11.438-25.044,23.068-35.8,36.522-9.511,11.9-17.53,24.751-22.7,39.423-4.4,12.5-6.16,25.352-4.164,38.578a70.313,70.313,0,0,0,27,46.159c25.085,19.678,53.038,23.794,82.753,14.806,22.642-6.848,40.584-21.258,55.356-40.286,10.154-13.08,17.8-27.765,24.821-42.852,3.874-8.318,7.54-16.766,11.858-24.824a161.14,161.14,0,0,1,11.265-17.481,28.214,28.214,0,0,1,11.1-9.22c16.887-7.822,33.725-15.776,50.762-23.222a124.174,124.174,0,0,1,44.36-10.6c20.77-.938,40.013,3.894,57.063,16.738a206.531,206.531,0,0,1,16.707,14.03c14.74,13.773,29.208,27.868,43.947,41.642,6.988,6.531,14.346,12.623,21.536,18.915v72.385a40.063,40.063,0,0,1-4.524-.484,56.681,56.681,0,0,1-26.866-13.774c-6.483-6.012-12.534-12.581-18.437-19.237-7.153-8.064-13.865-16.557-20.925-24.715a140.032,140.032,0,0,0-21.356-20.479c-15.521-11.7-32.879-16.515-51.829-15.349a128.509,128.509,0,0,0-31.646,6.349c-16.36,5.284-31.751,13.021-47.307,20.381a78.131,78.131,0,0,0-23.914,17.563c-3.235,3.462-6.43,6.964-9.622,10.47-5.706,6.269-11.317,12.636-17.107,18.817a164.021,164.021,0,0,1-46.516,34.971c-18.581,9.3-38.1,14.57-58.727,14.227-30.2-.5-56.9-11.294-80.028-31.632-6.642-5.84-12.739-12.365-19.111-18.547-2.774-2.692-5.49-5.472-8.443-7.931-7.4-6.161-12.193-5.88-18.625,1.26-3.165,3.512-5.885,7.467-8.832,11.2-4.287,5.427-8.425,11-12.94,16.208-6.175,7.123-13.946,10.544-23.219,10.148-10.618-.454-21.241-.929-31.866-1.044-14.676-.158-29.359-.193-44.032.1-15.088.3-30.147,1.767-45.267.45-22.578-1.966-43.258-9.229-61.088-24.172-6.871-5.758-13.181-12.275-19.578-18.633-5.079-5.048-9.777-10.521-14.87-15.554a69.7,69.7,0,0,0-23.387-15.242c-5.935-2.367-10.468-.982-13.672,4.729a47.071,47.071,0,0,0-4.337,10.923c-2.2,8.349-3.892,16.847-5.971,25.235-7.737,31.231-21.422,59.113-43.639,81.636-34.218,34.689-74.653,48.347-121.611,37.425-22.989-5.347-42.856-16.747-58.441-35.721-9.323-11.35-16.368-24.162-22.09-37.827-3.1-7.4-5.915-14.94-9.244-22.222a60.627,60.627,0,0,0-6.877-11.52,15.1,15.1,0,0,0-15.007-5.947,54.724,54.724,0,0,0-10.521,2.819c-4.346,1.6-8.55,3.637-12.8,5.536a47.015,47.015,0,0,1-20,4.117q-18.457-.195-36.919.16c-15.806.291-31.6.951-47.136,4.458-6.87,1.551-13.53,3.751-19.4,8-8,5.793-10.992,13.8-8.885,23.787a50.764,50.764,0,0,0,6.051,14.954,110.731,110.731,0,0,0,17.149,22.212c7.243,7.352,14.8,14.362,22.126,21.623a94.978,94.978,0,0,1,8.713,9.52c4.012,5.237,2.535,8.557-3.859,9.393a10.119,10.119,0,0,1-1.672.14c-5.161-.193-10.359-.065-15.475-.682a189.637,189.637,0,0,1-40.718-10.083A31.37,31.37,0,0,0,2,1257.733Z" transform="translate(-0.923 -531.23)"/><path class="c" d="M2,1006.086v-30.9c2.23.068,4.46.219,6.688.189,27.824-.371,55.648-1.011,83.472-1.057,14.389-.024,28.807.58,43.159,1.673a112.284,112.284,0,0,0,32.889-2.2,174.537,174.537,0,0,1,39.962-4.162c17.617.255,35.243.056,52.853.531a172.894,172.894,0,0,1,24.15,2.552,65.181,65.181,0,0,1,15.224,4.728c22.345,9.857,34.761,27.662,37.6,52.962,2.334,20.817-6.837,40.295-24.261,50.347a80.88,80.88,0,0,1-15.094,6.458c-5.718,1.888-11.722,2.805-17.476,4.593a56.07,56.07,0,0,0-12.785,5.292c-6.315,3.878-8.5,10.253-7.441,17.794.973,6.956,4.293,12.673,8.791,17.706a50.937,50.937,0,0,0,18.369,12.864c26.308,11.191,52.026,9.1,76.814-4.844,22.969-12.924,38.524-33.1,49.081-57.822,6.643-15.555,10.033-32.045,12.623-48.768,1.437-9.281,2.874-18.571,5.918-27.468,2.006-5.862,4.677-11.333,8.921-15.8,5.335-5.61,11.685-7.811,19.143-6.182,1.367.3,2.741.565,4.106.873,17.405,3.922,34.023,10.479,50.761,16.663,15.416,5.695,30.769,11.663,46.422,16.544a128.673,128.673,0,0,0,52.7,4.929,171.718,171.718,0,0,0,38.341-9.126c10.866-3.822,21.573-8.166,32.519-11.7a47.449,47.449,0,0,0,19.924-12.531c2.39-2.475,4.744-5,6.971-7.636,10.681-12.641,21.1-25.539,32.01-37.953,18.678-21.246,39.18-40.281,62.705-55.52,17.578-11.386,36.333-20.138,55.669-27.536,26.537-10.154,52.812-20.9,78.109-34.221a175.707,175.707,0,0,1,36.533-14.122c7.464-2,15.011-3.732,22.779-2.755,9.534,1.2,12.19,6.026,8.208,15.193-2.026,4.663-4.736,8.994-7.054,13.521-3.245,6.337-6.722,12.573-9.5,19.134a40.31,40.31,0,0,0-2.9,12.317c-.722,9.145,3.22,14,11.832,15.6,6.224,1.156,12.326.089,18.232-1.708q12.877-3.919,25.515-8.693c18.065-6.821,36.291-12.877,55.487-15.062,12.714-1.447,25.387-1.6,38.017.885,15.739,3.094,29.631,10.492,42.272,20.526,19.87,15.772,39.512,31.855,57.581,49.937q8.207,8.212,16.51,16.317c2.026,1.967,4.252,3.709,6.386,5.552V990.2c-5.185-4.677-10.581-9.121-15.518-14.073q-27.034-27.112-55.656-52.34c-4.394-3.855-9.019-7.455-13.754-10.836a79.641,79.641,0,0,0-31.227-13.428,116.78,116.78,0,0,0-39.664-.635c-14.8,2.158-28.838,7.044-42.491,13.23-13.094,5.933-26.029,12.259-39.2,17.989a41.551,41.551,0,0,0-18.154,15.079,91.326,91.326,0,0,0-10.318,20.64c-3.23,8.928-6.246,17.942-9.311,26.936-5.249,15.4-11.227,30.428-19.964,44.079-12.086,18.884-27.517,33.7-47.838,42.071-25.657,10.573-50.935,9.664-75.094-4.9-16.128-9.721-26.991-24.059-31.193-43.392-3.226-14.844-1.131-29.236,4.154-43.2,5.715-15.1,14.524-28.111,24.917-40,13.886-15.878,29.7-29.462,46.223-42.106,14.128-10.811,28.661-21.037,42.914-31.672,5.235-3.906,10.32-8.072,15.193-12.464a26.039,26.039,0,0,0,5.377-7.236c2.35-4.5.561-7.65-4.258-7.561a38.435,38.435,0,0,0-9.5,1.381c-8.239,2.29-16.414,4.837-24.589,7.371-18.086,5.606-36.283,10.86-54.208,16.992a210.924,210.924,0,0,0-89.981,59.386,291.544,291.544,0,0,0-31.77,43.213c-5.971,9.773-11.757,19.68-18.025,29.238a135.251,135.251,0,0,1-11.965,15.291,27.432,27.432,0,0,1-16.927,8.9c-5.385.832-10.73,2-16.057,3.191-15.839,3.553-31.464,8.122-47.56,10.46-19.643,2.852-38.988,1.932-58.119-3.72-13.424-3.966-25.776-10.476-37.989-17.345C514,1012.2,498.494,1004.39,482.132,998.7a208.388,208.388,0,0,0-21.4-6.043c-4.9-1.136-9.377.719-13.223,4.079a24.66,24.66,0,0,0-7.443,11.034,176.316,176.316,0,0,0-4.988,18.613c-2.217,10.911-3.574,22.029-6.053,32.867-6.6,28.867-19.456,54.172-40.835,73.951-27.149,25.116-58.552,34.652-94.189,26.369-15.556-3.616-29.683-10.541-40.736-23.066-10.605-12.019-16.621-26.016-15.667-42.781.867-15.238,9.63-25.168,24.059-26.861,4.845-.568,9.765-.414,14.647-.664,5.717-.292,11.488-.231,17.133-1.084,15.266-2.309,26.041-12.527,28.807-27.366a43.966,43.966,0,0,0-9-36.7c-6.679-8.455-15.549-13.26-25.487-16.067-12.524-3.537-25.195-2.76-37.9-1.443-10.981,1.138-21.968,2.307-32.978,3.019-17.836,1.152-35.2,4.372-51.869,11.373a173.5,173.5,0,0,1-17.769,6.621,44.778,44.778,0,0,1-13.178,2.014c-11.878-.176-23.745-1.012-35.621-1.436C66.276,1003.977,34.128,1003.922,2,1006.086ZM885.86,1072.4a64.509,64.509,0,0,0,26.625-5.823c21.344-9.569,35.537-26.441,44.355-48.658,5.494-13.841,7.808-28.453,9.248-43.269,1.606-16.518,3.319-33.025,4.891-49.547a167.117,167.117,0,0,0,1.1-17.127c-.053-6.583-2.906-9.687-9.049-10.559a37.537,37.537,0,0,0-8.343-.208c-11.284.944-21.888,4.6-32.123,9.479-20.169,9.607-37.945,23.043-54.62,38.19a154.838,154.838,0,0,0-26.269,30.155,89.114,89.114,0,0,0-12.649,29.1c-5.927,26.374,5.178,50.553,28.517,61.978A62.3,62.3,0,0,0,885.86,1072.4Z" transform="translate(-0.923 -453.485)"/><path class="c" d="M1260.734,1750.868v30.9c-3.482,1.023-6.929,2.206-10.451,3.044-24.968,5.948-50.074,7.264-75.342,2.257-14.9-2.952-29.152-8.157-43.353-13.591q-10.831-4.144-21.871-7.677c-12.943-4.133-25.375-2.8-37.3,4.146-5.5,3.2-11.18,6.083-16.9,8.816-22.1,10.551-45.3,12.909-68.931,8.494-26.824-5.011-53.534-10.749-80.192-16.671a199.643,199.643,0,0,0-60.837-4.5c-27.647,2.381-55.318,2.1-82.987.355-33.226-2.1-66.468-3.415-99.765-3.407a315.553,315.553,0,0,0-82.928,11.541c-13.123,3.563-26.023,8.023-39.072,11.9-19.669,5.841-39.571,7.481-59.748,3.189-5.48-1.165-10.988-2.19-16.461-3.387-8.48-1.855-17.1-3.23-25.38-5.817-25.661-8.02-51.956-11.249-78.549-12.831q-19.672-1.17-39.292-3.256c-18.367-1.984-36.722-3.828-55.214-3.707-10.207.067-20.43.275-30.62-.2-24.715-1.162-49.44-2.325-74.113-4.182-20.206-1.521-40.341-4.076-60.513-6.11-12.522-1.263-25.043-2.591-37.586-3.569-20.677-1.613-40.97,2.287-61.326,5.156v-39.724c.826.147,1.663.248,2.477.448,16.594,4.09,33.2,8.141,49.775,12.3a566.293,566.293,0,0,0,102.682,16.128c26.124,1.637,52.276.97,78.425.811,17.611-.107,35.239.08,52.836.78a334.485,334.485,0,0,0,65.655-3.583c15.618-2.465,31.17-5.4,46.783-7.906,15.45-2.484,30.949-2.862,46.306.651,9.146,2.092,18.171,4.771,27.241,7.223,14.367,3.885,28.925,5.432,43.656,3.243,11.2-1.664,22.4-3.531,33.483-5.893,20.869-4.446,41.845-7.693,63.157-8.432,24.338-.844,48.654-.293,72.971.779,24.877,1.1,49.657,3.395,74.425,6.022,16.405,1.74,32.868,3.194,49.338,3.85,15.917.634,31.882-.211,47.815.151,11.021.25,22.139.653,33.008,2.4,17.532,2.819,34.9,6.748,52.325,10.311,12.482,2.553,24.871,5.689,37.415,7.821,16.494,2.8,38.584-2.7,50.4-24.629,2.344-4.35,4.547-8.787,6.987-13.076,3.371-5.926,6.722-11.881,10.422-17.578a41.729,41.729,0,0,1,12.7-12.67c7.839-4.96,16.109-5.9,24.493-2.025a65.619,65.619,0,0,1,11.9,7.317c5.442,4.119,10.573,8.694,15.805,13.116a244.171,244.171,0,0,0,28.828,21.253c30.044,18.629,62.254,27.381,97.183,23.451C1247.28,1753.53,1253.99,1752.029,1260.734,1750.868Z" transform="translate(-0.923 -943.153)"/><path class="c" d="M1260.734,1592.71v35.31c-1.519.175-3.054.255-4.554.538-15.9,3-31.887,4.381-47.993,2.25-27.523-3.639-51.546-15.194-71.249-35.9-5.915-6.215-10.951-13.347-16.534-19.922-4.647-5.473-9.27-11.01-14.341-16.03a36.041,36.041,0,0,0-17.3-9.472c-10.484-2.475-20.258-.159-29.562,5.011-10.371,5.763-18.614,14.095-25.046,24.267-4.246,6.716-7.818,13.907-11.618,20.929-3.041,5.619-5.653,11.524-9.011,16.92-9.737,15.645-23.731,21.878-41.14,18.959-15.59-2.614-31.1-5.761-46.62-8.826s-31.033-6.277-46.867-6.937c-13.826-.577-27.661-1.185-41.495-1.278a631.473,631.473,0,0,1-63.183-4.017c-17.936-1.925-35.848-4.19-53.819-5.638q-46.214-3.723-92.585-4.258a290.311,290.311,0,0,0-48.515,3.019c-12.3,1.922-24.57,4.085-36.889,5.868-17.7,2.563-35.152,1.41-52.178-4.663q-11.91-4.249-23.811-8.524c-16.849-6.054-33.993-7.121-51.215-2.419-13.379,3.653-26.7,7.654-39.818,12.229-32.468,11.323-65.689,17.9-99.9,18.667q-48.637,1.091-97.278,1.984a435.523,435.523,0,0,1-53.193-2.106A445.01,445.01,0,0,1,37.6,1610.554c-11.91-3.731-23.733-7.767-35.6-11.664v-9.71c1.458.473,2.953.847,4.369,1.433,47.265,19.527,96.135,29.587,147.044,27.586,12.85-.505,25.718-.828,38.539-1.8q19.634-1.49,39.181-4.16c12.2-1.676,24.339-3.49,36.666-4.021,14.652-.632,29.325-1.5,43.9-3.136a190.954,190.954,0,0,0,65.279-19.968c15.556-7.882,29.937-17.736,43.925-28.3,4.766-3.6,9.682-6.982,14.6-10.352a17.937,17.937,0,0,1,12.8-3.224c4.283.583,8.7,1.016,12.734,2.486,7.642,2.782,15.132,6.076,22.543,9.5,8.317,3.838,16.4,8.227,24.722,12.062,12.031,5.546,24.654,8.873,37.819,8.827,11.169-.039,22.386-.332,33.493-1.471a426.692,426.692,0,0,1,69.968-.94q32.868,2.027,65.733,4.121c11.3.712,22.621,1.253,33.907,2.208,16.3,1.379,32.557,3.544,48.878,4.5,23.306,1.371,46.648,2.2,69.986,2.8,22.656.585,45.265,1.6,67.813,4.113a155.833,155.833,0,0,0,33.081.385c9.6-.975,17.422-4.977,23.161-13.243,1.813-2.612,3.728-5.147,5.554-7.75,2.989-4.26,5.878-8.6,8.924-12.812a157.3,157.3,0,0,1,38.585-38.237,100.986,100.986,0,0,1,28.357-14.011c20.632-6.09,38.732-1.448,54.033,14.4a108.962,108.962,0,0,1,10.239,12.239c4.365,6.1,8.233,12.6,12.432,18.839,4.358,6.476,8.527,13.139,13.36,19.208a72.687,72.687,0,0,0,44.553,26.819C1226.1,1600.715,1243.519,1598.09,1260.734,1592.71Z" transform="translate(-0.923 -840.608)"/><path class="c" d="M2,503.248V473.235c1.393-.006,2.787-.04,4.18-.014,10.482.2,20.963.486,31.447.594,11.325.117,22.651.027,33.977.111a73.63,73.63,0,0,1,21.943,3.3c16.446,5.253,32.908,10.491,49.171,16.331a117.145,117.145,0,0,1,44.021,27.55,293.624,293.624,0,0,1,20.149,23.014c6.143,7.622,11.71,15.757,17.561,23.641,8.929,12.032,19.773,21.585,33.1,27.8a62.215,62.215,0,0,1,23.63,19.273A66.091,66.091,0,0,0,308.9,636.3a195.767,195.767,0,0,0,20.953,7.663c4.927,1.427,10.168,1.736,15.295,2.265a14.867,14.867,0,0,0,5.353-.809,7.343,7.343,0,0,0,5.68-7.3,49.9,49.9,0,0,0-.665-8.747c-.547-3.772-1.645-7.472-2-11.256-.668-7.141,2.058-11.15,8.7-12.882a47.209,47.209,0,0,1,9.118-1.25c10.578-.623,20.9,1.236,31.1,3.956,20.479,5.463,41.047,10.149,62.266,11.294,19.631,1.06,39.123.544,58.485-3.2,19.1-3.693,36.17-11.276,48.369-28.12a11.316,11.316,0,0,1,.858-.967,55.864,55.864,0,0,1,13.754-11.457c7.777-4.337,15.407-9.007,23.37-12.929a630.862,630.862,0,0,0,67.719-38.8c6.518-4.283,13.111-8.484,19.921-12.215a125.646,125.646,0,0,1,17.275-7.863,27.343,27.343,0,0,1,24.666,2.565c3.979,2.451,7.826,5.135,11.735,7.711,3.672,2.42,7.268,4.98,11.035,7.222,7.768,4.622,16.128,5.959,24.713,3.446a112.043,112.043,0,0,0,18.124-6.77c25.713-12.69,50.8-26.618,74.453-43.253,8.02-5.64,16.02-11.314,24.1-16.863,23.133-15.89,47.315-29.681,73.385-39.489a282.342,282.342,0,0,0,41.006-19.007,165.471,165.471,0,0,1,41.735-16.971c17.116-4.322,34.267-8.537,51.508-12.253a145.549,145.549,0,0,0,53.973-23.271c7.777-5.485,15.31-11.356,22.91-17.114,6.807-5.157,13.439-10.58,20.375-15.533a53.226,53.226,0,0,1,11.464-6.324c7.654-2.978,12.785.337,14.507,8.778a32.033,32.033,0,0,1-2.928,20.563,91.832,91.832,0,0,1-9.251,15.692c-5.558,7.356-11.835,14.106-17.709,21.2a83.473,83.473,0,0,0-7.264,9.675c-4.44,7.306-3.655,13.75,2.184,19.944a36.011,36.011,0,0,0,5.818,5.024,81.267,81.267,0,0,0,9.11,5.428c14.726,7.453,30.4,10.763,46.633,11.479v37.958c-1.649-.3-3.3-.585-4.948-.894-14.863-2.788-29.677-5.788-44.217-10.152-23.473-7.045-45.867-16.937-67.815-28.061q-15.3-7.753-30.784-15.1c-18.676-8.834-37.813-9.385-57.342-3.367-13.221,4.073-25.533,10.331-37.914,16.515-9.586,4.788-19.2,9.622-29.138,13.5a390.945,390.945,0,0,0-56.814,27.181c-14.018,8.27-27.847,16.917-41.532,25.785-31.7,20.541-65.06,37.873-97.872,56.26a94.078,94.078,0,0,1-14.319,6.22c-7.5,2.685-15.286,4.14-23.1,2.1a104.187,104.187,0,0,1-15.359-5.708c-6.186-2.716-12.115-6.085-18.318-8.753a41.228,41.228,0,0,0-32.746-.319c-4.044,1.623-8.075,3.342-11.953,5.353a381.872,381.872,0,0,0-40.366,24.34c-10.437,7.171-19.417,15.877-26.14,27-8.205,13.578-19.9,22.37-34.021,28.1-16.756,6.8-34.254,9.594-51.986,11.126a271.081,271.081,0,0,1-41.072.4c-15.774-1.032-31.515-2.415-47.07-5.381-11.956-2.28-23.809-5.149-35.728-7.643-4.1-.857-8.236-1.725-12.462-.691-4.653,1.139-7.081,3.859-7.259,8.868a69.591,69.591,0,0,0,.512,9.226c.475,4.823,1.426,9.62,1.553,14.447a40.966,40.966,0,0,1-1.287,11.272c-1.066,4.082-4.126,6.331-8.271,5.986a32.189,32.189,0,0,1-8.168-1.683c-5.548-2-10.977-4.36-16.459-6.563-17.359-6.975-34.741-13.886-52.073-20.936a91.25,91.25,0,0,1-32.689-22.632,86.492,86.492,0,0,0-22.532-17.439,74.606,74.606,0,0,1-18.747-14.007c-7.74-8.075-15.355-16.3-22.729-24.742-17.589-20.142-38.462-34.88-63.256-43.324-9.574-3.259-19.145-6.527-28.757-9.658A101.175,101.175,0,0,0,77.885,504.8c-14.819-.251-29.643-.206-44.461-.479C22.947,504.132,12.474,503.619,2,503.248Z" transform="translate(-2 -253.646)"/><path class="c" d="M2,155.6c3.137-1.23,6.359-2.264,9.4-3.724,11.739-5.643,23.286-5.254,34.721.888,3.235,1.737,6.529,3.379,9.648,5.324a127.5,127.5,0,0,0,38.878,15.977c5.861,1.367,11.65,3.094,17.44,4.773,18.869,5.473,35.616,15.317,51.2,27.567,14.143,11.117,27.063,23.706,39.809,36.5q9.254,9.29,18.33,18.776A234.69,234.69,0,0,1,252.3,301.668c4.021,6.545,7.925,13.179,12.169,19.56a134.054,134.054,0,0,0,9.9,13.1c6.877,8,15.618,10.888,25.758,9.794a119.234,119.234,0,0,0,23.295-5.353,151.27,151.27,0,0,1,18.668-4.887c10.832-1.965,21.5.067,31.893,3.163,13.568,4.044,27.032,8.5,40.452,13.066A213.194,213.194,0,0,0,466.565,360.6a300.135,300.135,0,0,0,45.246.511c49.022-3.512,94.321-18.392,134.122-49.523,18.062-14.127,33.377-31.259,47.712-49.406,9.648-12.214,19.186-24.526,29-36.592,6.458-7.941,13.447-15.417,21.582-21.485a80.113,80.113,0,0,1,13.683-8.472c11.279-5.282,22.368-4.2,32.834,2.669,3.311,2.172,6.311,4.863,9.527,7.205,4.361,3.176,8.63,6.542,13.226,9.3,9.033,5.416,18.689,6.191,28.271,2.048a103.9,103.9,0,0,0,17.383-9.6,152.836,152.836,0,0,0,29.091-26.52c11.966-13.864,15.211-30.363,12.108-48.462a90.163,90.163,0,0,0-9.984-27.944c-5.279-9.688-11.059-19.074-16.44-28.7-4.458-7.977-8.812-16.027-12.909-24.212a63.783,63.783,0,0,1-6.059-19.167c-1.233-8.252.265-15.731,5.487-22.3A85.206,85.206,0,0,0,865.492,2h50.349a49.444,49.444,0,0,0,3.908,3.551c4.8,3.535,9.925,6.631,14.447,10.514,8.362,7.18,14.239,16.168,15.681,27.742.452,3.632.494,7.325.642,10.994.392,9.687.477,19.381,2.241,28.969,4.229,22.987,14.947,41.29,34.444,53.292,13.682,8.422,28.7,11.255,44.314,10.98,19.622-.346,38.453-4.866,56.773-12.189,29.031-11.605,54.366-28.584,73.974-54.412,4.687-6.174,10.223-11.675,15.647-17.183a99.944,99.944,0,0,1,21.522-16.725,40.7,40.7,0,0,1,27.51-5.2,149.327,149.327,0,0,1,33.793,9.982V66.441c-3.091-1.356-6.117-2.923-9.29-4.019-5.168-1.786-10.38-3.493-15.667-4.821-9.252-2.323-18.021-.522-26.363,4.1a95.591,95.591,0,0,0-21.423,16.873c-6.851,6.934-13.463,14.129-20.169,21.22a163.354,163.354,0,0,1-31.483,26.25,241.878,241.878,0,0,1-70.808,30.243c-20.387,5.084-41.055,7.356-61.972,3.736a95.018,95.018,0,0,1-49.714-24.767c-8.848-8.276-14.989-18.3-17.124-30.608-1.7-9.82-2.953-19.74-4.058-29.657-1.09-9.78-1.241-19.7-2.7-29.4-2.911-19.371-13.85-31.648-31.725-36.952-8.231-2.443-16.368-1.931-23.989,2.528-7.551,4.419-11.191,11.183-10.717,20.36.333,6.453,2.392,12.35,4.993,18.085A137.618,137.618,0,0,0,883.3,74.17c6.329,8.61,13.037,16.913,19.286,25.585,4.212,5.846,8.128,11.961,11.781,18.212a40.886,40.886,0,0,1,5.76,18.718c1.066,21.943-4.838,41.44-19.889,56.969a391.018,391.018,0,0,1-29.1,26.636,268.349,268.349,0,0,1-23.076,16.8,60.448,60.448,0,0,1-18.1,8.005c-6.949,1.891-13.688,1.384-19.9-2.362a121.248,121.248,0,0,1-12.446-8.924c-3.683-2.913-7.051-6.262-10.662-9.283a30.13,30.13,0,0,0-11.888-6.3c-6.7-1.719-13.051-.39-19.24,2.318A67.914,67.914,0,0,0,735.6,234.552c-8.689,8.52-17.128,17.331-25.475,26.223-9.333,9.943-18.269,20.3-27.691,30.15-17.739,18.54-37.044,34.96-59.468,46.971-37.576,20.127-77.677,30.292-119.568,32.849-13.8.842-27.683.749-41.5.227a304.786,304.786,0,0,1-33.351-3.369c-14.518-2.165-28.9-5.373-43.413-7.547a121.108,121.108,0,0,0-50.36,2.75c-10.273,2.807-20.574,5.593-30.987,7.71-14.428,2.933-26.883-1.236-36.576-13.2a85.912,85.912,0,0,1-7.617-10.511c-5.421-9.262-10.431-18.788-15.8-28.084-5.659-9.8-11.063-19.811-17.426-29.087-14.852-21.652-33.509-39.406-53.446-55.741a144,144,0,0,0-50.144-26.85c-5.507-1.659-11.012-3.367-16.592-4.715A135.511,135.511,0,0,1,62.6,183.426c-3.422-2.274-7.051-4.206-10.589-6.288-11.719-6.9-23.741-7.815-36.316-2.562C11.318,176.4,6.575,177.253,2,178.55Z" transform="translate(-0.923 -2)"/><path class="c" d="M1260.734,1382.484c-4.8.945-9.571,2.172-14.411,2.779-11.676,1.463-22.117-2.01-31.462-9.4a98.21,98.21,0,0,1-17.619-18.809c-7.06-9.5-13.763-19.306-20.971-28.68-6.237-8.11-12.674-16.1-19.547-23.609-10.374-11.338-23.008-18.6-37.987-20.795-11.672-1.71-23.145-.274-34.483,2.827a174.482,174.482,0,0,0-33.693,13.355c-9.921,5.1-19.786,10.337-29.49,15.874a127.447,127.447,0,0,0-13.635,9.459c-4.986,3.787-9.833,7.785-14.625,11.844-22.028,18.656-47.407,29.681-74.677,36.421a153.368,153.368,0,0,1-49.558,4.063c-17.236-1.407-33.918-5.664-50.231-11.587-5.548-2.015-11.063-4.134-16.626-6.1-2.91-1.031-5.863-1.964-8.846-2.726a23.247,23.247,0,0,0-19,2.9,101.83,101.83,0,0,0-10.364,7.481c-8.212,6.864-17.449,9.974-27.94,10.261a539.513,539.513,0,0,1-60.75-2.252,613.667,613.667,0,0,0-62.857-2.234c-11.17.193-22.378.066-33.523-.677-21.474-1.433-40.85-9.148-58.094-22.79-10.1-7.992-19.134-17.174-27.8-26.8-5.483-6.084-10.93-12.213-16.595-18.106-5.318-5.531-8.247-5.121-12.04,1.738a131.3,131.3,0,0,0-6.26,13.455c-7.367,17.845-15.661,35.139-26.474,51.006-18.591,27.279-42,48.287-71.738,61.033a134.848,134.848,0,0,1-60.7,10.762,147.688,147.688,0,0,1-45.426-9.712c-17.513-6.691-32.689-17.208-46.023-30.768-5.831-5.929-11.41-12.135-17.306-17.991a118.614,118.614,0,0,0-11.571-10.153,22.449,22.449,0,0,0-17.069-4.759q-23.872,3.466-47.646,7.659c-4.213.747-8.319,2.555-12.281,4.348a29.826,29.826,0,0,0-7.38,4.947,13.8,13.8,0,0,0-4.137,15.15,37.742,37.742,0,0,0,4.793,10.2,148.248,148.248,0,0,0,10.57,13.095c3.968,4.55,8.256,8.792,12.216,13.348a28.029,28.029,0,0,1,4.229,6.527c1.788,3.865.8,7.172-3.014,8.684a51.352,51.352,0,0,1-11.749,2.91c-10.46,1.467-20.962.572-31.406-.274a216.108,216.108,0,0,1-51.764-10.337c-7.313-2.464-14.516-5.289-21.769-7.95v-4.414c1.072.318,2.17.564,3.213.968a216.475,216.475,0,0,0,43.3,11.9,146.447,146.447,0,0,0,31.32,2.214,31.335,31.335,0,0,0,6.212-.873c6.3-1.636,7.445-4.977,3.438-10.458a65.227,65.227,0,0,0-6.858-7.724c-5.5-5.443-11.354-10.505-16.634-16.166-5.566-5.967-10.808-12.3-15.85-18.763A37.705,37.705,0,0,1,43.5,1380.63c-2.243-8.98.262-16.386,7.674-21.448a37.767,37.767,0,0,1,9.774-4.945,134.127,134.127,0,0,1,17.932-4.4c15.216-2.545,30.594-3.334,45.975-3.558,9.467-.138,18.651-1.34,27.534-4.917a60.753,60.753,0,0,1,8.463-2.517c7.87-1.9,14.784.1,20.235,6.39a109.886,109.886,0,0,1,8.756,11.8c4.279,6.538,8.192,13.341,12.417,19.92,7.629,11.88,16.224,22.959,27.038,31.767,29.892,24.346,64,31.933,100.841,26.2,29.884-4.651,55.089-19.629,76.43-41.857,19.43-20.238,32.984-44.387,41.8-71.5,3.07-9.448,5.448-19.144,8.4-28.637a52.843,52.843,0,0,1,4.779-11.195c2.71-4.571,6.4-5.5,10.824-2.721a72.884,72.884,0,0,1,11.821,9.04c4.632,4.452,8.714,9.535,13.066,14.312,6.189,6.793,12.178,13.813,18.662,20.281,15.565,15.525,33.736,26.019,54.964,30.259,14.785,2.954,29.711,3.366,44.691,2.636,20.7-1.01,41.365-.382,62.045.748,15.07.824,30.167,1.149,45.255,1.586,7.155.208,13.456-2.437,18.9-7.217,3-2.634,5.785-5.541,8.657-8.337,2.974-2.9,5.866-5.89,8.919-8.692,7.059-6.48,14.937-7.739,23.346-3.34,4.744,2.482,9.261,5.444,13.868,8.213,8.489,5.1,16.7,10.807,25.5,15.222,27.549,13.824,56.465,18.307,86.565,12.027q43.911-9.162,77.754-40.167c8.436-7.721,16.572-15.806,24.807-23.769a87.967,87.967,0,0,1,23.866-16.964c5.237-2.443,10.326-5.232,15.526-7.764,14.873-7.242,30.052-13.581,46.218-16.916,12.339-2.546,24.692-3.094,37.048-.107,14.627,3.536,26.709,11.709,37.282,22.641,8.8,9.1,16.283,19.387,23.9,29.552,4.76,6.35,9.555,12.68,14.549,18.827a79.909,79.909,0,0,0,17.479,16.382,47.637,47.637,0,0,0,33.668,7.659Z" transform="translate(-0.923 -703.65)"/><path class="c" d="M539.06,2c2.531,2.079,5.076,4.141,7.589,6.245a45.021,45.021,0,0,1,3.825,3.435c2.369,2.5,2.232,4.116-.792,5.831a54.845,54.845,0,0,1-8.447,3.855c-13.348,4.811-26.683,9.671-40.12,14.194-22.226,7.48-44.555,14.617-66.775,22.115-5.7,1.925-11.191,4.585-16.717,7.056-1.873.837-3.793,1.852-4.911,4.491a11.4,11.4,0,0,0,2.93,1.538,46.171,46.171,0,0,0,7.9.914c29.785-.007,59.573.189,89.352-.278,18.175-.284,36.229-2.815,54.233-5.419,15.778-2.282,31.509-4.954,47.316-6.969a55.174,55.174,0,0,1,15.83.489c7.818,1.3,11.021,6.772,8.791,14.761A78.157,78.157,0,0,1,633.4,87.937c-2.4,4.808-5.427,9.266-7.933,14.021-5.452,10.345-4.381,15.44,4.583,22.681,3.658,2.955,7.467,5.707,11.086,8.713,10.867,9.025,16.249,21.077,17.2,35.418,1.378,20.831-4.217,39.861-14.085,57.621-12.989,23.38-31.686,40.515-54.062,53.39a154.647,154.647,0,0,1-61.247,19.938c-39.32,4.214-76.907-2.306-112.26-21.118a152.079,152.079,0,0,1-45.6-37.621,111.873,111.873,0,0,1-24.992-56.356c-.514-3.484-1.2-6.942-1.878-10.4-1.959-9.9-7.621-16.252-16.937-18.624-5.826-1.483-11.812-2.263-17.68-3.582a68.4,68.4,0,0,1-11.683-3.351c-6.994-2.956-10-8.481-9.455-16.4.162-2.339.6-4.66.937-6.984.233-1.6.612-3.18.755-4.785.37-4.163-1.129-5.917-5.1-5.25a48.421,48.421,0,0,0-10.079,2.89c-11.345,4.6-22.578,9.508-33.923,14.107-5.47,2.218-11.048,4.178-16.662,5.959-13.951,4.428-26.728,1.709-37.632-8.343a284.715,284.715,0,0,1-20.522-21.408C155.882,96.7,146.043,84.436,135.7,72.664a204.912,204.912,0,0,0-32.251-30.121C86.511,30.071,67.636,23.714,47.107,22.113A166.91,166.91,0,0,0,5.33,23.941,24.137,24.137,0,0,1,2,24.069V17.889c.963-.163,1.931-.294,2.887-.494a142.02,142.02,0,0,1,74.521,4.031c15.97,5.223,30.1,14.175,43.023,25.1,14.272,12.064,28.139,24.659,42.2,37,8.166,7.164,16.492,14.105,25.769,19.657a63.951,63.951,0,0,0,20.655,8.3c13,2.523,25.34-.026,37.159-5.695,6.86-3.29,13.582-6.928,20.214-10.706,19.35-11.021,39.371-20.39,60.46-27.037,19.131-6.029,38.252-12.157,57.584-17.4,31.781-8.62,63.735-16.532,95.6-24.808q11.388-2.957,22.667-6.369c2.6-.78,5.471-1.35,7.416-4.551a31.3,31.3,0,0,0-3.487-3.525c-3.316-2.449-6.776-4.682-10.126-7.081A18.737,18.737,0,0,1,496.263,2ZM592.9,78.066c-6.728.77-12.564,1.42-18.4,2.109-18.052,2.131-36.072,4.642-54.161,6.32-20.466,1.9-41,3.016-61.494,4.539A386.332,386.332,0,0,0,402.4,99.173c-15.057,3.394-29.907,7.59-43.9,14.508a63.841,63.841,0,0,0-12.165,7.711c-7.217,5.919-7.083,11.07-.092,17.191,2.471,2.164,5.052,4.193,7.46,6.43a18.961,18.961,0,0,1,6.106,17c-.439,3.643-.991,7.275-1.626,10.886a80.878,80.878,0,0,0-.726,25.882c1.74,11.883,6.5,22.431,12.995,32.181,13.837,20.783,32.249,35.906,54,46.262,34.549,16.45,70.788,21.958,108.418,16.25a150.67,150.67,0,0,0,74.719-33.442c15.979-13.215,28.8-29.142,36.777-48.983,5.4-13.446,8.465-27.377,6.339-42.12-1.388-9.627-4.973-18.18-12.259-24.375a71.951,71.951,0,0,0-12.773-8.32c-4.468-2.39-9.311-3.991-13.91-6.126a66.378,66.378,0,0,1-9.7-5.16c-5.4-3.7-6.407-8.04-3.389-14,1.7-3.362,3.969-6.4,5.817-9.686a72.264,72.264,0,0,0,5.348-10.445c2.338-6.429-.08-10.706-6.543-11.855A101.392,101.392,0,0,0,592.9,78.066Z" transform="translate(-0.923 -2)"/><path class="c" d="M1260.734,1506.084c-5,1.315-9.97,2.776-15.005,3.913-8.373,1.889-16.808,2.8-25.4,1.708-12.827-1.623-23.78-7.231-33.114-16.523a123.321,123.321,0,0,1-15.948-20.414c-4.821-7.4-9.31-15.06-14.467-22.187a208.843,208.843,0,0,0-16.551-20.456c-9.538-10.177-21.016-17.009-34.662-19.179-10.413-1.656-20.625-.385-30.684,2.673a125.526,125.526,0,0,0-32.131,14.923c-11.872,7.737-23.393,16.076-34.958,24.322-5.319,3.793-10.355,8.024-15.567,11.986-3.285,2.5-6.65,4.879-10,7.287a45.449,45.449,0,0,1-25.93,8.922c-29.427.736-58.465,5.355-87.516,9.833-9.955,1.534-19.878,3.6-29.889,4.35a247.187,247.187,0,0,1-34.345.51c-31.966-2.087-63.97-2.87-95.959-4.2-17.732-.739-35.432-2.4-53.139-3.757a489.244,489.244,0,0,0-66.637-.866c-12.015.719-24.038.841-36.02-.682A98.338,98.338,0,0,1,513.7,1474.5c-9.794-5.967-19.285-12.481-29.039-18.525-5.893-3.651-12.05-6.824-18.048-10.292-4.835-2.795-9.2-1.89-13.109,1.827-3.94,3.741-7.765,7.62-11.568,11.516-8.411,8.617-16.462,17.654-25.221,25.858-24.252,22.715-52.079,38.377-84.009,45.5a188.221,188.221,0,0,1-58.393,3.355c-13.5-1.229-26.959-2.969-40.444-4.393-3.334-.352-6.7-.394-10.051-.528a27.837,27.837,0,0,0-18.187,5.392c-9.4,6.842-20.227,9.891-31.4,11.463-21.4,3.01-42.942,3.308-64.464,2.492-35.82-1.357-70.191-9.978-103.4-24A40.413,40.413,0,0,0,2,1522.857v-3.531c20.87,9.007,42.3,15.982,64.6,19.873a282.078,282.078,0,0,0,87.691,1.183,41.67,41.67,0,0,0,11.905-4.012c5.982-2.84,8.794-7.97,8.01-14.978-.359-3.21-.943-6.392-1.333-9.6-1.312-10.8,3.214-15.528,13.325-13.112a95.219,95.219,0,0,1,16.987,6.171c12.331,5.594,24.72,10.95,37.665,14.822,18.516,5.538,37.364,8.919,56.611,9.061,42.637.313,79.894-14.855,112.161-43.955,13.23-11.932,24.5-25.769,35.158-40.192,4.033-5.456,8.085-10.9,12.271-16.225a43.058,43.058,0,0,1,5.408-5.5,5.931,5.931,0,0,1,8.105-.406c4.939,3.6,9.907,7.161,14.774,10.868,8.606,6.553,17.015,13.4,25.744,19.764,11.454,8.35,23.811,14.8,37.487,18.178a138.752,138.752,0,0,0,32.453,3.706c7.546.055,15.1-.261,22.642-.534,23.808-.861,47.492,1.207,71.2,3.007,17.005,1.292,34.044,2.328,51.085,2.8,17.467.483,34.954.208,52.433.134,12.493-.053,24.795-2.1,37.019-4.591a172.349,172.349,0,0,1,32.941-3.2c12.3-.114,24.609-.141,36.9-.682,20.181-.89,39.952-4.886,59.616-9.507,2.046-.481,4.079-1.035,6.14-1.429a107.346,107.346,0,0,0,36.627-14.748c11.432-7.108,22.783-14.361,34.15-21.584,12.575-7.991,25.334-15.617,38.952-21.505,11.971-5.175,24.262-8.982,37.344-9.166a61.413,61.413,0,0,1,36.083,11.119A90.346,90.346,0,0,1,1155,1424.739c6.6,8.558,12.717,17.524,19.016,26.336,5.542,7.754,10.987,15.585,16.6,23.28a54.71,54.71,0,0,0,5.5,6.052c14.117,14.263,30.884,18.095,49.645,13.75,4.089-.947,8.094-2.289,12.146-3.414.922-.256,1.881-.368,2.823-.547Z" transform="translate(-0.923 -779.582)"/><path class="d" d="M2,277.793c8.79.432,17.135-2.432,25.664-3.9,11.381-1.956,22.282-.717,32.688,4.634,3.39,1.743,6.83,3.4,10.118,5.335a158.191,158.191,0,0,0,41.286,16.9c6.239,1.6,12.391,3.6,18.54,5.561,23.487,7.5,43.41,21.291,61.524,38.4,19.073,18.011,33.857,39.406,46.149,62.911,5.319,10.171,10.989,20.15,16.8,30.017a66.18,66.18,0,0,0,14.153,17.336c11.342,9.533,24.214,13.293,38.5,10.226,8.475-1.82,16.8-4.418,25.184-6.693,17.288-4.69,34.778-5.074,52.426-2.956,27.1,3.252,54.225,5.968,81.56,4.257,15.2-.952,30.468-1.232,45.6-2.909,41.468-4.6,81.355-15.346,118.415-36.063,18.267-10.211,34.5-23.479,49.649-38.171,14.082-13.657,27.695-27.849,41.759-41.525a200.515,200.515,0,0,1,19.466-16.717,64.462,64.462,0,0,1,14.807-8.074c8.868-3.522,17.376-2.049,24.9,4.163,3.736,3.083,7.175,6.56,10.879,9.689,3.809,3.218,7.637,6.447,11.7,9.282,7.351,5.126,15.375,6.171,23.626,2.839,5.463-2.206,11.017-4.458,16-7.612a267.03,267.03,0,0,0,24.737-17.36c12.878-10.36,25.313-21.331,37.907-32.079a87.848,87.848,0,0,0,19.522-24.024c2.065-3.67,4.091-7.37,6.306-10.939a65.092,65.092,0,0,1,5.267-7.4c3.688-4.417,8.433-6.316,13.949-5.2,4.517.915,9,2.119,13.413,3.476,9.522,2.923,18.986,5.981,28.827,7.651a152.141,152.141,0,0,0,38.477,1.242c35.766-3.039,69.131-14.746,100.839-32,16.514-8.989,31.085-20.821,44.431-34.4,6.831-6.951,13.641-13.961,20.889-20.411a114.7,114.7,0,0,1,16.139-11.8,31.79,31.79,0,0,1,28.312-2.982c6.2,2.19,12.219,4.967,18.319,7.481V167.45c-4.769-2.432-9.446-5.094-14.326-7.246-9.337-4.115-18.559-3.344-27.541,1.444a96.254,96.254,0,0,0-19.606,14.281c-8.116,7.439-16.015,15.142-24.177,22.524-21.593,19.532-46.375,33.061-73.064,43.153-27.8,10.512-56.344,17.291-85.816,19.056-13.231.793-26.546.039-39.823-.041-2.514-.015-5.028-.237-7.542-.235-10.55.009-19.861,3.556-27.266,11.547-12.563,13.558-27.048,24.594-41.415,35.828-11.892,9.3-23.541,18.944-35.35,28.364-10.154,8.1-20.715,15.565-32.213,21.411A84.941,84.941,0,0,1,820.15,362.7a23.95,23.95,0,0,1-22.081-3.329c-4.957-3.531-9.509-7.7-14.171-11.679-3.255-2.778-6.279-5.862-9.6-8.545-6.442-5.2-13.679-6.3-21.445-4.042a49.83,49.83,0,0,0-17.517,9.257c-9.626,7.8-19.044,15.9-28.375,24.095-12.234,10.743-24.148,21.891-36.467,32.523-27.12,23.4-58.156,38.761-91.711,48.924a512.9,512.9,0,0,1-72.1,16.034c-18.667,2.826-37.346,5.609-55.944,8.883-15.242,2.684-30.307,2.114-45.457-.575-10.46-1.857-20.968-3.568-31.518-4.666-15.9-1.655-31.5.584-46.8,5.4-6.146,1.935-12.38,3.61-18.642,5.078-5.826,1.365-11.679.665-17.457-.712-14.567-3.471-26.8-11.041-35.868-23.59-4.98-6.89-9.5-14.18-13.847-21.536-6.052-10.235-11.6-20.8-17.638-31.046a194.431,194.431,0,0,0-34.247-43.244c-19.158-18.018-41.414-29.893-66.085-36.841-16.519-4.652-32.623-10.356-48.032-18.22A63.024,63.024,0,0,0,40.9,298.282c-5.3.42-10.583,1.02-15.884,1.343-7.666.467-15.341.755-23.013,1.119Z" transform="translate(-0.923 -82.706)"/><path class="c" d="M2,834.831c30.595,2.188,61.217.46,91.825.607,25.152.12,48.992,6.08,72.2,15.746,13.249,5.517,26.595,10.778,39.909,16.119,23.176,9.295,47.092,15.718,71.439,20.534a156.552,156.552,0,0,1,36.037,11.377,98.022,98.022,0,0,1,43.3,39.005c7.761,12.822,13.9,26.493,19.506,40.46a100.344,100.344,0,0,0,4.829,10.752c3.013,5.517,6.7,6.049,10.643,1.31a43.171,43.171,0,0,0,6.387-10.269c3.361-7.744,6.387-15.663,9.228-23.638,4.71-13.22,9.28-26.5,16.14-38.7A79.2,79.2,0,0,1,431.731,906c4.464-5.31,10.323-7.043,17.072-6.205,18.895,2.345,37.454,6.6,56.073,10.541,16.307,3.451,32.683,6.545,49.328,7.386,28.188,1.425,55.9-1.376,82.375-12.339a256.686,256.686,0,0,0,26.509-13.156c12.854-7.159,25.784-14.01,39.368-19.6a172.9,172.9,0,0,0,23.921-12.7c14.985-9.15,29.928-18.413,44.5-28.262a573.823,573.823,0,0,1,87.915-49.339c19.071-8.486,37.222-18.916,55.471-29.159,24.826-13.935,50.484-25.972,77.576-34.141,12.861-3.878,26.072-6.5,39.175-9.448,9.282-2.086,18.61-4.023,27.986-5.559a90.641,90.641,0,0,1,50.646,5.932,259.58,259.58,0,0,1,28.9,14.026c20.96,12.072,41.685,24.607,62.346,37.243,17.07,10.439,33,22.665,48.466,35.555,3.708,3.089,7.581,5.957,11.379,8.926v21.186c-1.564-1.178-3.194-2.271-4.681-3.55-9.2-7.914-18.115-16.228-27.62-23.713-9.835-7.744-20.044-15.012-30.43-21.92-15.24-10.137-30.81-19.724-46.19-29.628-14.442-9.3-29.1-18.147-44.811-24.914-15.227-6.556-31.012-10.093-47.467-8.952-10.582.734-21.114,2.323-31.655,3.656-35.916,4.538-69.1,18.084-100.857,35.407q-41.911,22.86-85.217,42.433c-22.951,10.328-44.382,23.6-64.957,38.427q-29.24,21.069-58.482,42.134a161.938,161.938,0,0,1-29.325,16.974c-8.872,3.912-17.373,8.8-25.887,13.553-16.407,9.165-33.485,16.231-51.9,19.42a195.719,195.719,0,0,1-47.632,2.326c-17.07-1.226-33.786-4.589-50.436-8.5q-24.739-5.809-49.518-11.433a117.308,117.308,0,0,0-12-1.987c-7.537-.9-13.879,1.935-18.588,8a92.411,92.411,0,0,0-8.853,13.868c-6.243,11.956-9.436,25.1-12.653,38.2-3.111,12.667-6.092,25.375-11.048,37.436-3.792,9.229-8.423,17.925-14.789,25.5-3.727,4.436-7.789,8.516-12.809,11.254a25.845,25.845,0,0,1-7.862,2.8c-3.3.566-5.4-1.445-5.59-4.965a26.994,26.994,0,0,1,.536-6.556c1.443-7.34,3.215-14.611,4.537-21.973,2.956-16.451,1.06-32.481-4.215-48.169C351.55,935.9,336.3,915.769,311.972,904a111.707,111.707,0,0,0-27.087-9.095c-12.215-2.41-24.577-4.057-36.722-6.787q-28.884-6.491-57.544-14.064c-13.675-3.626-27.1-8.277-40.709-12.2a168.292,168.292,0,0,0-46.424-6.551c-19.995-.038-39.99.5-59.986.521-13,.01-25.993-.47-38.991-.725-.836-.016-1.673.021-2.509.033Z" transform="translate(-0.923 -393.457)"/><path class="c" d="M2,660.627c11.736.367,23.469.858,35.207,1.068,14.118.252,28.242.172,42.361.409,12.115.2,23.882,2.744,35.386,6.613,7.719,2.6,15.4,5.34,23.047,8.148a154.2,154.2,0,0,1,56.355,36.489c6.483,6.486,12.951,13.028,19.858,18.991a173.6,173.6,0,0,0,18.458,13.72c7.258,4.748,14.465,9.527,20.879,15.48a123.738,123.738,0,0,0,40.337,24.7c12.852,4.952,25.6,10.208,38.322,15.522a200.3,200.3,0,0,1,31.7,17.016,81.584,81.584,0,0,0,11.431,6.454c7.879,3.455,13.758.651,16.564-7.844a40.606,40.606,0,0,0,1.909-10.33c.3-5.273.02-10.582.018-15.876,0-3.087-.142-6.194.133-9.257.584-6.509,3.914-9.821,10.156-9.944a36.741,36.741,0,0,1,8.73.934,484.958,484.958,0,0,0,77.63,10.854c28.842,1.738,57.593.88,85.824-6.661a126.23,126.23,0,0,0,24.811-9.381A81.291,81.291,0,0,0,629.7,743.7c3.2-4.275,6.294-8.644,9.592-12.834a87.7,87.7,0,0,1,37.745-27.693c13.938-5.459,28.008-4.593,42.072-.6,5.53,1.569,11,3.369,16.483,5.13,12.925,4.151,25.746,3.792,38.163-1.755,8.86-3.958,17.6-8.31,26.071-13.114,40.475-22.954,81-45.8,120.736-70.181a437.467,437.467,0,0,1,74.424-36.384c8.378-3.163,16.344-7.6,24.346-11.782,9.4-4.907,18.811-9.7,28.846-13.053a83.694,83.694,0,0,1,54.435-.093c13.889,4.628,27.165,10.841,40.47,16.99,19.445,8.987,38.706,18.5,58.986,25.271,14.643,4.89,29.493,9.094,44.244,13.629,4.82,1.482,9.619,3.041,14.427,4.565v15.007c-16.706-7.981-34.542-12.531-51.8-18.826-22.366-8.158-43.618-19.014-65.133-29.25-15.159-7.212-30.507-13.9-46.672-18.332-19.979-5.484-39.365-3.739-58.168,5-6.255,2.907-12.345,6.241-18.367,9.659a183,183,0,0,1-26.823,12.423c-27.364,10.146-53.44,23.346-78.719,38.19q-60.414,35.475-121.657,69.318c-7.3,4.016-14.775,7.69-22.251,11.338a66.777,66.777,0,0,1-42.546,5.752,89.613,89.613,0,0,0-34.621.239,75.123,75.123,0,0,0-33.664,16.049c-5.029,4.207-9.966,8.573-14.644,13.2-21.342,21.116-47.075,32.2-75.6,37.078-24.289,4.158-48.709,4.418-73.176,2.663a719.281,719.281,0,0,1-72.365-9.28,62.042,62.042,0,0,0-8.716-1.16c-7.538-.229-11.5,3.156-12.635,11.065-.815,5.658-.915,11.427-1.676,17.1a80.874,80.874,0,0,1-2.829,14.181,33.017,33.017,0,0,1-5.416,9.809c-3.678,4.72-8.624,5.717-14.028,3.476a32.759,32.759,0,0,1-5.216-2.789,50.948,50.948,0,0,1-5.843-4.285c-17.806-15.526-38.357-25.647-59.916-33.795-8.544-3.229-17.133-6.329-25.65-9.632a137.582,137.582,0,0,1-32.052-18.068c-9.71-7.184-19.744-13.882-29.53-20.954-5.987-4.326-11.836-8.87-17.63-13.48-3.9-3.1-7.68-6.387-11.366-9.769-25.884-23.75-56.676-36.652-89.583-44.812-11.1-2.751-22.473-2.779-33.793-2.914-17.754-.211-35.512-.143-53.267-.325-4.463-.045-8.921-.592-13.382-.909Z" transform="translate(-0.923 -311.941)"/><path class="c" d="M1260.734,259.166a79.447,79.447,0,0,0-11.953-15.747c-7.8-7.8-16.6-9.58-26.164-4.5a144.068,144.068,0,0,0-16.786,10.762c-5.288,3.831-10.3,8.111-15.274,12.392-29.146,25.069-61.885,42.491-98.525,51.847-17.236,4.4-34.352,9.325-51.536,13.958a249.259,249.259,0,0,0-37.6,13.661q-13.481,6.081-27.163,11.667a370.344,370.344,0,0,0-80.615,45.756c-7.2,5.337-14.339,10.764-21.5,16.162a352.483,352.483,0,0,1-53.779,33.3c-7.7,3.879-15.576,7.247-24.079,8.786a27.288,27.288,0,0,1-20.182-3.812c-4.173-2.657-8.076-5.792-12.034-8.809-3.508-2.674-6.879-5.548-10.392-8.215-7.22-5.482-15.177-6.692-23.493-3.577a89.137,89.137,0,0,0-14.9,6.967c-7.746,4.685-15.221,9.879-22.694,15.045-8.878,6.138-17.594,12.534-26.447,18.711-23.2,16.183-48.189,28.486-74.4,38.223-10.93,4.061-21.739,8.5-32.532,12.952a93.945,93.945,0,0,0-25.74,15.526c-14.088,12.148-30.592,17.183-48.314,19.122-25.8,2.822-51.014-.257-75.943-7.446a244.893,244.893,0,0,0-25.816-5.714c-13.607-2.372-27.039-.618-40.256,3.137a58.342,58.342,0,0,0-9.854,3.631,16.7,16.7,0,0,0-9.736,13.9c-.031.292-.089.58-.138.87-1.073,6.332-3.477,7.9-8.97,5.122a37.2,37.2,0,0,1-8.984-6.374,97.593,97.593,0,0,0-30.088-19.712c-3.234-1.378-6.366-3.024-9.526-4.589a79.779,79.779,0,0,1-30.522-26.26c-4.38-6.285-8.639-12.663-12.934-19.013-4.375-6.471-8.669-13-13.1-19.432q-28.02-40.656-73.586-55.693c-14.924-4.953-29.816-10.008-44.725-15.012a87.748,87.748,0,0,0-26.413-4.421c-5.172-.1-10.348-.087-15.521-.019-15.513.2-31.026,1.233-46.535-.135V386.281a57.3,57.3,0,0,0,7.059.772c12.44-.127,24.878-.393,37.317-.608,9.646-.167,19.317-.57,28.839,1.507A113.178,113.178,0,0,1,87.339,391.4c14.76,5,29.459,10.2,44.229,15.163,18.529,6.231,35.921,14.714,51.136,27.7a153.239,153.239,0,0,1,27.429,30.84c6.4,9.458,12.31,19.285,18.607,28.825,5.1,7.724,10.3,15.386,15.739,22.843a56.735,56.735,0,0,0,14.576,13.83c13.513,8.956,28.024,15.178,43.932,17.571,6.1.917,11.988-.112,17.828-1.676,7.985-2.14,15.9-4.57,23.9-6.648a94.83,94.83,0,0,1,44.895-.4c12.436,2.753,24.75,6.123,37.2,8.795,19.861,4.262,39.751,4.162,59.4-1.359a66.142,66.142,0,0,0,16.707-6.921c19-11.681,39.583-19.027,60.459-25.779,13.881-4.49,27.714-9.189,41.388-14.327,24.383-9.162,46.738-22.446,67.779-38.218,11.27-8.448,22.325-17.216,33.685-25.526a233.688,233.688,0,0,1,20.963-13.761,63.192,63.192,0,0,1,13.669-5.363c5.97-1.776,11.7-.393,16.823,3.156,3.258,2.258,6.263,4.925,9.341,7.462,4.18,3.445,8.22,7.088,12.5,10.383,7.928,6.1,16.711,7.7,26.265,5.192a96.4,96.4,0,0,0,20.324-8.145,300.333,300.333,0,0,0,46.62-30.414c14.087-11.125,28.333-21.994,43.165-32.034a346.245,346.245,0,0,1,120.89-51.628c20.1-4.427,39.976-9.79,59.731-15.748a246.4,246.4,0,0,0,91.726-50.727c6.029-5.25,12.06-10.529,18.4-15.348a121.336,121.336,0,0,1,15.99-10.437c9.672-5.184,19.215-4.414,28.044,2.449,3.471,2.7,6.711,5.724,10.057,8.6Z" transform="translate(-0.923 -126.753)"/><path class="c" d="M1234,1947.589c4.019-.438,8.04-.859,12.057-1.316,13.567-1.543,26.583-5.576,39.518-9.879,22.42-7.459,45.041-14.11,68.23-18.314,27.036-4.9,54.205-8.337,81.739-8.185,24.471.135,48.959.052,73.414-.775,19.834-.671,39.652-2.306,59.434-4.047,15.087-1.328,29.875.254,44.619,3.221q47.975,9.653,95.941,19.361a132.929,132.929,0,0,0,30.462,2.728c16.066-.51,32.145-1.228,48.163-2.582a276,276,0,0,1,60.69,1.673,410.111,410.111,0,0,0,45.542,4c27.482.653,54.364-3.389,80.779-11.2.4-.119.817-.19,1.226-.283v16.772c-6.948,1.961-13.913,3.858-20.835,5.917-2.617.778-5.134,1.93-7.7,2.911H1717.354c-1.72-.567-3.416-1.238-5.164-1.686-33.39-8.558-67.15-15.129-101.033-21.1a184.422,184.422,0,0,0-57.155-1.325c-13.986,1.891-28.044,3.235-42.09,4.593-23.642,2.285-47.315,4.077-70.8,8.046-21.922,3.705-43.968,6.6-65.953,9.9-2.595.389-5.154,1.042-7.731,1.573Z" transform="translate(-716.002 -1064.84)"/><path class="c" d="M2,911.174c2.364-.01,4.729-.012,7.093-.03q23.7-.178,47.4-.367c17.34-.163,34.679-.542,52.018-.514,17.248.028,34.269,2.422,51.211,5.828,8.9,1.789,17.991,2.552,27,3.761,14.414,1.936,28.824,3.913,43.248,5.767q17.056,2.192,34.142,4.117c13.359,1.524,26.569,3.6,39.249,8.657,38.923,15.523,53.2,55.229,50.232,85.1a69.115,69.115,0,0,1-15.049,37.2c-4.95,6.139-10.779,11.5-16.253,17.161-2.788,2.885-5.9,5.458-8.458,8.547-4.93,5.959-3.934,11.313,2.575,15.209a29.355,29.355,0,0,0,12.388,3.808c12.215,1.215,23.606-1.776,34.387-7.644,12.683-6.9,22.8-16.888,31.068-29.029,10.521-15.444,16.716-32.83,20.642-51.213,2.541-11.9,4.751-23.877,7.59-35.693a97.823,97.823,0,0,1,5.895-16.454,56.836,56.836,0,0,1,6.319-10.356c6.052-8.286,14.078-10.941,23.8-9.093A464.546,464.546,0,0,1,504.1,957.544c17.211,5.117,34.453,10.12,52.122,13.223,26.362,4.63,52.659,5.225,78.456-3.266,9.7-3.192,19.045-7.634,28.4-11.871,9.624-4.356,19.2-8.874,28.537-13.868a96.135,96.135,0,0,0,16.235-10.826c14.126-11.8,27.748-24.262,41.921-35.994,13.727-11.363,27.634-22.527,41.925-33.086,21.741-16.063,45.807-27.565,70.389-37.9a630,630,0,0,0,62.855-30.277c21.4-11.93,43.685-21.762,67.1-28.542,24.122-6.984,48.523-8.445,73.038-3.047,8.429,1.856,16.672,4.968,24.755,8.185a433.082,433.082,0,0,1,90.695,49.354c4.173,2.96,8.35,5.922,12.61,8.738a372.464,372.464,0,0,1,53.684,43.676c4.5,4.366,9.266,8.438,13.91,12.645v15.889c-9.641-9.164-19.167-18.466-28.947-27.462-20.577-18.928-42.934-35.361-65.95-50.766-15.45-10.341-32.183-17.862-50.394-20.908-8.4-1.4-16.955-1.764-25.442-2.563-6.4-.6-12.832-.952-19.2-1.784a14.186,14.186,0,0,1-12.005-9.156c-6.04-15.249-18.035-20.436-32.458-21.429-13.849-.953-27.295,1.744-40.535,5.684a270.157,270.157,0,0,0-53.273,22.311c-23.453,12.9-47.707,23.8-72.361,33.814-26.706,10.848-52.143,24.217-75.282,42.149a516.657,516.657,0,0,0-41.047,35.686c-10.849,10.407-21.463,21.084-32.274,31.534a149.76,149.76,0,0,1-11.584,10.171,46.116,46.116,0,0,1-9.006,5.574q-17.271,7.984-34.715,15.554c-13.737,6-27.874,10.463-42.732,12.242a156.081,156.081,0,0,1-41.394-.764c-21.686-3.18-42.481-10.109-63.328-16.8-15.364-4.932-30.682-10.042-46.514-13.142-1.922-.377-3.836-.844-5.774-1.077-7.543-.9-13.68,2.072-18.734,7.791-4.453,5.037-7.388,11.027-9.653,17.417-3.24,9.137-4.912,18.679-6.54,28.227-2.542,14.917-5.427,29.733-10.931,43.832-8.031,20.571-19.805,38.168-37.187,51.18-15.412,11.537-32.506,17.494-51.577,16.229-7.881-.523-15.578-2.219-22.528-6.264a39.733,39.733,0,0,1-9.636-7.62c-5.31-5.948-4.72-12.552,1.377-17.552a73.948,73.948,0,0,1,10.019-6.373c5.749-3.335,11.742-6.239,17.333-9.84a62.476,62.476,0,0,0,23.544-26.9c7.291-15.932,7.557-32.391,2.746-49-7.723-26.662-25.006-43.167-50.072-51.14-9.553-3.038-19.387-4.321-29.288-5.163-20.2-1.72-40.4-3.486-60.6-5.074-6.129-.482-12.3-.628-18.445-.6-14.4.071-28.737-.181-43.089-2.224-20.824-2.965-41.833-2.874-62.824-2.481-25.587.479-51.176.805-76.764,1.207a15.748,15.748,0,0,0-1.66.2Z" transform="translate(-0.923 -424.779)"/><path class="c" d="M1260.734,748.11c-8.688-6.424-17.206-13.123-26.1-19.221-26.965-18.5-55.261-34.556-84.022-49.693-11.609-6.11-23.431-11.839-35.429-17.045a88.226,88.226,0,0,0-36.788-7.6,70.927,70.927,0,0,0-20.689,3.156c-22.438,7.234-45.261,13.053-67.706,20.19-30.054,9.556-58.538,23.282-85.976,39.268q-32.849,19.138-66.957,35.573c-19.7,9.531-38.571,20.72-57.307,32.171-18.012,11.008-36.21,21.656-55.572,29.879a142.485,142.485,0,0,1-15,5.6,169.077,169.077,0,0,0-36.348,15.767c-6.5,3.744-12.963,7.546-19.5,11.218a189.781,189.781,0,0,1-70.078,22.736,233.984,233.984,0,0,1-63.972-.881c-17.561-2.615-35.051-5.753-52.591-8.525-8.147-1.288-16.332-2.313-24.512-3.354-7.41-.944-13.181,2.1-17.118,8.636-2.46,4.086-4.58,8.415-6.647,12.743-4.326,9.062-8.413,18.252-12.807,27.277a100.962,100.962,0,0,1-7.075,12.482c-6.876,10.138-12.879,10.553-21.1,1.462-3.362-3.717-6.294-7.872-9.342-11.894-4.269-5.634-8.291-11.484-12.722-16.97-12.927-16.006-29.4-26.673-48.058-33.4-12.394-4.468-25.131-7.947-37.831-11.392a268.532,268.532,0,0,1-53.3-20.9c-18.555-9.605-37.168-19.1-55.909-28.293-14.6-7.162-29.693-13.028-45.676-15.753a152.241,152.241,0,0,0-21.25-2.25c-13.973-.391-27.961-.119-41.941-.3-15.513-.2-31.024-.6-46.537-.9-.96-.018-1.924.142-2.886.219V763.117c12.709.487,25.414,1.191,38.127,1.405,14.959.252,29.924.125,44.886.08,21.331-.064,41.643,5.055,61.021,14.025,12.136,5.617,23.969,12.013,35.7,18.535,16.065,8.932,31.923,18.277,47.832,27.516,16.889,9.808,35.007,16.176,53.542,21.425,13.1,3.709,26.029,7.922,38.358,14a118.405,118.405,0,0,1,40.032,31.42c4.1,5.016,8.347,9.908,12.664,14.721a36.767,36.767,0,0,0,5.739,5.127c5.649,4.108,10.543,3.8,15.514-1.264a38.625,38.625,0,0,0,6.548-8.548c3.983-7.409,7.645-15.019,11.2-22.666,1.9-4.083,3.278-8.433,4.972-12.626.874-2.161,1.834-4.3,2.912-6.351,3.829-7.307,9.8-10.179,17.551-9.044,20.344,2.98,40.67,6.1,61.024,8.994,20.392,2.9,40.868,4.776,61.469,3.661,31.12-1.684,60.779-9.256,88.323-24.983q9.583-5.472,19.028-11.211c15.139-9.148,31.092-15.987,48.255-19.718,14.329-3.116,27.776-8.981,40.794-15.86,10.238-5.41,20.235-11.324,30.392-16.908,17.091-9.4,34-19.195,51.394-27.938,22.977-11.551,45.17-24.608,67.584-37.256,28.139-15.878,57.244-29.427,87.743-39.527,2.931-.971,5.879-1.907,8.861-2.679,12.928-3.346,25.357-8.175,37.692-13.4a176.874,176.874,0,0,1,23.008-8.144c13.486-3.619,26.922-1.93,40.162,2.033a173.071,173.071,0,0,1,31.954,13.227c30.534,16.316,61.09,32.6,91.346,49.472,11.445,6.383,22.092,14.348,33.1,21.592Z" transform="translate(-0.923 -360.583)"/><path class="c" d="M2,1874.466a22.787,22.787,0,0,0,3.3.368c17.183-.523,34.382-.743,51.542-1.721,23.332-1.331,46.657-2.052,69.993-.765,29.45,1.626,58.878,3.713,88.331,5.268,16.05.847,32.13,1.161,48.2,1.433,20,.338,39.988.793,59.834,3.543,32.023,4.437,63.775,10.388,94.95,19.488,10.134,2.958,19.931,6.456,29.187,11.921,13.608,8.034,28.68,11.386,44.03,13.383,5.533.719,11.093,1.215,16.64,1.813H424.1c-4.2-2.305-8.329-4.8-12.635-6.867a124.724,124.724,0,0,0-15.475-6.677A406.766,406.766,0,0,0,272.527,1895.6c-18.456-.1-36.92-.395-55.363-1.1-41.09-1.576-82.163-2.822-123.3-1.624-30.607.892-61.242.716-91.865,1.016Z" transform="translate(-0.923 -1046.447)"/><path class="c" d="M384.655,1976.289H2v-20.3c13,0,26-.031,39.005.01q119.532.379,239.063.79c30.39.106,60.138,5.058,89.375,13.525C374.642,1971.816,379.591,1974.272,384.655,1976.289Z" transform="translate(-0.923 -1093.54)"/><path class="c" d="M1778.908,2c-.586,3.165-1.269,6.314-1.739,9.5-1.538,10.423.537,20.5,3.08,30.444,2.83,11.056,6.279,21.937,9.084,33a78.55,78.55,0,0,1,2.241,15.182c.363,7.066-1.948,10.253-8.214,12.582-9.806,3.645-19.864,6.185-30.317,6.036-15.364-.219-30.727-.682-46.086-1.19-7.4-.244-14.805-.57-22.16-1.356a44.1,44.1,0,0,1-11.742-2.992c-6.274-2.543-9.428-7.806-9.066-14.854A79.929,79.929,0,0,1,1666,75.792c1.169-5.438,2.8-10.767,3.924-16.214a40.647,40.647,0,0,0-5.645-30.726c-1.69-2.7-3.715-5.175-5.28-7.946a69.7,69.7,0,0,1-5.344-10.873C1652.464,6.654,1649.895,4.658,1648,2h50.349c3.829.582,7.644,1.306,11.49,1.715,6.665.708,13.385.954,20.01,1.93a32.852,32.852,0,0,1,9.423,3.418,5.33,5.33,0,0,1,2.343,3.722c.189,1.959-1.51,3.081-3.222,3.491a18.52,18.52,0,0,1-5.371.682c-4.877-.308-9.737-.908-14.607-1.343-6.269-.559-12.555-1.167-18.782.319-8.469,2.021-11.517,6.038-11.3,15.228.125,5.432.694,10.851.943,16.282.29,6.314.352,12.641.688,18.953.466,8.761,4.608,14.911,12.3,18.367a35.247,35.247,0,0,0,3.525,1.405,69.529,69.529,0,0,0,33.972,2.3c16.117-2.813,29.378-22.7,26.63-37.467-.563-3.025-.9-6.1-1.4-9.134-.6-3.62-1.3-7.22-1.889-10.841-1.653-10.137-.934-19.917,4.069-29.027Z" transform="translate(-956.297 -2)"/><path class="c" d="M1521.692,2a65.464,65.464,0,0,1,10.9,10.846c2.047,2.622,5.268,4.275,8.069,6.189,4.215,2.882,8.707,5.348,12.757,8.457,13.241,10.165,16.441,21.939,10.146,37.8-2.2,5.537-5.166,10.738-7.842,16.06-2.22,4.416-4.67,8.708-6.76,13.189a25.836,25.836,0,0,0-.568,20.936,80.609,80.609,0,0,0,10.009,18.8c4.8,6.572,9.17,7.916,16.528,5.073,3.535-1.366,6.959-3.064,10.394-4.7,18.76-8.943,38.392-12.054,58.879-10.272a215.564,215.564,0,0,1,31.424,5.233c10.251,2.447,20.457,3.087,30.629-.383.532-.181,1.073-.331,1.6-.527,8.27-3.084,11.809-7.925,11.613-17.186a55.533,55.533,0,0,0-2.048-14.317c-2.925-9.951-6.539-19.675-9.74-29.539-3.471-10.694-7.065-21.357-10.1-32.191-2.639-9.425-3.163-19.082-.486-28.716A46.39,46.39,0,0,0,1697.915,2h5.874c-.805,3.569-1.646,7.131-2.408,10.71-1.665,7.824-.53,15.513,1.239,23.12,2.9,12.48,7.911,24.144,12.662,35.917,4.037,10,7.941,20.08,11.535,30.268a60.551,60.551,0,0,1,3.274,21.217c-.148,9.4-3.957,16.282-11.877,20.737-10.737,6.038-21.908,7.727-33.635,3.925-3.868-1.254-7.666-2.764-11.444-4.3-12.522-5.08-25.39-7.921-38.9-7.6a70.089,70.089,0,0,0-32.208,8.612,97.412,97.412,0,0,0-24.149,18.871c-3.558,3.746-7,7.615-10.574,11.344a39,39,0,0,1-5.076,4.6c-3.6,2.62-5.964,1.912-7.54-2.313a60.023,60.023,0,0,1-2.016-7.635c-1.923-8.426-3.324-17.025-5.828-25.253a132.475,132.475,0,0,0-8.919-22.305c-6.187-11.938-5.526-22.929,1.825-33.9,3.62-5.4,6.9-11.07,10.166-16.722a44.894,44.894,0,0,0,5.618-14.644,20.942,20.942,0,0,0-5.253-18.66,33.447,33.447,0,0,0-12.522-8.668c-6.393-2.545-12.944-4.654-19.42-6.969-3.3-1.182-6.636-2.3-9.877-3.648a7.7,7.7,0,0,1-5.01-5.534c-.591-2.79-2.328-4.575-4.327-6.278C1497.339,5.365,1495.7,3.638,1494,2Z" transform="translate(-866.912 -2)"/><path class="c" d="M2257.748,2a38.785,38.785,0,0,0,3.914,3.011c12.8,7.53,25.713,14.847,38.406,22.566A111.374,111.374,0,0,1,2313.7,37.8a37.453,37.453,0,0,1,6.5,7.415,10.418,10.418,0,0,1-.136,12.7c-1.913,2.706-4.171,5.138-6.192,7.763a82.874,82.874,0,0,0-6.383,8.712c-6.652,11.478-4.355,23.891,5.8,32.108a37.345,37.345,0,0,0,23.014,8.378c29.339.728,53.341-10.616,69.792-36.646A102.86,102.86,0,0,1,2437,46.534q16.7-10.979,32.911-22.785a49.948,49.948,0,0,1,32.8-9.764,224.953,224.953,0,0,1,57.729,9.947c.934.291,1.84.678,2.759,1.02V32.9a172.988,172.988,0,0,0-38.64-9.676,179.194,179.194,0,0,0-17.944-1.563,36.911,36.911,0,0,0-21.65,5.81c-15.194,9.725-29.79,20.38-42.6,33.421a116.437,116.437,0,0,0-12.946,16.163c-17.5,25.731-41.636,40.413-70.481,47.168-13.368,3.13-26.882,3.648-40.245-.437a46.829,46.829,0,0,1-21.154-12.931c-10.664-11.5-14.155-25.034-9.992-40.553a128.263,128.263,0,0,1,4.285-12.9c3.835-9.938,1.9-18.547-5.463-25.653A139.5,139.5,0,0,0,2271.414,19c-6.785-4.9-14-9.138-21.009-13.707-1.528-1-2.939-2.189-4.4-3.291Z" transform="translate(-1303.389 -2)"/><path class="c" d="M54.867,2c-.986,1.369-.3,2.218.9,2.674,2.49.947,4.988,1.91,7.545,2.618,14.6,4.045,29.194,8.259,42.484,16,10.132,5.9,19.968,12.382,29.763,18.894,12.161,8.085,24.033,16.656,36.243,24.656A144.674,144.674,0,0,0,199.3,80.81c14.287,5.488,28.448,5.475,42.522-.632,9.683-4.2,19.32-8.523,28.948-12.863,23.95-10.8,48.922-18.319,73.986-25.522C375.347,33,406.334,25.966,437.286,18.785a90.563,90.563,0,0,0,8.883-2.542,25.538,25.538,0,0,0,4.154-2.421c-4-5.744-10.08-7.665-14.479-11.822h31.888c1.08.9,2.113,1.863,3.248,2.673,3.239,2.312,6.573,4.481,9.752,6.878,1.124.847,1.91,2.19,3.38,3.936-2.886,1.274-4.95,2.5-7.166,3.106-7.163,1.959-14.369,3.759-21.584,5.5-36.492,8.8-73.02,17.441-109.054,28.2-24.89,7.435-49.542,15.549-72.9,27.489-9.426,4.818-18.884,9.58-28.46,14.053-16.022,7.486-32.146,6.947-47.924-.685a150.066,150.066,0,0,1-20.5-11.946c-9.777-6.823-19.094-14.372-28.639-21.567-11.927-8.991-23.482-18.617-35.912-26.763C81.462,12.885,48.243,6.076,12.7,12.461c-3.566.641-7.136,1.265-10.7,1.9V10.827a19.156,19.156,0,0,0,3.271-.256q8.077-2.008,16.117-4.18c2.138-.579,4.244-1.306,6.329-2.074.96-.353,1.71-1.031,1.136-2.318Z" transform="translate(-0.923 -2)"/><path class="c" d="M2,164.376a19.4,19.4,0,0,0,3.271-.519,76.707,76.707,0,0,1,40.166-2.275c12.9,2.581,25.9,4.59,38.8,7.155a103.857,103.857,0,0,1,35.4,14.39c5.629,3.559,11.269,7.107,17.007,10.466a45.726,45.726,0,0,0,8.41,3.922c6,2.023,8.65-.452,7.645-6.92a36.5,36.5,0,0,0-1.345-6c-9.771-29.074-22.694-56.319-42.728-79.224C96.116,91.063,81.036,81.1,62.613,77.379a100.909,100.909,0,0,0-34.218-.793C19.55,77.829,10.795,79.768,2,81.4V75.219c5.11-.738,10.214-1.533,15.333-2.2,13.781-1.8,27.582-2.344,41.364-.1C78.32,76.1,94.725,85.868,108.78,100.345c13,13.392,23.194,28.993,32.1,45.56,10.537,19.594,19.541,39.992,28.158,60.578a42.359,42.359,0,0,1,2.576,8.357c.641,3.369-.728,4.819-3.966,4.156a29.838,29.838,0,0,1-7.914-2.769c-5.61-2.973-11.089-6.224-16.559-9.481q-4.739-2.822-9.276-6.018c-15.924-11.191-33.455-18.031-52.149-22.081q-18.039-3.908-35.833-9.038c-13.391-3.843-26.477-3.751-39.5,1.4-1.427.565-2.944.878-4.419,1.309Z" transform="translate(-0.923 -40.792)"/><path class="c" d="M453.889,2c1.208.7,2.449,1.339,3.615,2.106,1.134.746,2.192,1.621,3.21,2.384-.866,2.923-3.025,3.593-4.938,4.234-6.113,2.046-12.288,3.887-18.451,5.766Q411.2,24.456,385.058,32.4a135.381,135.381,0,0,1-25.764,5.723,72.438,72.438,0,0,1-38.845-6.72c-14.881-7.038-29.426-14.867-44.049-22.5-2.546-1.329-5.456-2.855-4.608-6.906h18.461c-1.07,1.9-.432,3.426,1.077,4.583a24.236,24.236,0,0,0,4.6,3.029c9.224,4.152,18.373,8.537,27.787,12.155a68.59,68.59,0,0,0,32.194,3.865c16.8-1.793,32.678-7.331,48.279-13.843a13.3,13.3,0,0,0,2.886-1.758c1.544-1.184,1.689-2.625.329-4.086C406.148,4.6,404.83,3.312,403.54,2Z" transform="translate(-157.429 -2)"/><path class="c" d="M2509.58,2c-7.873,5.008-15.725,10.052-23.623,15.016-14.166,8.9-29.61,13.509-45.955,15.2-19,1.963-37.25-1.946-55.276-7.6-17.68-5.549-34.767-12.793-51.694-20.461A19.277,19.277,0,0,1,2330,2h21.818a22.218,22.218,0,0,0,3.826,2.238c15.952,5.493,32.172,9.847,48.918,11.528,16.554,1.662,32.935.626,48.824-5.033,5.937-2.115,11.734-4.625,16.754-8.733Z" transform="translate(-1352.145 -2)"/><path class="c" d="M225.117,2a4.7,4.7,0,0,0,2.326,5.18c1.538,1.008,3.11,1.968,4.715,2.853C246.494,17.944,260.8,25.909,275.2,33.692c5.952,3.217,12.032,6.2,18.175,8.994,18.912,8.607,38.31,9.949,58.1,3.776,12.441-3.88,24.75-8.275,37.3-11.732,27.668-7.624,55.447-14.8,83.18-22.163,2.435-.646,4.9-1.2,7.286-2.01a35.147,35.147,0,0,0,4.4-2.191C482.774,4.617,479.269,4.338,477.7,2H500.36c1.667,1.306,3.377,2.556,4.985,3.938,1.227,1.054,2.324,2.275,3.568,3.51-1.776,2.276-3.828,2.767-5.842,3.267-12.23,3.04-24.495,5.929-36.694,9.1-34.715,9.016-69.276,18.6-103.106,30.911-11.814,4.3-23.947,7.06-36.615,5.744a87.716,87.716,0,0,1-29.77-8.572c-10.109-4.969-20.048-10.376-29.788-16.108C252.952,25.461,238.842,17.1,224.032,10.12a60.543,60.543,0,0,1-5.9-3.335A4.393,4.393,0,0,1,215.886,2Z" transform="translate(-125.019 -2)"/><path class="c" d="M1842,1985.915c5.153-1.14,10.266-2.584,15.467-3.365,19.885-2.988,39.776-5.958,59.712-8.537,10.692-1.383,21.462-.834,32.17.487a527.862,527.862,0,0,1,59.823,10.524,19.389,19.389,0,0,1,2.337.891Z" transform="translate(-1068.899 -1103.166)"/><path class="c" d="M425.02,2c.963,1.051,1.967,2.065,2.88,3.162,1.76,2.115,1.655,3.462-.608,5.042a22.264,22.264,0,0,1-4.494,2.34c-25.079,10.018-49.561,8.06-73.505-4.162a23.3,23.3,0,0,1-2.859-1.831A3.214,3.214,0,0,1,345.3,2h13.426a3.9,3.9,0,0,0,2.391,4.875c.764.35,1.5.767,2.284,1.071a67.851,67.851,0,0,0,35.259,4.083,36.314,36.314,0,0,0,8.43-2.318c3.438-1.425,3.595-3.027,1.057-5.77-.565-.611-1.062-1.292-1.589-1.941Z" transform="translate(-199.888 -2)"/><path class="c" d="M2964.853,8.179c-8.209-1.7-16.42-3.391-24.621-5.135A10.822,10.822,0,0,1,2938,2h26.853Z" transform="translate(-1705.041 -2)"/><path class="c" d="M824.818,559.059a30.052,30.052,0,0,1-4.041,1.814c-7.207,2.063-14.605,2.527-22.025,2.591-28.641.244-56.128-5.408-82.229-18-13.591-6.558-27.137-13.217-40.735-19.757-13.912-6.692-28.254-11.991-43.518-14.012-4.986-.66-10.019-1.052-15.042-1.251a53.255,53.255,0,0,1-25.495-7.834c-12.229-7.287-23.212-16.383-33.726-26.1a144.609,144.609,0,0,1-12.4-13.123,37.484,37.484,0,0,1-5.347-8.9c-2.674-6.027-1.956-11.929,2.414-16.777a66.889,66.889,0,0,1,10.136-9.163c9.471-6.921,20.213-10.626,31.512-12.49,9.4-1.55,18.829-2.514,28.384-1.266a28.648,28.648,0,0,1,20.326,11.837,146.426,146.426,0,0,1,8.647,13.527c5.846,10.207,11.493,20.558,18.825,29.7C692.149,509.3,731.28,536.1,779.519,547.286c13.094,3.037,26.3,5.548,39.435,8.377a54.328,54.328,0,0,1,5.806,1.928Q824.789,558.325,824.818,559.059Zm-129.283-38.2.6-1.187a30.243,30.243,0,0,0-2.513-3.839c-3.052-3.433-6.128-6.856-9.365-10.093-17.815-17.812-33.581-37.346-46.075-59.711a114.489,114.489,0,0,0-8.136-12.283c-5.1-6.874-11.766-11.3-20.057-12.461a69.758,69.758,0,0,0-45.7,9.011,44.221,44.221,0,0,0-10.435,8.7c-5.365,5.965-5.854,12.306-1.82,19.381a46.932,46.932,0,0,0,6.668,9,133.472,133.472,0,0,0,34.979,26.264,56.686,56.686,0,0,0,23.78,6.307A155.25,155.25,0,0,1,635.769,502c14.406,2.491,28.087,7.607,41.6,13.268,4.534,1.9,9.178,3.522,13.823,5.1A19.709,19.709,0,0,0,695.536,520.854Z" transform="translate(-312.433 -232.275)"/><path class="c" d="M2121.267,79.89c-.321,2.914-.8,7.733-1.413,12.533a18.071,18.071,0,0,1-1.175,4.222c-2.028,5.181-5.505,6.858-10.437,4.744a29.787,29.787,0,0,1-6.9-4.117A91.652,91.652,0,0,1,2075.636,64.6a34.231,34.231,0,0,1-3.718-15.234c.116-7.376,3.794-12.877,10.4-15.489,5.953-2.353,11.829-1.765,17.58.7,8.512,3.643,14.118,10.284,17.522,19.149C2120.414,61.509,2120.934,69.709,2121.267,79.89ZM2101.827,63.6c-.492-5.558-2.224-10.377-7.242-13.025-4.6-2.428-8.724.359-8.315,5.711a15.975,15.975,0,0,0,8.5,13.228c3.156,1.778,5.714.348,6.655-3.339C2101.637,65.335,2101.7,64.45,2101.827,63.6Z" transform="translate(-1202.347 -18.975)"/><path class="c" d="M35.473,142.939c-6,0-12.005.049-18.007-.03a22.636,22.636,0,0,1-5.384-.654c-3.7-.965-4.5-3.079-2.293-6.457a24.207,24.207,0,0,1,4.538-5.131c9.232-7.858,19.91-12.3,31.549-14.31,13.228-2.282,25.9-.722,37.635,6.5a52.2,52.2,0,0,1,18.871,19.6,24.578,24.578,0,0,1,2.585,7.347c.527,2.96-.7,4.24-3.512,3.874a39.176,39.176,0,0,1-6.868-1.848c-7.195-2.329-14.278-5.12-21.575-7-10.236-2.637-20.761-2.623-31.25-2.478-2.1.029-4.192,0-6.287,0Q35.473,142.644,35.473,142.939Z" transform="translate(-4.736 -65.339)"/><path class="c" d="M2109.808,1166.1c-.243,21.951-7.509,40.571-24.472,54-13.686,10.838-29.144,14.81-45.916,9.935-14.407-4.188-24.324-13.587-27.417-29.532-1.577-8.13-.327-16.089,2.533-23.781a72.34,72.34,0,0,1,14.348-23.121,124.924,124.924,0,0,1,37-28.494,60.019,60.019,0,0,1,12.6-4.684c9.9-2.428,17.188.842,22.628,9.857,5.686,9.426,7.936,19.984,8.686,30.969C2109.9,1162.863,2109.808,1164.485,2109.808,1166.1Zm-57.644,52.038c17.779.047,32.5-11.524,36.614-27.621a38.1,38.1,0,0,0,1.082-12.614c-1.254-13.762-10.732-21.247-23.712-18.765-13.1,2.507-23.645,9.656-31.254,21.16a33.768,33.768,0,0,0-4.4,10.389,21.105,21.105,0,0,0,10.041,23.919A25,25,0,0,0,2052.164,1218.14Z" transform="translate(-1167.172 -626.349)"/><path class="c" d="M1053.078,211c5.624.418,10.915.8,16.2,1.22a12.388,12.388,0,0,1,2.46.524c5.431,1.592,6.983,4.384,5.553,10.2-.559,2.274-1.393,4.47-2.015,6.728-2.049,7.436-.481,11.862,6.163,15.257a93.6,93.6,0,0,0,13.72,5.341c6.8,2.213,13.743,3.958,20.543,6.178a66.278,66.278,0,0,1,10.469,4.457c12.043,6.393,18.151,16.991,19.179,30.964.974,13.243-1.993,25.695-7.21,37.624-8.444,19.312-21.546,34.572-37.595,47.168a148.8,148.8,0,0,1-73.925,30.915c-34.041,4.448-66.913-.5-98.434-14.5-20.669-9.178-38.49-22.667-52.226-41.627a84.591,84.591,0,0,1-10.5-19.02c-5.507-14.174-5.648-28.336.273-42.406,1.922-4.567,4.039-9.051,6.239-13.478,3.513-7.069,4.849-14.3,2.481-22.122-2.065-6.827.176-12.324,5.836-15.9a90.682,90.682,0,0,1,14.588-7.624c13.779-5.509,28.2-8.423,42.744-10.6,18.964-2.84,38.044-4.431,57.156-5.639C1014.311,213.427,1033.839,212.21,1053.078,211Zm-46.262,194.69c5.294-.568,14.653-1.151,23.879-2.641a143.049,143.049,0,0,0,70.625-32.458c14.959-12.623,27.035-27.658,34.109-46.681,3.4-9.131,5.395-18.555,4.711-28.434-.957-13.814-7.208-23.875-19.347-29.585a44.737,44.737,0,0,0-8.646-3.307c-9.4-2.2-18.869-4.081-28.3-6.162-8.879-1.96-17.795-3.783-26.587-6.111a27.223,27.223,0,0,1-16.694-12.5,16.659,16.659,0,0,0-11.154-7.984,105.164,105.164,0,0,0-16.163-2.293,291.374,291.374,0,0,0-65.517,5.2,104.274,104.274,0,0,0-23.784,6.959c-5.62,2.531-10.846,5.793-14.139,11.338-5.633,9.486-13.038,17.2-20.844,24.626A86.071,86.071,0,0,0,874.5,292.755,42.936,42.936,0,0,0,869,326.481c2.62,10.947,7.962,20.346,14.772,28.876a117.537,117.537,0,0,0,37.956,30.752C947.218,399.464,974.443,405.061,1006.816,405.694Z" transform="translate(-499.69 -118.755)"/><path class="c" d="M656.51,503.878c-20.007,2.272-35.028-5.5-48.518-17.372a40.557,40.557,0,0,1-7.758-9.71c-3.062-5.156-2.44-10.514,1.387-15.077a28.055,28.055,0,0,1,6.659-5.949c9.6-5.849,19.959-8.268,31.016-6.418,7.956,1.331,14.351,5.656,19.317,12.2a120.331,120.331,0,0,1,16.244,30.207c.156.409.305.823.423,1.245,1.821,6.572.226,9.207-6.3,10.4a17.917,17.917,0,0,1-2.9.454C662.315,503.91,658.542,503.878,656.51,503.878Zm-20.017-19.416c3.6-.31,7.108-.993,8.87-4.789,1.727-3.72.518-7.178-1.623-10.32a15.388,15.388,0,0,0-19.877-5.043c-5.426,2.932-6.428,8.307-2.28,13.037C625.571,481.895,630.706,483.974,636.493,484.463Z" transform="translate(-347.022 -251.562)"/><path class="c" d="M1045.026,333.3c18.7,1.034,37.409,1.89,56.093,3.175,10.024.689,20.069,1.772,29.713,5.038a56.01,56.01,0,0,1,10.02,4.4c9.08,5.239,13.687,13.559,14.209,24.371.534,11.078-2.711,21.179-7.641,30.745-6.978,13.541-16.783,24.541-28.3,33.9a138,138,0,0,1-66.006,29.5c-33.607,5.469-65.99.834-97.075-13.5-14.5-6.689-27.348-15.992-37.631-28.848-5.644-7.056-9.983-14.86-11.844-24.018a33.135,33.135,0,0,1,6.745-28.428,55.346,55.346,0,0,1,15.614-13.176c12.654-7.486,26.332-12.093,40.331-15.778,22.954-6.042,46.32-7.645,69.88-7.142,1.956.042,3.914.006,5.871.006C1045.014,333.462,1045.02,333.384,1045.026,333.3ZM1057.7,338.7l-31.463.932a277.825,277.825,0,0,0-56.071,7.255c-12.572,2.981-24.86,6.885-36.331,13.233a55.622,55.622,0,0,0-14.818,11.42c-8.246,9.21-10.306,19.911-6.752,31.85,2.562,8.61,7.438,15.758,13.324,22.176A99.2,99.2,0,0,0,956.841,448.2c30.113,14.2,61.577,18.483,94.186,13.563a134.4,134.4,0,0,0,60.311-24.879c12.283-9.016,22.87-19.8,30.642-33.406,4.514-7.9,7.757-16.314,8.522-25.577.989-11.991-2.75-21.776-12.9-28.033a52.691,52.691,0,0,0-10.764-4.8c-7.888-2.674-16.1-3.741-24.331-4.226C1086.606,339.907,1070.684,339.3,1057.7,338.7Z" transform="translate(-525.497 -187.075)"/><path class="c" d="M1084.583,361.5c10.843.592,23.825,1.159,36.785,2.065a71.662,71.662,0,0,1,20.473,4.365c15.989,6.056,22.172,18.69,17.584,35.922-3.18,11.941-9.723,21.758-17.835,30.468-16.37,17.576-36.318,28.639-58.747,34.96a138.048,138.048,0,0,1-41.055,5.209c-24.031-.606-47.13-5.654-68.637-17.4-10.011-5.467-19.066-12.274-26.273-21.544a45.736,45.736,0,0,1-7.731-14.041c-3.4-10.538-1.684-19.983,5.481-28.241,4.7-5.417,10.514-9.174,16.751-12.27,11.069-5.5,22.8-8.765,34.739-11.3a317.436,317.436,0,0,1,49.867-6.386C1058.128,362.689,1070.274,362.164,1084.583,361.5Zm-4.545,8.665c-5.92.264-15.416.645-24.907,1.12a338.812,338.812,0,0,0-51.974,6.441c-11.257,2.334-22.33,5.39-32.774,10.551a49.8,49.8,0,0,0-13.6,9.415c-8.111,8.188-9.73,18.447-4.579,28.952a45.628,45.628,0,0,0,9.228,12.473c8.2,8.047,17.818,13.687,28.19,17.9a139.5,139.5,0,0,0,63.7,9.979c19.811-1.475,38.517-6.783,55.908-16.931,11.985-6.994,22.584-15.765,30.8-27.454a50.366,50.366,0,0,0,8.7-19.384c2.057-10.534-1.5-19.548-10.521-24.592a55.888,55.888,0,0,0-14.112-5.333C1110.785,370.092,1097.178,370.323,1080.038,370.163Z" transform="translate(-543.888 -202.825)"/><path class="c" d="M1102.285,390.917c11.845.74,23.711,1.234,35.525,2.337,4.953.463,9.828,2.1,14.678,3.441a24.648,24.648,0,0,1,5.737,2.653c8.846,5.19,12.145,13.556,9.55,23.9a44.107,44.107,0,0,1-6.633,14.16c-6.725,9.851-15.452,17.36-25.276,23.5A118.205,118.205,0,0,1,1086.09,478.1c-21.291,2.452-42.114.369-62.351-7.215a86.2,86.2,0,0,1-24.013-13.3,45.787,45.787,0,0,1-11.4-12.8c-5.712-9.932-4.49-19.549,3.513-27.523,4.534-4.518,9.955-7.539,15.656-10.06,11.934-5.277,24.491-8.135,37.186-10.317C1063.735,393.6,1082.968,392.248,1102.285,390.917Zm-32.574,84.041c5.566-.455,11.154-.713,16.693-1.4a110.924,110.924,0,0,0,45.747-16.089,76.539,76.539,0,0,0,20.7-18.409,39.6,39.6,0,0,0,7.4-14.69c2.05-8.472-.451-15.663-7.562-20.113a46.173,46.173,0,0,0-10.756-4.754c-8.222-2.557-16.758-3.325-25.276-3.45-9.771-.143-19.557.13-29.325.525a284.892,284.892,0,0,0-49.845,6.366c-9.584,2.111-19,4.856-27.846,9.408-4.806,2.472-9.3,5.417-12.788,9.783-4.92,6.161-5.615,12.917-2.334,20.132a28.023,28.023,0,0,0,8.394,10.853,104.166,104.166,0,0,0,14.786,9.918C1034.051,471.5,1051.578,474.658,1069.71,474.958Z" transform="translate(-571.351 -219.259)"/><path class="c" d="M1146.372,437.43c7.193-.094,14.764.077,22.111,2.129a36.515,36.515,0,0,1,9.644,4.108c5.358,3.387,6.494,8.591,3.7,14.467a27.846,27.846,0,0,1-7.955,9.539c-7.76,6.324-16.606,10.2-26.056,12.7-16.047,4.245-32.072,4.409-48.049-.366a42.141,42.141,0,0,1-14.692-7.328c-8.712-7.025-8.552-15.34.519-21.794,7.437-5.292,15.96-7.706,24.6-9.616A161.7,161.7,0,0,1,1146.372,437.43ZM1138,446.691c-8.217.512-16.258,1.476-23.972,4.257a36.916,36.916,0,0,0-9.659,5.054c-4.311,3.251-4.245,7.788.2,10.777a30.364,30.364,0,0,0,9.954,4.3,53.215,53.215,0,0,0,31.307-2.334,43.052,43.052,0,0,0,8.912-4.759c2.941-2.01,5.872-4.576,5.118-8.843-.717-4.049-4.155-5.429-7.448-6.151C1147.659,447.951,1142.805,447.433,1138,446.691Z" transform="translate(-625.842 -245.231)"/></g></g></svg>