<svg xmlns="http://www.w3.org/2000/svg" width="37.663" height="51.352" viewBox="0 0 37.663 51.352"><defs><style>.a{fill:#FFFFFF;}</style></defs><g transform="translate(-0.054 -0.001)"><path class="a" d="M3.988,30.353A154.4,154.4,0,0,0,16.868,50.327a2.509,2.509,0,0,0,4.047,0A153.452,153.452,0,0,0,33.819,30.3c.01-.016.014-.035.023-.051a18.786,18.786,0,0,0,2.565-18.318A18.831,18.831,0,1,0,3.988,30.352ZM19.546,49.3a.814.814,0,0,1-1.311,0A172.733,172.733,0,0,1,8.122,34.293a18.754,18.754,0,0,0,21.563-.036A172.773,172.773,0,0,1,19.547,49.3ZM18.891,1.723A17.118,17.118,0,0,1,34.66,25.5a17.325,17.325,0,0,1-9.1,9.1A17.142,17.142,0,0,1,2.547,23.934a17.321,17.321,0,0,1-.77-5.1A17.134,17.134,0,0,1,18.891,1.723Zm0,0" transform="translate(0 0)"/><path class="a" d="M180.556,384.22a.854.854,0,0,0-.65,0,.8.8,0,0,0-.282.179.885.885,0,0,0-.18.282.861.861,0,0,0-.069.325,1.32,1.32,0,0,0,.017.171.546.546,0,0,0,.051.154.648.648,0,0,0,.077.154,1.277,1.277,0,0,0,.1.128.868.868,0,0,0,1.215,0,1.273,1.273,0,0,0,.1-.128.649.649,0,0,0,.077-.154.545.545,0,0,0,.051-.154,1.315,1.315,0,0,0,.017-.171.9.9,0,0,0-.248-.608A.8.8,0,0,0,180.556,384.22Zm0,0" transform="translate(-161.339 -345.633)"/><path class="a" d="M180.231,418.246a.856.856,0,0,0-.856.855v2.567a.856.856,0,1,0,1.712,0V419.1A.856.856,0,0,0,180.231,418.246Zm0,0" transform="translate(-161.34 -376.305)"/><path class="a" d="M146.954,110.214h5.134A1.711,1.711,0,0,0,153.8,108.5v-4.279a1.711,1.711,0,0,0-1.711-1.711h-5.134a1.711,1.711,0,0,0-1.711,1.711V108.5A1.711,1.711,0,0,0,146.954,110.214Zm0-5.99h5.134V108.5h-5.134Zm0,0" transform="translate(-130.63 -92.232)"/><path class="a" d="M94.9,92.339h17.114a.856.856,0,1,0,0-1.711h-.855V89.564c.049-.016.1-.027.15-.042,1.644-.506,3.894-1.2,5.134-3,.793-1.156,1.317-3.15-.693-6.093-.358-.524-.735-1.027-1.112-1.54a27.468,27.468,0,0,1-1.58-2.267,18.483,18.483,0,0,1-1.9-4.1V71.8a3.423,3.423,0,0,0-3.423-3.423H99.177A3.423,3.423,0,0,0,95.754,71.8V90.627H94.9a.856.856,0,1,0,0,1.711Zm16.686-14.832c.514.851,1.1,1.641,1.673,2.406.364.488.729.977,1.072,1.479,1.176,1.721,1.409,3.12.7,4.161-.829,1.208-2.458,1.782-3.868,2.225V76.754c.139.25.275.5.428.753ZM99.177,70.091h8.557a1.711,1.711,0,0,1,1.711,1.711v9.413H97.465V71.8a1.711,1.711,0,0,1,1.711-1.711ZM97.465,82.926h11.98v7.7H97.465Zm0,0" transform="translate(-84.564 -61.522)"/></g></svg>