<svg xmlns="http://www.w3.org/2000/svg" width="35.845" height="51.179" viewBox="0 0 35.845 51.179"><defs><style>.a{fill:#FFFFFF;}</style></defs><path class="a" d="M27.1,12a6.543,6.543,0,1,0,6.543,6.543A6.551,6.551,0,0,0,27.1,12Zm0,11.216a4.673,4.673,0,1,1,4.673-4.673A4.679,4.679,0,0,1,27.1,23.216Z" transform="translate(-9.01 -0.784)"/><path class="a" d="M38.8,5.25a17.923,17.923,0,0,0-25.348,0C7.188,11.514,6.409,23.3,11.767,30.441l14.36,20.738L40.465,30.47C45.844,23.3,45.066,11.514,38.8,5.25Zm.149,24.127L26.127,47.894,13.284,29.348C8.424,22.869,9.121,12.225,14.775,6.572a16.053,16.053,0,0,1,22.7,0C43.134,12.225,43.83,22.869,38.949,29.377Z" transform="translate(-8.203 0)"/></svg>