<svg xmlns="http://www.w3.org/2000/svg" width="17.998" height="23.997" viewBox="0 0 17.998 23.997"><defs><style>.a{fill:#fff;}</style></defs><g transform="translate(-64)"><g transform="translate(75.999)"><path class="a" d="M320,0V6h6Z" transform="translate(-320)"/></g><g transform="translate(64)"><path class="a" d="M76,7.5A1.5,1.5,0,0,1,74.5,6V0h-9A1.5,1.5,0,0,0,64,1.5v21A1.5,1.5,0,0,0,65.5,24h15A1.5,1.5,0,0,0,82,22.5V7.5ZM70,21H67V16.5h3Zm4.5,0h-3V13.5h3ZM79,21H76V10.5h3Z" transform="translate(-64)"/></g></g></svg>