<svg xmlns="http://www.w3.org/2000/svg" width="64" height="64" viewBox="0 0 64 64"><defs><style>.a{fill:#fff;}</style></defs><path class="a" d="M32,0A32,32,0,1,0,64,32,32,32,0,0,0,32,0Zm0,60A28,28,0,1,1,60,32,28,28,0,0,1,32,60Z"/><path class="a" d="M151.42,100.64l-2.84,2.84,4.6,4.58H132a4,4,0,0,0-4,4v6h4v-6h21.18l-4.58,4.58,2.82,2.82,8-8a2,2,0,0,0,0-2.82Z" transform="translate(-112 -88.06)"/><path class="a" d="M155.989,268.2h-21.18l4.58-4.58-2.82-2.82-8,8a2,2,0,0,0,0,2.82l8,8,2.82-2.82-4.58-4.6h21.18a4,4,0,0,0,4-4v-6h-4Z" transform="translate(-111.989 -228.2)"/></svg>