<svg xmlns="http://www.w3.org/2000/svg" width="464.953" height="125.002" viewBox="0 0 464.953 125.002">
  <path id="Subtraction_7" data-name="Subtraction 7" d="M19217.5-4121a342.207,342.207,0,0,1-80.717-9.463,303.329,303.329,0,0,1-36.236-11.21,267.308,267.308,0,0,1-32.674-14.979,227.285,227.285,0,0,1-28.5-18.334,187.521,187.521,0,0,1-23.715-21.278c-14.344-15.356-24.65-32.09-30.635-49.736h464.953c-5.986,17.648-16.293,34.381-30.635,49.736a187.521,187.521,0,0,1-23.715,21.278,227.225,227.225,0,0,1-28.5,18.334,267.294,267.294,0,0,1-32.674,14.979,303.55,303.55,0,0,1-36.236,11.21A342.248,342.248,0,0,1,19217.5-4121Z" transform="translate(-18985.023 4246.002)" fill="#2c1051"/>
</svg>
