<svg xmlns="http://www.w3.org/2000/svg" width="67" height="67" viewBox="0 0 67 67"><defs><style>.a{fill:#FFFFFF;stroke:#FFFFFF;}</style></defs><g transform="translate(0.5 0.5)"><path class="a" d="M56.144,41.72A29.464,29.464,0,0,0,42.821,9.868a1.138,1.138,0,0,0-1.194,1.938A27.2,27.2,0,0,1,53.991,40.933a7.977,7.977,0,1,0,2.153.787Zm-3.777,12.7a5.69,5.69,0,1,1,5.69-5.69A5.7,5.7,0,0,1,52.367,54.421Z" transform="translate(5.667 1.338)"/><path class="a" d="M43.436,56.552a27.3,27.3,0,0,1-29.8-6,7.964,7.964,0,1,0-1.823,1.385,29.557,29.557,0,0,0,32.494,6.718,1.137,1.137,0,1,0-.871-2.1ZM2.276,44.966a5.69,5.69,0,1,1,5.69,5.69A5.7,5.7,0,0,1,2.276,44.966Z" transform="translate(0 5.103)"/><path class="a" d="M4.128,35.518c.027,0,.055,0,.081,0a1.138,1.138,0,0,0,1.135-1.058,27.171,27.171,0,0,1,19.6-24.254,7.954,7.954,0,1,0-.327-2.272A29.44,29.44,0,0,0,3.073,34.3,1.137,1.137,0,0,0,4.128,35.518ZM32.576,2.276a5.69,5.69,0,1,1-5.69,5.69A5.7,5.7,0,0,1,32.576,2.276Z" transform="translate(0.424)"/></g></svg>