<svg xmlns="http://www.w3.org/2000/svg" width="45.629" height="45.629" viewBox="0 0 45.629 45.629"><defs><style>.a{fill:#cfd2fc;}.b{fill:#8690fa;}.c{fill:#5153ff;}</style></defs><path class="a" d="M84.5,66.252A18.252,18.252,0,1,1,66.252,48,18.252,18.252,0,0,1,84.5,66.252Zm0,0" transform="translate(-43.437 -43.437)"/><path class="b" d="M22.814,45.629A22.814,22.814,0,1,1,45.629,22.814,22.815,22.815,0,0,1,22.814,45.629Zm0-44.108A21.293,21.293,0,1,0,44.108,22.814,21.294,21.294,0,0,0,22.814,1.521Zm0,0"/><g transform="translate(11.407 13.698)"><path class="c" d="M312.761,292.652a.76.76,0,0,1-.538-1.3l3.042-3.042a.761.761,0,0,1,1.075,1.075l-3.042,3.042A.76.76,0,0,1,312.761,292.652Zm0,0" transform="translate(-293.749 -274.41)"/><path class="c" d="M315.891,260.652a.761.761,0,0,1-.538-.223l-3.042-3.042a.761.761,0,0,1,1.075-1.075l3.042,3.042a.76.76,0,0,1-.538,1.3Zm0,0" transform="translate(-293.837 -245.452)"/><path class="c" d="M142.054,188.168H135.97c-3.892,0-5.418-3.052-6.765-5.744-1.315-2.631-2.451-4.9-5.4-4.9H120.76a.76.76,0,1,1,0-1.521H123.8c3.892,0,5.418,3.052,6.768,5.744,1.311,2.631,2.447,4.9,5.4,4.9h6.084a.76.76,0,0,1,0,1.521Zm0,0" transform="translate(-120 -172.967)"/><path class="c" d="M315.891,148.652a.761.761,0,0,1-.538-.223l-3.042-3.042a.761.761,0,0,1,1.075-1.075l3.042,3.042a.76.76,0,0,1-.538,1.3Zm0,0" transform="translate(-293.837 -144.098)"/><path class="c" d="M312.761,180.652a.76.76,0,0,1-.538-1.3l3.042-3.042a.761.761,0,0,1,1.075,1.075l-3.042,3.042A.761.761,0,0,1,312.761,180.652Zm0,0" transform="translate(-293.749 -173.056)"/><path class="c" d="M123.8,188.168H120.76a.76.76,0,1,1,0-1.521H123.8c2.952,0,4.088-2.271,5.4-4.9,1.346-2.692,2.872-5.744,6.765-5.744h6.084a.76.76,0,1,1,0,1.521H135.97c-2.952,0-4.088,2.271-5.4,4.9C129.221,185.116,127.695,188.168,123.8,188.168Zm0,0" transform="translate(-120 -172.967)"/></g></svg>