<svg xmlns="http://www.w3.org/2000/svg" width="29.868" height="29.867" viewBox="0 0 29.868 29.867"><defs><style>.a{fill:#a5a5a5;}</style></defs><g transform="translate(0 -0.008)"><path class="a" d="M290.088,209.875H278.265a.933.933,0,0,1,0-1.867h11.822a.933.933,0,0,1,0,1.867Zm0,0" transform="translate(-261.155 -195.867)"/><path class="a" d="M400.937,139.172a.934.934,0,0,1-.66-1.594l4.007-4.007-4.007-4.007a.934.934,0,1,1,1.32-1.32l4.667,4.667a.934.934,0,0,1,0,1.32L401.6,138.9A.927.927,0,0,1,400.937,139.172Zm0,0" transform="translate(-376.671 -120.498)"/><path class="a" d="M9.955,29.875a2.564,2.564,0,0,1-.772-.116l-7.489-2.5A2.512,2.512,0,0,1,0,24.9V2.5A2.491,2.491,0,0,1,2.489.008,2.567,2.567,0,0,1,3.26.124l7.489,2.5a2.511,2.511,0,0,1,1.695,2.367v22.4a2.491,2.491,0,0,1-2.489,2.489Zm-7.467-28a.624.624,0,0,0-.622.622V24.9a.647.647,0,0,0,.432.6l7.454,2.484a.676.676,0,0,0,.2.027.624.624,0,0,0,.622-.622V4.986a.647.647,0,0,0-.432-.6L2.691,1.9a.675.675,0,0,0-.2-.027Zm0,0" transform="translate(0 0)"/><path class="a" d="M44.09,9.964a.934.934,0,0,1-.933-.933V3.43A1.558,1.558,0,0,0,41.6,1.875h-14a.933.933,0,1,1,0-1.867h14A3.425,3.425,0,0,1,45.023,3.43v5.6A.934.934,0,0,1,44.09,9.964Zm0,0" transform="translate(-25.113)"/><path class="a" d="M187.243,287.3h-4.978a.933.933,0,1,1,0-1.867h4.978a1.558,1.558,0,0,0,1.555-1.556v-5.6a.933.933,0,0,1,1.867,0v5.6A3.425,3.425,0,0,1,187.243,287.3Zm0,0" transform="translate(-170.755 -261.154)"/></g></svg>