<svg xmlns="http://www.w3.org/2000/svg" width="51.562" height="51.56" viewBox="0 0 51.562 51.56"><defs><style>.a{fill:#0fce29;}</style></defs><g transform="translate(0 0)"><path class="a" d="M43.874,13.156a.859.859,0,0,0,1.719,0,4.3,4.3,0,0,0-3.437-4.211V8.859a.859.859,0,0,0-1.719,0v.086a4.3,4.3,0,0,0,0,8.421v5.085a2.578,2.578,0,0,1-1.719-2.421.859.859,0,1,0-1.719,0,4.3,4.3,0,0,0,3.437,4.211v.086a.859.859,0,0,0,1.719,0v-.086a4.3,4.3,0,0,0,0-8.421V10.736A2.578,2.578,0,0,1,43.874,13.156Zm-5.156,0a2.578,2.578,0,0,1,1.719-2.42v4.84A2.578,2.578,0,0,1,38.718,13.156Zm5.156,6.875a2.578,2.578,0,0,1-1.719,2.42v-4.84A2.578,2.578,0,0,1,43.874,20.031Z" transform="translate(-5.204 -1.125)"/><path class="a" d="M40.031,4A12.031,12.031,0,1,0,52.061,16.031,12.031,12.031,0,0,0,40.031,4Zm0,22.342A10.312,10.312,0,1,1,50.342,16.031,10.312,10.312,0,0,1,40.031,26.342Z" transform="translate(-3.939 -0.563)"/><path class="a" d="M38.344,0A15.474,15.474,0,0,0,22.92,14.609h-.9a3.437,3.437,0,0,0-3.437,3.437v9.1l-1.111-1.111a.859.859,0,0,0-1.215,1.215l2.578,2.578a.859.859,0,0,0,1.215,0l2.578-2.578a.859.859,0,0,0-1.215-1.215L20.3,27.143v-9.1a1.719,1.719,0,0,1,1.719-1.719h.9A15.463,15.463,0,0,0,37.485,30.892v2.266l-.252-.252a.859.859,0,0,0-1.215,1.215l1.719,1.719a.859.859,0,0,0,1.215,0l1.719-1.719a.859.859,0,0,0-1.215-1.215l-.252.252V30.892A15.458,15.458,0,0,0,38.344,0Zm0,29.217A13.749,13.749,0,1,1,52.093,15.468,13.749,13.749,0,0,1,38.344,29.217Z" transform="translate(-2.253 0)"/><path class="a" d="M2.578,56.2h4.3a2.565,2.565,0,0,0,1.908-.859H30.334a6.862,6.862,0,0,0,3.574-1l16.1-9.8A3.218,3.218,0,0,0,51.5,42.4a3.164,3.164,0,0,0-.538-2.469.842.842,0,0,0-.05-.073,3.207,3.207,0,0,0-3.588-1.117l-15.906,5.3a2.582,2.582,0,0,1-.816.132h-.493a3.953,3.953,0,0,0-.32-3.383l-.077-.129a5.184,5.184,0,0,0-4.418-2.507H20.8a7.005,7.005,0,0,1-4.362-1.53A8.735,8.735,0,0,0,11,34.719h-1.7A2.578,2.578,0,0,0,6.875,33h-4.3A2.578,2.578,0,0,0,0,35.578V53.624A2.578,2.578,0,0,0,2.578,56.2ZM15.36,37.968A8.735,8.735,0,0,0,20.8,39.875h4.5a3.454,3.454,0,0,1,2.947,1.668l.077.128a2.245,2.245,0,0,1-.129,2.5h-5.22A8.564,8.564,0,0,0,18.2,45.615l-.63.419a.859.859,0,1,0,.954,1.43l.629-.419a6.852,6.852,0,0,1,3.814-1.155H30.6a4.3,4.3,0,0,0,1.359-.22l15.907-5.3a1.482,1.482,0,0,1,1.622.453c.015.025.032.049.049.073a1.494,1.494,0,0,1-.418,2.174l-16.108,9.8a5.156,5.156,0,0,1-2.681.752H9.453V36.437H11a7.005,7.005,0,0,1,4.361,1.53ZM1.719,35.578a.859.859,0,0,1,.859-.859h4.3a.859.859,0,0,1,.859.859V53.624a.859.859,0,0,1-.859.859h-4.3a.859.859,0,0,1-.859-.859Z" transform="translate(0 -4.642)"/></g></svg>