<svg xmlns="http://www.w3.org/2000/svg" width="55.029" height="55.029" viewBox="0 0 55.029 55.029"><defs><style>.a{fill:#FFFFFF;}</style></defs><path class="a" d="M50.989,13.16l2.669-2.669a1.612,1.612,0,0,0-1-2.747L47.7,7.327l-.418-4.951a1.612,1.612,0,0,0-2.746-1L41.869,4.04A27.516,27.516,0,0,0,8.058,46.971,27.516,27.516,0,0,0,50.989,13.16ZM44.6,8.955a1.613,1.613,0,0,0,1.471,1.471l2.849.24-3.856,3.856-4.205-.355-.355-4.205,3.856-3.856ZM33,27.515a5.486,5.486,0,1,1-2.918-4.843l-3.7,3.7a1.612,1.612,0,1,0,2.28,2.28l3.7-3.7A5.444,5.444,0,0,1,33,27.515Zm-.575-7.187a8.715,8.715,0,1,0,2.28,2.28l4.6-4.6a15.173,15.173,0,1,1-2.28-2.28ZM44.689,44.691A24.29,24.29,0,1,1,10.338,10.34,24.3,24.3,0,0,1,39.516,6.393L37.7,8.211a1.612,1.612,0,0,0-.472,1.1c0,.059,0,.118.005.177l.217,2.572a18.394,18.394,0,1,0,5.522,5.522l2.572.217c.045,0,.091.005.136.005H45.7l.064,0c.035,0,.07,0,.1-.008l.064-.01c.034-.005.068-.012.1-.019l.063-.016c.033-.009.065-.019.1-.03l.062-.022c.031-.012.063-.026.094-.04l.059-.028c.031-.016.061-.034.091-.051l.054-.032c.032-.021.063-.044.093-.067.014-.011.029-.021.043-.032a1.6,1.6,0,0,0,.126-.113l1.818-1.818a24.3,24.3,0,0,1-3.947,29.178Zm0,0" transform="translate(0.001 -0.001)"/></svg>