<svg xmlns="http://www.w3.org/2000/svg" width="197.139" height="197.138" viewBox="0 0 197.139 197.138"><defs><style>.a{fill:#d5d4d6;}</style></defs><path class="a" d="M182.666,47.143l9.561-9.56a5.776,5.776,0,0,0-3.6-9.839l-17.737-1.5-1.5-17.737a5.775,5.775,0,0,0-9.838-3.6l-9.561,9.56a98.572,98.572,0,0,0-121.126,153.8,98.574,98.574,0,0,0,153.8-121.126ZM159.789,32.079a5.778,5.778,0,0,0,5.27,5.27l10.2.86L161.451,52.022l-15.065-1.271-1.271-15.065,13.813-13.813ZM118.205,98.57a19.655,19.655,0,1,1-10.455-17.351L94.485,94.486a5.775,5.775,0,1,0,8.167,8.167l13.267-13.266a19.5,19.5,0,0,1,2.286,9.182Zm-2.059-25.746a31.222,31.222,0,1,0,8.168,8.168L140.8,64.5a54.354,54.354,0,1,1-8.168-8.168ZM160.1,160.1A87.017,87.017,0,1,1,37.038,37.039,87.057,87.057,0,0,1,141.566,22.9l-6.514,6.514a5.775,5.775,0,0,0-1.691,3.936c0,.211,0,.421.018.633l.778,9.215a65.894,65.894,0,1,0,19.781,19.781l9.215.778c.162.012.325.02.486.02.027,0,.056,0,.083,0,.077,0,.152-.006.229-.011.125-.008.251-.015.375-.03l.23-.035c.122-.02.242-.042.362-.069.077-.018.152-.038.227-.057.117-.032.233-.068.349-.107.075-.026.149-.051.223-.08.113-.044.224-.092.335-.144.071-.032.141-.063.212-.1.111-.057.22-.12.326-.183.065-.039.129-.075.193-.114.114-.075.224-.156.334-.239.051-.039.1-.074.153-.114a5.728,5.728,0,0,0,.453-.4l6.514-6.514A87.057,87.057,0,0,1,160.1,160.1Zm0,0" transform="translate(0.001 -0.001)"/></svg>