<svg xmlns="http://www.w3.org/2000/svg" width="30.001" height="30" viewBox="0 0 30.001 30"><defs><style>.a{fill:#fff;}</style></defs><g transform="translate(-0.999 -1)"><path class="a" d="M30.949,35.461,23.691,20.945a.484.484,0,0,0-.433-.268H18.471l.061-.264a4.839,4.839,0,1,0-3.129,0l.061.264H8.742a.484.484,0,0,0-.433.268L1.05,35.461a.484.484,0,0,0,.433.7H30.516a.484.484,0,0,0,.433-.7ZM15.174,33.116l2.077,2.077H15.716l-3.729-3.729a.483.483,0,0,0-.684,0L7.574,35.194H6.039l4.5-4.5a.483.483,0,0,0,0-.684L6.749,26.227,7.261,25.2l2.106,2.106a.484.484,0,0,0,.685,0l2.419-2.419a.483.483,0,0,0,.142-.342v-2.9h.968v3.671l-2.761,2.761a.483.483,0,0,0,0,.684l2.9,2.9a.484.484,0,0,0,.684,0l4.213-4.213h7.243l.484.968H19.387a.482.482,0,0,0-.342.142l-3.871,3.871a.483.483,0,0,0,0,.684Zm-.826,2.077H8.942l2.7-2.7ZM13.1,15.839a3.871,3.871,0,1,1,4.9,3.728.485.485,0,0,0-.343.358l-.684,2.96-.684-2.96a.484.484,0,0,0-.343-.358A3.878,3.878,0,0,1,13.1,15.839Zm3.4,9.3a.484.484,0,0,0,.944,0l.808-3.5h4.711l2.419,4.839H18.419a.482.482,0,0,0-.342.142l-4.013,4.013-2.219-2.219,2.561-2.561a.483.483,0,0,0,.142-.342V21.645h1.14Zm-7.455-3.5h2.6v2.7L9.709,26.284,7.717,24.292ZM6.294,27.14l3.215,3.215L4.67,35.194h-2.4Zm12.326,8.054L16.2,32.774l3.387-3.387H26.83l1.935,3.871H26.42L24.628,30.57a.484.484,0,0,0-.745-.074l-.916.915-.741-1.3a.5.5,0,0,0-.84,0l-1.8,3.144H18.419v.968h10.83l.484.968Zm4.289-1.936H20.7l1.1-1.928Zm1.114,0-.557-.975.685-.685,1.107,1.66Z" transform="translate(0 -5.161)"/><path class="a" d="M35.936,17.9H36.9A2.906,2.906,0,0,0,34,15v.968A1.937,1.937,0,0,1,35.936,17.9Z" transform="translate(-17.033 -7.226)"/><path class="a" d="M36.4,23.374l.581.774a2.912,2.912,0,0,0,.919-1.161l-.886-.387a1.932,1.932,0,0,1-.614.774Z" transform="translate(-18.271 -11.148)"/><path class="a" d="M2.452,7.774a.484.484,0,0,0-.4.215L1.081,9.441a.483.483,0,0,0,0,.537l.968,1.452a.484.484,0,0,0,.4.216H4.871V16a.484.484,0,0,0,.484.484H7.29A.484.484,0,0,0,7.774,16V11.645h3.387a.484.484,0,0,0,.4-.752L10.775,9.71l.789-1.183a.484.484,0,0,0-.4-.752H7.774V6.806h2.419a.484.484,0,0,0,.4-.215l.968-1.452a.483.483,0,0,0,0-.537L10.6,3.151a.484.484,0,0,0-.4-.216H7.774V1.484A.484.484,0,0,0,7.29,1H5.355a.484.484,0,0,0-.484.484V2.935H1.484a.484.484,0,0,0-.4.752L1.87,4.871,1.081,6.054a.484.484,0,0,0,.4.752H4.871v.968Zm4.355,7.742H5.839V11.645h.968ZM9.791,9.978l.466.7H2.71L2.065,9.71l.645-.968h7.547l-.466.7A.484.484,0,0,0,9.791,9.978ZM5.839,1.968h.968v.968H5.839ZM2.854,4.6l-.466-.7H9.935l.645.968-.645.968H2.388l.466-.7a.484.484,0,0,0,0-.537Zm2.985,2.2h.968v.968H5.839Z" transform="translate(0 0)"/><path class="a" d="M5,18h.968v.968H5Z" transform="translate(-2.065 -8.774)"/><path class="a" d="M9,18h.968v.968H9Z" transform="translate(-4.129 -8.774)"/><path class="a" d="M17,8h.968v.968H17Z" transform="translate(-8.258 -3.613)"/><path class="a" d="M13,8h.968v.968H13Z" transform="translate(-6.194 -3.613)"/></g></svg>