<svg xmlns="http://www.w3.org/2000/svg" width="161.334" height="79.103" viewBox="0 0 161.334 79.103"><defs><style>.a{fill:#1a3365;}.b{fill:#3497fd;}.c{fill:#2d93ba;}.d{fill:#27a2db;}.e{fill:#3acce1;}.f{fill:#64798a;}.g{fill:#2f4859;}.h{fill:#d5d6db;}.i{fill:#e56353;}.j{fill:#3a556a;}.k{fill:#fff;}</style></defs><path class="a" d="M144.017,125.176h70.7a22.3,22.3,0,0,1,22.3,22.3V163.7a22.3,22.3,0,0,1-22.3,22.3h-70.7a22.3,22.3,0,0,1-22.3-22.3V147.48A22.3,22.3,0,0,1,144.017,125.176Z" transform="translate(-121.713 -118.96)"/><path class="b" d="M28,159.212a3.568,3.568,0,0,1,3.024,1.675l10.576,16.9a4.576,4.576,0,0,1,.7,2.428v25.377a1.59,1.59,0,0,1-1.591,1.59H0V159.212Z" transform="translate(119.033 -140.126)"/><path class="c" d="M26.786,172.647H40.05l7.686,11.517v9.993H26.786Z" transform="translate(103.47 -148.48)"/><path class="d" d="M47.736,184.164,40.05,172.647H26.786V179.4Z" transform="translate(103.47 -148.48)"/><rect class="e" width="112.014" height="10.301" transform="translate(7.018 56.74)"/><path class="f" d="M10.678,268.223H0V257.384H12.069v9.448A1.391,1.391,0,0,1,10.678,268.223Z" transform="translate(149.265 -201.176)"/><ellipse class="g" cx="12.045" cy="12.045" rx="12.045" ry="12.045" transform="translate(120.416 55.012)"/><ellipse class="h" cx="7.826" cy="7.827" rx="7.826" ry="7.827" transform="translate(124.635 59.231)"/><ellipse class="g" cx="12.045" cy="12.045" rx="12.045" ry="12.045" transform="translate(14.155 55.012)"/><g transform="translate(18.374 47.599)"><ellipse class="h" cx="7.826" cy="7.827" rx="7.826" ry="7.827" transform="translate(0 11.632)"/><path class="h" d="M1.628,240.535H5.173v-5.919H1.628A1.628,1.628,0,0,0,0,236.244v2.664A1.628,1.628,0,0,0,1.628,240.535Z" transform="translate(137.787 -234.616)"/></g><path class="i" d="M397.98,270.52h-3.545V264.6h3.545a1.628,1.628,0,0,1,1.628,1.628v2.664A1.628,1.628,0,0,1,397.98,270.52Z" transform="translate(-387.421 -205.664)"/><ellipse class="g" cx="12.045" cy="12.045" rx="12.045" ry="12.045" transform="translate(44.131 55.012)"/><ellipse class="h" cx="7.826" cy="7.827" rx="7.826" ry="7.827" transform="translate(48.35 59.231)"/><ellipse class="g" cx="12.045" cy="12.045" rx="12.045" ry="12.045" transform="translate(75.223 55.012)"/><ellipse class="h" cx="7.826" cy="7.827" rx="7.826" ry="7.827" transform="translate(79.442 59.231)"/><rect class="j" width="24.55" height="4.346" transform="translate(60.553 1.87)"/><rect class="f" width="28.291" height="1.87" transform="translate(58.796 0)"/><path class="k" d="M250.927,164.825c-1.619,6.759,4.523,12.585,10.1,12.585s11.722-5.826,10.1-12.585c-1.3-5.423-10.1-19.886-10.1-19.886S252.225,159.4,250.927,164.825Z" transform="translate(-204.846 -131.25)"/><path class="f" d="M255.628,170.244c-1.339,5.59,3.74,10.407,8.355,10.407s9.693-4.817,8.355-10.407c-1.074-4.485-8.355-16.445-8.355-16.445S256.7,165.759,255.628,170.244Z" transform="translate(-207.798 -136.759)"/></svg>