<svg xmlns="http://www.w3.org/2000/svg" width="26.133" height="28" viewBox="0 0 26.133 28"><defs><style>.a{fill:#370f70;}</style></defs><path class="a" d="M25.667,13.067h-4.2V2.333A2.336,2.336,0,0,0,19.133,0H3.733A1.867,1.867,0,0,0,1.867,1.867v5.6H.467A.467.467,0,0,0,0,7.933v2.8a.467.467,0,0,0,.467.467h1.4v5.133a.467.467,0,0,0,.467.467H4.667v9.333A1.867,1.867,0,0,0,6.533,28h15.4a1.867,1.867,0,0,0,0-3.733h-.467V16.8h4.2a.467.467,0,0,0,.467-.467v-2.8A.467.467,0,0,0,25.667,13.067ZM2.8,1.867a.933.933,0,1,1,1.867,0v5.6H2.8ZM.933,8.4H14a.467.467,0,0,0,.463-.407l1.608,1.34-1.608,1.34A.467.467,0,0,0,14,10.267H.933ZM2.8,15.867V11.2H4.667v4.667ZM22.867,26.133a.933.933,0,0,1-.933.933H8.149a1.852,1.852,0,0,0,.251-.933V25.2H21.933a.933.933,0,0,1,.933.933Zm-2.333-1.867H7.933a.467.467,0,0,0-.467.467v1.4a.933.933,0,1,1-1.867,0V11.2h7.933v.467a.467.467,0,0,0,.766.358l2.8-2.333a.467.467,0,0,0,0-.717L14.3,6.642A.467.467,0,0,0,13.533,7v.467H5.6v-5.6A1.846,1.846,0,0,0,5.341.933H19.133a1.4,1.4,0,0,1,1.4,1.4V13.067H12.6V12.6a.467.467,0,0,0-.766-.358l-2.8,2.333a.467.467,0,0,0,0,.717l2.8,2.333a.467.467,0,0,0,.766-.358V16.8h7.933Zm4.667-8.4H12.133a.457.457,0,0,0-.175.036,1.619,1.619,0,0,0-.143.093.491.491,0,0,0-.041.053.442.442,0,0,0-.058.086.408.408,0,0,0-.021.068.4.4,0,0,0-.023.071l-1.609-1.34,1.608-1.34a.4.4,0,0,0,.023.071.388.388,0,0,0,.021.068.432.432,0,0,0,.058.086.492.492,0,0,0,.041.053,1.618,1.618,0,0,0,.143.093.453.453,0,0,0,.176.036H25.2ZM7.467,2.8h4.667v.933H7.467Zm0,1.867h4.667V5.6H7.467ZM9.333,20.533h9.333v.933H9.333Zm0,1.867h9.333v.933H9.333Zm6.533-2.8v-.933h2.8V19.6Zm0,0"/></svg>