<svg xmlns="http://www.w3.org/2000/svg" width="26.763" height="22.131" viewBox="0 0 26.763 22.131"><defs><style>.a{fill:#fff;}</style></defs><g transform="translate(0 -44.308)"><g transform="translate(0 44.308)"><path class="a" d="M19.558,51.513h7.205V48.168a3.864,3.864,0,0,0-3.86-3.86H3.86A3.864,3.864,0,0,0,0,48.168V62.579a3.864,3.864,0,0,0,3.86,3.86H22.9a3.864,3.864,0,0,0,3.86-3.86V59.234H19.558a3.86,3.86,0,1,1,0-7.72Z" transform="translate(0 -44.308)"/></g><g transform="translate(17.242 53.057)"><path class="a" d="M332.162,211.692a2.316,2.316,0,0,0,0,4.632h7.205v-4.632h-7.205Zm1.029,3.088h-1.029a.772.772,0,0,1,0-1.544h1.029a.772.772,0,1,1,0,1.544Z" transform="translate(-329.846 -211.692)"/></g></g></svg>