<svg xmlns="http://www.w3.org/2000/svg" width="53.098" height="53.099" viewBox="0 0 53.098 53.099"><defs><style>.a{fill:#0d041d96;}</style></defs><g transform="translate(-0.003 0)"><g transform="translate(0.003 0)"><g transform="translate(0 0)"><path class="a" d="M50.688,26.772V19.309a4.817,4.817,0,0,0-4.443-4.788L39.314,2.416A4.776,4.776,0,0,0,32.762.65L9,14.482H4.83A4.832,4.832,0,0,0,0,19.309V48.272A4.832,4.832,0,0,0,4.83,53.1H45.86a4.832,4.832,0,0,0,4.827-4.827V40.809a3.614,3.614,0,0,0,2.414-3.4V30.17A3.614,3.614,0,0,0,50.688,26.772ZM43.44,14.482H32.922l7.889-4.593ZM39.612,7.795,28.125,14.482H23.361L38.42,5.714ZM33.977,2.736a2.334,2.334,0,0,1,1.793-.242,2.366,2.366,0,0,1,1.45,1.121l0,0L18.564,14.482H13.8Zm14.3,45.536a2.417,2.417,0,0,1-2.414,2.414H4.83a2.417,2.417,0,0,1-2.414-2.414V19.309A2.417,2.417,0,0,1,4.83,16.9H45.86a2.417,2.417,0,0,1,2.414,2.414V26.55H41.033a7.241,7.241,0,1,0,0,14.481h7.241v7.241Zm2.414-10.861a1.208,1.208,0,0,1-1.207,1.207H41.033a4.827,4.827,0,1,1,0-9.654h8.447a1.208,1.208,0,0,1,1.207,1.207Z" transform="translate(-0.003 0)"/><path class="a" d="M343.751,277.341a2.414,2.414,0,1,0,2.414,2.414A2.417,2.417,0,0,0,343.751,277.341Z" transform="translate(-302.72 -245.964)"/></g></g></g></svg>