<svg xmlns="http://www.w3.org/2000/svg" width="48.1" height="48" viewBox="0 0 48.1 48"><defs><style>.a{fill:#01bd2c;}</style></defs><path class="a" d="M45.395,24.189V14.629a4.013,4.013,0,0,0-4.008-4.008H40.028l.3-1.046a3.2,3.2,0,0,0-2.194-3.969l-9.1-2.618a.8.8,0,0,0-.443,1.541l5.718,1.646a4.9,4.9,0,0,0-.018,4.446H17.537V4.308a.8.8,0,1,0-1.6,0v6.313H13.228V4.308a.8.8,0,1,0-1.6,0v6.313H8.117V3.707a1.605,1.605,0,0,1,1.6-1.6H23.248a1.605,1.605,0,0,1,1.6,1.6V8.116a.8.8,0,1,0,1.6,0V3.707A3.21,3.21,0,0,0,23.248.5H9.72A3.21,3.21,0,0,0,6.514,3.707v6.914H4.008A4.013,4.013,0,0,0,0,14.629V44.492A4.013,4.013,0,0,0,4.008,48.5H41.386a4.013,4.013,0,0,0,4.008-4.008V38.629a.8.8,0,0,0-1.6,0v5.862A2.408,2.408,0,0,1,41.386,46.9H4.008A2.408,2.408,0,0,1,1.6,44.492V14.629a2.408,2.408,0,0,1,2.405-2.405H41.386a2.408,2.408,0,0,1,2.405,2.405v9.52H37.177a3.21,3.21,0,0,0-3.207,3.207v4.409a3.21,3.21,0,0,0,3.207,3.207H44.9a3.21,3.21,0,0,0,3.2-3.207V27.356A3.212,3.212,0,0,0,45.395,24.189ZM35.9,6.631l1.793.516a1.6,1.6,0,0,1,1.1,1.984l-.429,1.49H36.216A3.3,3.3,0,0,1,35.9,6.631ZM46.5,31.765a1.605,1.605,0,0,1-1.6,1.6H37.177a1.605,1.605,0,0,1-1.6-1.6V27.356a1.605,1.605,0,0,1,1.6-1.6h7.716a1.605,1.605,0,0,1,1.6,1.6Zm-6.313-2.2a.8.8,0,0,1-.8.8h-1.2a.8.8,0,1,1,0-1.6h1.2A.8.8,0,0,1,40.184,29.561Z" transform="translate(0 -0.5)"/></svg>