<svg xmlns="http://www.w3.org/2000/svg" width="35.989" height="36.001" viewBox="0 0 35.989 36.001"><defs><style>.a{fill:#fff;}</style></defs><g transform="translate(-0.501)"><path class="a" d="M219.925,331.394a.7.7,0,1,0-.995,0A.7.7,0,0,0,219.925,331.394Zm0,0" transform="translate(-202.879 -306.976)"/><path class="a" d="M188.449,7.732A7.732,7.732,0,1,0,196.181,0,7.741,7.741,0,0,0,188.449,7.732Zm14.059,0a6.327,6.327,0,1,1-6.327-6.326A6.334,6.334,0,0,1,202.508,7.732Zm0,0" transform="translate(-174.732)"/><path class="a" d="M8.6,233.183a.7.7,0,0,0,.992.006L13,229.831a2.124,2.124,0,0,0,.5-2.181l.733-.707a2.1,2.1,0,0,1,1.464-.591H25.04a6.294,6.294,0,0,0,4.413-1.793c.049-.048-.371.447,6.375-7.616a2.812,2.812,0,0,0-4.279-3.649L27.4,217.556a2.825,2.825,0,0,0-2.186-1.046H17.377a9.069,9.069,0,0,0-3.52-.7A8.7,8.7,0,0,0,5.93,220.3a2.1,2.1,0,0,0-1.88.583L.706,224.238a.7.7,0,0,0,0,.992Zm5.259-15.97a7.674,7.674,0,0,1,3.095.644.7.7,0,0,0,.282.059h7.983a1.406,1.406,0,1,1,0,2.812H19.481a.7.7,0,1,0,0,1.406h5.735A2.807,2.807,0,0,0,28,218.954c4.013-4.125,4.578-4.7,4.6-4.733a1.406,1.406,0,1,1,2.147,1.817l-6.3,7.537a4.895,4.895,0,0,1-3.407,1.37H15.7a3.5,3.5,0,0,0-2.44.986l-.6.577L7.151,221a7.258,7.258,0,0,1,6.706-3.788Zm-8.812,4.665a.7.7,0,0,1,.87-.1c.122.074-.228-.244,6.088,6.063a.7.7,0,0,1,0,.991L9.1,231.7,2.2,224.736Zm0,0" transform="translate(0 -197.39)"/><path class="a" d="M267.238,40.691v.824a2.109,2.109,0,0,0,.7,4.1.7.7,0,0,1,0,1.406,1.271,1.271,0,0,1-.913-.532.7.7,0,0,0-1.076.9,2.916,2.916,0,0,0,1.286.915v.82a.7.7,0,1,0,1.406,0V48.3a2.109,2.109,0,0,0-.7-4.1.7.7,0,0,1,0-1.406,1.129,1.129,0,0,1,.76.368.7.7,0,1,0,.978-1.01,2.716,2.716,0,0,0-1.035-.647v-.819a.7.7,0,1,0-1.406,0Zm0,0" transform="translate(-246.632 -37.177)"/></g></svg>